<?xml version="1.0" encoding="utf-8"?>
<!-- Generator: Adobe Illustrator 16.0.0, SVG Export Plug-In . SVG Version: 6.00 Build 0)  -->
<!DOCTYPE svg PUBLIC "-//W3C//DTD SVG 1.1//EN" "http://www.w3.org/Graphics/SVG/1.1/DTD/svg11.dtd">
<svg version="1.1"
	 id="svg2" xmlns:dc="http://purl.org/dc/elements/1.1/" xmlns:cc="http://creativecommons.org/ns#" xmlns:rdf="http://www.w3.org/1999/02/22-rdf-syntax-ns#" xmlns:svg="http://www.w3.org/2000/svg" xmlns:sodipodi="http://sodipodi.sourceforge.net/DTD/sodipodi-0.dtd" xmlns:inkscape="http://www.inkscape.org/namespaces/inkscape" inkscape:version="0.91 r13725" sodipodi:docname="csv.svg" inkscape:export-filename="/Volumes/ramdisk/csv.png" inkscape:export-xdpi="10.800075" inkscape:export-ydpi="10.800075"
	 xmlns="http://www.w3.org/2000/svg" xmlns:xlink="http://www.w3.org/1999/xlink" x="0px" y="0px" width="595.188px"
	 height="601.781px" viewBox="0 0 595.188 601.781" enable-background="new 0 0 595.188 601.781" xml:space="preserve">
<filter id="Blur10" width="200%" height="200%" x="-50%" y="-50%">
	<feGaussianBlur stdDeviation="10"></feGaussianBlur>
</filter>
<g id="g3890" transform="matrix(0.86046,0,0,0.86207,6.3889645,-801.60481)">
	
		<linearGradient id="path3892_1_" gradientUnits="userSpaceOnUse" x1="132.1706" y1="1922.2494" x2="-52.8293" y2="2157.2488" gradientTransform="matrix(3.835 0 0 -3.8566 147.7208 9060.4824)">
		<stop  offset="0" style="stop-color:#E6E6E6"/>
		<stop  offset="1" style="stop-color:#F9F9F9"/>
	</linearGradient>
	
		<path id="path3892" inkscape:connector-curvature="0" fill="url(#path3892_1_)" stroke="#808080" stroke-width="5" stroke-linejoin="round" d="
		M530.887,933.794h-361.18v692.263h511.672v-541.771L530.887,933.794z"/>
	
		<linearGradient id="path3894_1_" gradientUnits="userSpaceOnUse" x1="120.3208" y1="645.6812" x2="107.3202" y2="632.6806" gradientTransform="matrix(3.835 0 0 -3.8566 147.7208 3496.1147)">
		<stop  offset="0" style="stop-color:#CCCCCC"/>
		<stop  offset="0.2201" style="stop-color:#E6E6E6"/>
		<stop  offset="0.4693" style="stop-color:#FFFFFF"/>
		<stop  offset="1" style="stop-color:#E6E6E6"/>
	</linearGradient>
	
		<path id="path3894" inkscape:connector-curvature="0" fill="url(#path3894_1_)" stroke="#808080" stroke-width="5" stroke-linejoin="round" d="
		M681.378,1084.285L530.885,933.793c11.217,50.164,12.838,100.33,0,150.492C590.515,1072.637,633.992,1080.869,681.378,1084.285z"/>
</g>
<rect id="rect3896_1_b" filter="url(#Blur10)" x="20" y="93.623" fill="#404040" width="379.626" height="188.151"/>
<g enable-background="new" filter="url(#Blur10)" fill="#404040" transform="translate(20 20)">
	<path d="M290.177,451.74h38.799l-41.591,68.191c-2.057,3.33-3.699,5.438-4.923,6.32
		c-1.226,0.881-2.67,1.322-4.335,1.322c-2.351,0-4.313-0.734-5.878-2.205c-1.568-1.469-2.352-3.232-2.352-5.291
		c0-1.176,0.294-2.695,0.882-4.555L290.177,451.74z M311.634,368.852h5.438c5.485,0,10.163,1.961,14.035,5.879
		c3.87,3.92,5.806,8.574,5.806,13.961c0,5.783-1.961,10.582-5.879,14.402c-3.92,3.822-8.574,5.732-13.962,5.732h-5.438
		c-5.488,0-10.166-1.959-14.035-5.879c-3.872-3.918-5.805-8.572-5.805-13.961c0-5.779,1.984-10.582,5.952-14.402
		C301.713,370.762,306.343,368.852,311.634,368.852z"/>
	<path d="M470.503,451.74h40.122l-43.649,81.125c-2.646,4.898-5.83,7.348-9.553,7.348
		c-2.45,0-4.532-0.859-6.245-2.572c-1.716-1.715-2.572-3.797-2.572-6.246c0-0.98,0.146-2.057,0.44-3.232L470.503,451.74z"/>
</g>
<rect id="rect3896_1_" x="0" y="73.623" fill="#AAD400" width="379.626" height="188.151"/>
<g enable-background="new    ">
	<path fill="#AAD400" d="M290.177,451.74h38.799l-41.591,68.191c-2.057,3.33-3.699,5.438-4.923,6.32
		c-1.226,0.881-2.67,1.322-4.335,1.322c-2.351,0-4.313-0.734-5.878-2.205c-1.568-1.469-2.352-3.232-2.352-5.291
		c0-1.176,0.294-2.695,0.882-4.555L290.177,451.74z M311.634,368.852h5.438c5.485,0,10.163,1.961,14.035,5.879
		c3.87,3.92,5.806,8.574,5.806,13.961c0,5.783-1.961,10.582-5.879,14.402c-3.92,3.822-8.574,5.732-13.962,5.732h-5.438
		c-5.488,0-10.166-1.959-14.035-5.879c-3.872-3.918-5.805-8.572-5.805-13.961c0-5.779,1.984-10.582,5.952-14.402
		C301.713,370.762,306.343,368.852,311.634,368.852z"/>
	<path fill="#AAD400" d="M470.503,451.74h40.122l-43.649,81.125c-2.646,4.898-5.83,7.348-9.553,7.348
		c-2.45,0-4.532-0.859-6.245-2.572c-1.716-1.715-2.572-3.797-2.572-6.246c0-0.98,0.146-2.057,0.44-3.232L470.503,451.74z"/>
</g>
<g enable-background="new    ">
	<path fill="#FFFFFF" d="M114.413,186.779l15.63,3.948c-3.277,12.837-9.172,22.626-17.685,29.366
		c-8.513,6.741-18.92,10.11-31.219,10.11c-12.729,0-23.083-2.59-31.058-7.774c-7.977-5.183-14.046-12.688-18.208-22.519
		c-4.163-9.828-6.244-20.383-6.244-31.662c0-12.299,2.349-23.028,7.05-32.187c4.699-9.156,11.386-16.113,20.061-20.866
		c8.674-4.754,18.221-7.131,28.642-7.131c11.815,0,21.753,3.009,29.81,9.023c8.057,6.017,13.668,14.476,16.838,25.379l-15.388,3.625
		c-2.739-8.593-6.715-14.851-11.924-18.771c-5.21-3.92-11.763-5.881-19.658-5.881c-9.078,0-16.665,2.175-22.76,6.525
		c-6.097,4.351-10.381,10.191-12.851,17.523c-2.471,7.331-3.706,14.892-3.706,22.68c0,10.044,1.463,18.812,4.391,26.305
		c2.927,7.492,7.479,13.092,13.656,16.798c6.176,3.706,12.863,5.56,20.061,5.56c8.754,0,16.166-2.524,22.236-7.574
		C108.155,204.208,112.264,196.716,114.413,186.779z"/>
	<path fill="#FFFFFF" d="M143.981,190.243l14.744-1.289c0.697,5.909,2.323,10.756,4.875,14.543c2.55,3.786,6.512,6.848,11.883,9.185
		c5.37,2.336,11.413,3.505,18.127,3.505c5.962,0,11.225-0.887,15.791-2.659c4.564-1.772,7.962-4.202,10.191-7.291
		c2.229-3.088,3.344-6.458,3.344-10.111c0-3.706-1.075-6.941-3.223-9.708c-2.149-2.766-5.694-5.089-10.635-6.969
		c-3.17-1.235-10.179-3.155-21.028-5.761c-10.85-2.604-18.45-5.063-22.8-7.372c-5.64-2.953-9.843-6.619-12.608-10.997
		c-2.767-4.377-4.149-9.278-4.149-14.704c0-5.961,1.692-11.533,5.076-16.717c3.384-5.183,8.325-9.117,14.824-11.803
		c6.498-2.686,13.723-4.029,21.672-4.029c8.754,0,16.476,1.41,23.163,4.23c6.687,2.819,11.829,6.969,15.428,12.447
		c3.598,5.479,5.531,11.682,5.801,18.611l-14.985,1.127c-0.806-7.465-3.532-13.104-8.177-16.918
		c-4.646-3.813-11.509-5.721-20.585-5.721c-9.454,0-16.342,1.732-20.665,5.196c-4.324,3.465-6.486,7.642-6.486,12.528
		c0,4.243,1.531,7.734,4.592,10.474c3.007,2.739,10.863,5.547,23.565,8.419c12.702,2.874,21.417,5.386,26.144,7.533
		c6.875,3.17,11.95,7.185,15.227,12.045c3.275,4.861,4.915,10.461,4.915,16.798c0,6.284-1.8,12.206-5.398,17.765
		c-3.599,5.56-8.769,9.884-15.509,12.972c-6.741,3.088-14.329,4.632-22.76,4.632c-10.689,0-19.646-1.558-26.869-4.672
		c-7.225-3.115-12.891-7.802-17-14.06C146.358,205.216,144.195,198.139,143.981,190.243z"/>
	<path fill="#FFFFFF" d="M293.109,228.19l-45.762-118.11h16.919l30.696,85.804c2.47,6.875,4.538,13.32,6.204,19.336
		c1.824-6.445,3.947-12.891,6.364-19.336l31.903-85.804h15.953l-46.245,118.11H293.109z"/>
</g>
</svg>
