<?xml version="1.0" encoding="utf-8"?>
<!-- Generator: Adobe Illustrator 16.0.0, SVG Export Plug-In . SVG Version: 6.00 Build 0)  -->
<!DOCTYPE svg PUBLIC "-//W3C//DTD SVG 1.1//EN" "http://www.w3.org/Graphics/SVG/1.1/DTD/svg11.dtd">
<svg version="1.1"
	 id="svg2" xmlns:dc="http://purl.org/dc/elements/1.1/" xmlns:cc="http://creativecommons.org/ns#" xmlns:rdf="http://www.w3.org/1999/02/22-rdf-syntax-ns#" xmlns:svg="http://www.w3.org/2000/svg" xmlns:sodipodi="http://sodipodi.sourceforge.net/DTD/sodipodi-0.dtd" xmlns:inkscape="http://www.inkscape.org/namespaces/inkscape" inkscape:version="0.91 r13725" sodipodi:docname="jpg.svg" inkscape:export-filename="/Volumes/ramdisk/jpg.png" inkscape:export-xdpi="10.800075" inkscape:export-ydpi="10.800075"
	 xmlns="http://www.w3.org/2000/svg" xmlns:xlink="http://www.w3.org/1999/xlink" x="0px" y="0px" width="595.188px"
	 height="601.781px" viewBox="0 0 595.188 601.781" enable-background="new 0 0 595.188 601.781" xml:space="preserve">
<filter id="Blur10" width="200%" height="200%" x="-50%" y="-50%">
	<feGaussianBlur stdDeviation="10"></feGaussianBlur>
</filter>
<g id="g3890" transform="matrix(0.86046,0,0,0.86207,6.3889645,-801.60481)">
	
		<linearGradient id="path3892_1_" gradientUnits="userSpaceOnUse" x1="132.17" y1="1922.4307" x2="-52.8312" y2="2157.4319" gradientTransform="matrix(3.835 0 0 -3.8566 147.7208 9060.4824)">
		<stop  offset="0" style="stop-color:#E6E6E6"/>
		<stop  offset="1" style="stop-color:#F9F9F9"/>
	</linearGradient>
	
		<path id="path3892" inkscape:connector-curvature="0" fill="url(#path3892_1_)" stroke="#808080" stroke-width="5" stroke-linejoin="round" d="
		M530.887,933.092h-361.18v692.264h511.672v-541.772L530.887,933.092z"/>
	
		<linearGradient id="path3894_1_" gradientUnits="userSpaceOnUse" x1="120.323" y1="645.8658" x2="107.323" y2="632.8658" gradientTransform="matrix(3.835 0 0 -3.8566 147.7208 3496.1147)">
		<stop  offset="0" style="stop-color:#CCCCCC"/>
		<stop  offset="0.2201" style="stop-color:#E6E6E6"/>
		<stop  offset="0.4693" style="stop-color:#FFFFFF"/>
		<stop  offset="1" style="stop-color:#E6E6E6"/>
	</linearGradient>
	
		<path id="path3894" inkscape:connector-curvature="0" fill="url(#path3894_1_)" stroke="#808080" stroke-width="5" stroke-linejoin="round" d="
		M681.378,1083.584L530.885,933.092c11.217,50.164,12.838,100.33,0,150.492C590.515,1071.936,633.992,1080.168,681.378,1083.584z"/>
</g>
<rect id="rect3896-b" filter="url(#Blur10)" x="20" y="93.019" fill="#404040" width="379.626" height="188.151"/>
<g id="g3539-b" filter="url(#Blur10)" fill="#404040" transform="translate(20 20)">
	<path id="path3541-b" inkscape:connector-curvature="0" d="M506.687,360.383
		c-7.626-7.625-16.824-11.438-27.602-11.438h-34.159l-7.775-20.738c-1.933-4.98-5.464-9.277-10.601-12.889
		c-5.137-3.607-10.396-5.414-15.784-5.414h-78.08c-5.389,0-10.65,1.807-15.785,5.414c-5.135,3.611-8.666,7.908-10.599,12.889
		l-7.776,20.738h-34.158c-10.778,0-19.979,3.813-27.604,11.438c-7.624,7.625-11.438,16.824-11.438,27.602v136.639
		c0,10.777,3.813,19.98,11.438,27.605c7.626,7.625,16.824,11.438,27.604,11.438h214.717c10.775,0,19.975-3.813,27.601-11.438
		c7.624-7.623,11.438-16.824,11.438-27.605V387.984C518.121,377.207,514.309,368.008,506.687,360.383z M419.99,504.57
		c-13.369,13.371-29.456,20.057-48.266,20.057c-18.812,0-34.896-6.686-48.268-20.057c-13.367-13.367-20.053-29.457-20.053-48.262
		c0-18.814,6.688-34.896,20.053-48.271c13.369-13.365,29.457-20.053,48.268-20.053c18.81,0,34.896,6.689,48.266,20.053
		c13.369,13.369,20.056,29.455,20.056,48.271C440.044,475.113,433.36,491.203,419.99,504.57z"/>
	<path id="path3543-b" inkscape:connector-curvature="0" d="M371.724,412.385c-12.099,0-22.443,4.295-31.034,12.887
		s-12.887,18.936-12.887,31.037c0,12.096,4.296,22.439,12.887,31.031c8.591,8.59,18.938,12.885,31.034,12.885
		s22.441-4.295,31.034-12.885c8.591-8.592,12.887-18.936,12.887-31.031c0-12.102-4.296-22.445-12.887-31.037
		C394.166,416.682,383.822,412.385,371.724,412.385z"/>
</g>
<rect id="rect3896" x="0" y="73.019" fill="#1ABC9C" width="379.626" height="188.151"/>
<g enable-background="new    ">
	<path fill="#FFFFFF" d="M34.812,191.628l14.099-1.934c0.375,9.023,2.067,15.2,5.076,18.53c3.007,3.331,7.17,4.995,12.488,4.995
		c3.92,0,7.304-0.898,10.151-2.699c2.846-1.799,4.806-4.242,5.881-7.331c1.074-3.088,1.611-8.017,1.611-14.784v-81.372h15.63v80.485
		c0,9.884-1.196,17.537-3.585,22.962c-2.39,5.426-6.177,9.561-11.359,12.407c-5.184,2.847-11.267,4.27-18.249,4.27
		c-10.367,0-18.302-2.98-23.807-8.942C37.241,212.253,34.596,203.391,34.812,191.628z"/>
	<path fill="#FFFFFF" d="M125.288,225.144v-118.11h44.553c7.841,0,13.83,0.376,17.966,1.128c5.801,0.967,10.661,2.808,14.583,5.519
		c3.92,2.713,7.076,6.514,9.466,11.4c2.39,4.888,3.585,10.26,3.585,16.113c0,10.044-3.196,18.544-9.587,25.499
		c-6.393,6.957-17.94,10.434-34.644,10.434h-30.293v48.018H125.288z M140.918,163.189h30.535c10.097,0,17.268-1.88,21.511-5.641
		c4.242-3.759,6.365-9.05,6.365-15.871c0-4.941-1.249-9.171-3.747-12.689c-2.497-3.517-5.788-5.841-9.869-6.969
		c-2.632-0.697-7.493-1.047-14.583-1.047h-30.212V163.189z"/>
	<path fill="#FFFFFF" d="M290.61,178.818V164.96l50.031-0.08v43.828c-7.68,6.123-15.603,10.729-23.766,13.817
		c-8.166,3.088-16.545,4.632-25.137,4.632c-11.602,0-22.143-2.483-31.622-7.452c-9.48-4.967-16.637-12.151-21.471-21.552
		c-4.834-9.398-7.251-19.899-7.251-31.501c0-11.493,2.403-22.223,7.21-32.187c4.807-9.962,11.723-17.361,20.746-22.195
		s19.417-7.252,31.179-7.252c8.54,0,16.261,1.384,23.162,4.149c6.902,2.768,12.313,6.62,16.234,11.562
		c3.92,4.942,6.902,11.388,8.943,19.336l-14.1,3.867c-1.771-6.015-3.975-10.742-6.605-14.18c-2.633-3.437-6.393-6.189-11.279-8.258
		c-4.889-2.067-10.313-3.102-16.275-3.102c-7.144,0-13.321,1.087-18.53,3.263c-5.21,2.175-9.414,5.035-12.608,8.58
		c-3.196,3.545-5.68,7.439-7.453,11.683c-3.009,7.305-4.512,15.227-4.512,23.767c0,10.527,1.813,19.336,5.438,26.426
		c3.626,7.09,8.903,12.354,15.832,15.791c6.929,3.438,14.287,5.156,22.075,5.156c6.768,0,13.374-1.302,19.819-3.907
		c6.445-2.604,11.332-5.385,14.663-8.339v-21.995H290.61z"/>
</g>
<g id="g3539">
	<path id="path3541" inkscape:connector-curvature="0" fill="#1ABC9C" d="M506.687,360.383
		c-7.626-7.625-16.824-11.438-27.602-11.438h-34.159l-7.775-20.738c-1.933-4.98-5.464-9.277-10.601-12.889
		c-5.137-3.607-10.396-5.414-15.784-5.414h-78.08c-5.389,0-10.65,1.807-15.785,5.414c-5.135,3.611-8.666,7.908-10.599,12.889
		l-7.776,20.738h-34.158c-10.778,0-19.979,3.813-27.604,11.438c-7.624,7.625-11.438,16.824-11.438,27.602v136.639
		c0,10.777,3.813,19.98,11.438,27.605c7.626,7.625,16.824,11.438,27.604,11.438h214.717c10.775,0,19.975-3.813,27.601-11.438
		c7.624-7.623,11.438-16.824,11.438-27.605V387.984C518.121,377.207,514.309,368.008,506.687,360.383z M419.99,504.57
		c-13.369,13.371-29.456,20.057-48.266,20.057c-18.812,0-34.896-6.686-48.268-20.057c-13.367-13.367-20.053-29.457-20.053-48.262
		c0-18.814,6.688-34.896,20.053-48.271c13.369-13.365,29.457-20.053,48.268-20.053c18.81,0,34.896,6.689,48.266,20.053
		c13.369,13.369,20.056,29.455,20.056,48.271C440.044,475.113,433.36,491.203,419.99,504.57z"/>
	<path id="path3543" inkscape:connector-curvature="0" fill="#1ABC9C" d="M371.724,412.385c-12.099,0-22.443,4.295-31.034,12.887
		s-12.887,18.936-12.887,31.037c0,12.096,4.296,22.439,12.887,31.031c8.591,8.59,18.938,12.885,31.034,12.885
		s22.441-4.295,31.034-12.885c8.591-8.592,12.887-18.936,12.887-31.031c0-12.102-4.296-22.445-12.887-31.037
		C394.166,416.682,383.822,412.385,371.724,412.385z"/>
</g>
</svg>
