<?xml version="1.0" encoding="utf-8"?>
<!-- Generator: Adobe Illustrator 16.0.0, SVG Export Plug-In . SVG Version: 6.00 Build 0)  -->
<!DOCTYPE svg PUBLIC "-//W3C//DTD SVG 1.1//EN" "http://www.w3.org/Graphics/SVG/1.1/DTD/svg11.dtd">
<svg version="1.1"
	 id="svg2" xmlns:dc="http://purl.org/dc/elements/1.1/" xmlns:cc="http://creativecommons.org/ns#" xmlns:rdf="http://www.w3.org/1999/02/22-rdf-syntax-ns#" xmlns:svg="http://www.w3.org/2000/svg" xmlns:sodipodi="http://sodipodi.sourceforge.net/DTD/sodipodi-0.dtd" xmlns:inkscape="http://www.inkscape.org/namespaces/inkscape" inkscape:version="0.48.2 r9819" sodipodi:docname="pdf.svg" inkscape:export-filename="C:\Users\Yann\Desktop\icon_pdf.png" inkscape:export-xdpi="86" inkscape:export-ydpi="86"
	 xmlns="http://www.w3.org/2000/svg" xmlns:xlink="http://www.w3.org/1999/xlink" x="0px" y="0px" width="595.188px"
	 height="601.781px" viewBox="0 0 595.188 601.781" enable-background="new 0 0 595.188 601.781" xml:space="preserve">
<filter id="Blur10" width="200%" height="200%" x="-50%" y="-50%">
	<feGaussianBlur stdDeviation="10"></feGaussianBlur>
</filter>
<g id="g3890_1_" transform="matrix(0.86046,0,0,0.86207,6.3889645,-801.60481)">
	
		<linearGradient id="path3892_2_" gradientUnits="userSpaceOnUse" x1="132.1706" y1="1922.2177" x2="-52.8297" y2="2157.2175" gradientTransform="matrix(3.835 0 0 -3.8566 147.7208 9060.4824)">
		<stop  offset="0" style="stop-color:#E6E6E6"/>
		<stop  offset="1" style="stop-color:#F9F9F9"/>
	</linearGradient>
	
		<path id="path3892_1_" inkscape:connector-curvature="0" fill="url(#path3892_2_)" stroke="#808080" stroke-width="5" stroke-linejoin="round" d="
		M530.887,933.914h-361.18v692.265h511.672v-541.774L530.887,933.914z"/>
	
		<linearGradient id="path3894_2_" gradientUnits="userSpaceOnUse" x1="120.3225" y1="645.6522" x2="107.3225" y2="632.6522" gradientTransform="matrix(3.835 0 0 -3.8566 147.7208 3496.1147)">
		<stop  offset="0" style="stop-color:#CCCCCC"/>
		<stop  offset="0.2201" style="stop-color:#E6E6E6"/>
		<stop  offset="0.4693" style="stop-color:#FFFFFF"/>
		<stop  offset="1" style="stop-color:#E6E6E6"/>
	</linearGradient>
	
		<path id="path3894_1_" inkscape:connector-curvature="0" fill="url(#path3894_2_)" stroke="#808080" stroke-width="5" stroke-linejoin="round" d="
		M681.378,1084.406L530.885,933.914c11.217,50.164,12.838,100.33,0,150.492C590.515,1072.758,633.992,1080.99,681.378,1084.406z"/>
</g>
<rect id="rect3878_1_b" filter="url(#Blur10)" x="20" y="93.728" fill="#404040" width="379.626" height="188.151"/>
<path id="path4607_1_b" filter="url(#Blur10)" inkscape:connector-curvature="0" sodipodi:nodetypes="cccc" fill="none" stroke="#404040" stroke-width="3.7698" stroke-linejoin="bevel" d="
	M446.14,265.386c-26.059-10.653,13.896,255.897,112.389,263.266c-97.336-17.736-305.179-94.945-329.672,46.457
	C312.698,539.109,379.328,368.104,446.14,265.386z"/>
<rect id="rect3878_1_" x="0" y="73.728" fill="#FF0000" width="379.626" height="188.151"/>
<g enable-background="new    ">
	<path fill="#FFFFFF" d="M47.99,227.916v-118.11h40.976c7.211,0,12.719,0.376,16.523,1.128c5.335,0.967,9.805,2.807,13.412,5.519
		c3.605,2.713,6.508,6.514,8.706,11.4c2.198,4.888,3.297,10.26,3.297,16.113c0,10.044-2.939,18.544-8.817,25.499
		c-5.879,6.957-16.499,10.434-31.862,10.434h-27.86v48.018H47.99z M62.364,165.96h28.083c9.286,0,15.881-1.879,19.784-5.64
		c3.902-3.759,5.854-9.05,5.854-15.872c0-4.941-1.148-9.171-3.445-12.689c-2.297-3.517-5.323-5.841-9.077-6.969
		c-2.421-0.697-6.891-1.047-13.411-1.047H62.364V165.96z"/>
	<path fill="#FFFFFF" d="M149.206,227.916v-118.11h37.419c8.447,0,14.893,0.564,19.339,1.692c6.224,1.559,11.534,4.378,15.931,8.459
		c5.729,5.265,10.015,11.992,12.856,20.182c2.84,8.191,4.26,17.551,4.26,28.078c0,8.971-0.963,16.919-2.89,23.848
		c-1.927,6.929-4.397,12.663-7.41,17.201c-3.014,4.54-6.311,8.111-9.892,10.716c-3.582,2.605-7.904,4.58-12.967,5.921
		c-5.064,1.343-10.881,2.014-17.45,2.014H149.206z M163.58,213.978h23.192c7.162,0,12.782-0.725,16.857-2.175
		c4.076-1.45,7.323-3.491,9.744-6.123c3.408-3.706,6.063-8.688,7.965-14.945c1.901-6.256,2.853-13.843,2.853-22.76
		c0-12.353-1.865-21.846-5.594-28.48c-3.73-6.633-8.262-11.078-13.597-13.333c-3.853-1.611-10.053-2.417-18.599-2.417H163.58
		V213.978z"/>
	<path fill="#FFFFFF" d="M259.536,227.916v-118.11h73.283v13.938h-58.908v36.577h50.978v13.938h-50.978v53.657H259.536z"/>
</g>
<path id="path4607_1_" inkscape:connector-curvature="0" sodipodi:nodetypes="cccc" fill="none" stroke="#FF0000" stroke-width="3.7698" stroke-linejoin="bevel" d="
	M426.14,245.386c-26.059-10.653,13.896,255.897,112.389,263.266c-97.336-17.736-305.179-94.945-329.672,46.457
	C292.698,519.109,359.328,348.104,426.14,245.386z"/>
</svg>
