<?xml version="1.0" encoding="utf-8"?>
<!-- Generator: Adobe Illustrator 16.0.0, SVG Export Plug-In . SVG Version: 6.00 Build 0)  -->
<!DOCTYPE svg PUBLIC "-//W3C//DTD SVG 1.1//EN" "http://www.w3.org/Graphics/SVG/1.1/DTD/svg11.dtd">
<svg version="1.1"
	 id="svg2" xmlns:dc="http://purl.org/dc/elements/1.1/" xmlns:cc="http://creativecommons.org/ns#" xmlns:rdf="http://www.w3.org/1999/02/22-rdf-syntax-ns#" xmlns:svg="http://www.w3.org/2000/svg" xmlns:sodipodi="http://sodipodi.sourceforge.net/DTD/sodipodi-0.dtd" xmlns:inkscape="http://www.inkscape.org/namespaces/inkscape" inkscape:version="0.91 r13725" sodipodi:docname="jpg.svg" inkscape:export-filename="/Volumes/ramdisk/jpg.png" inkscape:export-xdpi="10.800075" inkscape:export-ydpi="10.800075"
	 xmlns="http://www.w3.org/2000/svg" xmlns:xlink="http://www.w3.org/1999/xlink" x="0px" y="0px" width="595.188px"
	 height="601.781px" viewBox="0 0 595.188 601.781" enable-background="new 0 0 595.188 601.781" xml:space="preserve">
<filter id="Blur10" width="200%" height="200%" x="-50%" y="-50%">
	<feGaussianBlur stdDeviation="10"></feGaussianBlur>
</filter>
<g id="g3890" transform="matrix(0.86046,0,0,0.86207,6.3889645,-801.60481)">
	
		<linearGradient id="path3892_1_" gradientUnits="userSpaceOnUse" x1="162.4619" y1="2206.4004" x2="-22.5386" y2="2441.4006" gradientTransform="matrix(2.8394 0 0 -2.8661 192.8078 7970.8071)">
		<stop  offset="0" style="stop-color:#E6E6E6"/>
		<stop  offset="1" style="stop-color:#F9F9F9"/>
	</linearGradient>
	
		<path id="path3892" inkscape:connector-curvature="0" fill="url(#path3892_1_)" stroke="#808080" stroke-width="5" stroke-linejoin="round" d="
		M530.887,933.092H169.707v692.263h511.671v-541.77L530.887,933.092z"/>
	
		<linearGradient id="path3894_1_" gradientUnits="userSpaceOnUse" x1="146.629" y1="488.8633" x2="133.629" y2="475.8633" gradientTransform="matrix(2.8394 0 0 -2.8661 192.8078 2406.4395)">
		<stop  offset="0" style="stop-color:#CCCCCC"/>
		<stop  offset="0.2201" style="stop-color:#E6E6E6"/>
		<stop  offset="0.4693" style="stop-color:#FFFFFF"/>
		<stop  offset="1" style="stop-color:#E6E6E6"/>
	</linearGradient>
	
		<path id="path3894" inkscape:connector-curvature="0" fill="url(#path3894_1_)" stroke="#808080" stroke-width="5" stroke-linejoin="round" d="
		M681.378,1083.584L530.884,933.092c11.218,50.164,12.837,100.33,0,150.492C590.515,1071.936,633.992,1080.168,681.378,1083.584z"/>
</g>
<rect id="rect3896-b" filter="url(#Blur10)" x="20" y="93.019" fill="#404040" width="379.626" height="188.151"/>
<g id="g3539-b" filter="url(#Blur10)" transform="translate(20 20)" fill="#404040">
	<path id="path3541-b" inkscape:connector-curvature="0" d="M506.687,360.383
		c-7.626-7.625-16.824-11.438-27.602-11.438h-34.159l-7.775-20.738c-1.933-4.979-5.464-9.275-10.601-12.889
		c-5.139-3.605-10.396-5.414-15.784-5.414h-78.08c-5.389,0-10.65,1.809-15.785,5.414c-5.135,3.61-8.666,7.908-10.599,12.889
		l-7.776,20.738h-34.156c-10.778,0-19.979,3.813-27.604,11.438c-7.624,7.625-11.438,16.822-11.438,27.602v136.64
		c0,10.777,3.813,19.98,11.438,27.605c7.626,7.625,16.824,11.438,27.604,11.438h214.717c10.773,0,19.975-3.813,27.601-11.438
		c7.624-7.623,11.438-16.824,11.438-27.605v-136.64C518.119,377.207,514.309,368.008,506.687,360.383z M419.99,504.57
		c-13.369,13.371-29.456,20.057-48.266,20.057c-18.813,0-34.896-6.686-48.27-20.057c-13.365-13.367-20.053-29.457-20.053-48.263
		c0-18.813,6.688-34.896,20.053-48.271c13.369-13.365,29.457-20.053,48.27-20.053c18.81,0,34.896,6.688,48.266,20.053
		c13.369,13.369,20.058,29.455,20.058,48.271C440.044,475.113,433.36,491.203,419.99,504.57z"/>
	<path id="path3543-b" inkscape:connector-curvature="0" d="M371.724,412.385c-12.099,0-22.443,4.295-31.034,12.888
		c-8.591,8.592-12.887,18.936-12.887,31.036c0,12.097,4.296,22.438,12.887,31.031c8.591,8.59,18.938,12.885,31.034,12.885
		s22.439-4.295,31.034-12.885c8.591-8.594,12.887-18.938,12.887-31.031c0-12.104-4.296-22.444-12.887-31.036
		C394.164,416.682,383.822,412.385,371.724,412.385z"/>
</g>
<rect id="rect3896" x="0" y="73.019" fill="#1ABC9C" width="379.626" height="188.151"/>
<g enable-background="new    ">
	<path fill="#FFFFFF" d="M37.788,225.144v-118.11h44.553c7.841,0,13.83,0.376,17.966,1.128c5.801,0.967,10.661,2.808,14.583,5.519
		c3.92,2.713,7.076,6.514,9.466,11.4c2.392,4.888,3.585,10.26,3.585,16.113c0,10.044-3.194,18.544-9.587,25.499
		c-6.393,6.957-17.938,10.434-34.644,10.434H53.418v48.018L37.788,225.144L37.788,225.144z M53.418,163.189h30.535
		c10.097,0,17.268-1.88,21.511-5.641c4.242-3.759,6.365-9.05,6.365-15.871c0-4.941-1.249-9.171-3.747-12.689
		c-2.497-3.517-5.788-5.841-9.869-6.969c-2.632-0.697-7.493-1.047-14.583-1.047H53.418V163.189z"/>
	<path fill="#FFFFFF" d="M136.79,225.144v-118.11h16.031l62.036,92.731v-92.731h14.985v118.11H213.81l-62.036-92.813v92.813H136.79z
		"/>
	<path fill="#FFFFFF" d="M300.489,178.818v-13.857l50.031-0.08v43.829c-7.682,6.123-15.604,10.729-23.768,13.816
		s-16.543,4.632-25.139,4.632c-11.601,0-22.143-2.483-31.62-7.452c-9.48-4.967-16.639-12.15-21.473-21.552
		c-4.834-9.397-7.251-19.899-7.251-31.501c0-11.493,2.403-22.223,7.21-32.187c4.809-9.962,11.725-17.361,20.746-22.195
		c9.023-4.834,19.417-7.252,31.179-7.252c8.54,0,16.262,1.384,23.163,4.149c6.9,2.768,12.313,6.62,16.234,11.562
		c3.92,4.942,6.898,11.388,8.941,19.336l-14.1,3.867c-1.773-6.015-3.977-10.742-6.607-14.18c-2.631-3.437-6.393-6.189-11.277-8.258
		c-4.89-2.067-10.313-3.102-16.273-3.102c-7.145,0-13.32,1.087-18.529,3.263c-5.21,2.175-9.414,5.035-12.608,8.58
		c-3.196,3.545-5.68,7.439-7.453,11.683c-3.009,7.305-4.512,15.227-4.512,23.767c0,10.527,1.813,19.336,5.438,26.426
		c3.626,7.09,8.903,12.354,15.832,15.791c6.931,3.438,14.287,5.156,22.075,5.156c6.768,0,13.374-1.303,19.819-3.907
		c6.443-2.604,11.332-5.385,14.664-8.339v-21.995H300.489z"/>
</g>
<g id="g3539">
	<path id="path3541" inkscape:connector-curvature="0" fill="#1ABC9C" d="M506.687,360.383
		c-7.626-7.625-16.824-11.438-27.602-11.438h-34.159l-7.775-20.738c-1.933-4.979-5.464-9.275-10.601-12.889
		c-5.139-3.605-10.396-5.414-15.784-5.414h-78.08c-5.389,0-10.65,1.809-15.785,5.414c-5.135,3.61-8.666,7.908-10.599,12.889
		l-7.776,20.738h-34.156c-10.778,0-19.979,3.813-27.604,11.438c-7.624,7.625-11.438,16.822-11.438,27.602v136.64
		c0,10.777,3.813,19.98,11.438,27.605c7.626,7.625,16.824,11.438,27.604,11.438h214.717c10.773,0,19.975-3.813,27.601-11.438
		c7.624-7.623,11.438-16.824,11.438-27.605v-136.64C518.119,377.207,514.309,368.008,506.687,360.383z M419.99,504.57
		c-13.369,13.371-29.456,20.057-48.266,20.057c-18.813,0-34.896-6.686-48.27-20.057c-13.365-13.367-20.053-29.457-20.053-48.263
		c0-18.813,6.688-34.896,20.053-48.271c13.369-13.365,29.457-20.053,48.27-20.053c18.81,0,34.896,6.688,48.266,20.053
		c13.369,13.369,20.058,29.455,20.058,48.271C440.044,475.113,433.36,491.203,419.99,504.57z"/>
	<path id="path3543" inkscape:connector-curvature="0" fill="#1ABC9C" d="M371.724,412.385c-12.099,0-22.443,4.295-31.034,12.888
		c-8.591,8.592-12.887,18.936-12.887,31.036c0,12.097,4.296,22.438,12.887,31.031c8.591,8.59,18.938,12.885,31.034,12.885
		s22.439-4.295,31.034-12.885c8.591-8.594,12.887-18.938,12.887-31.031c0-12.104-4.296-22.444-12.887-31.036
		C394.164,416.682,383.822,412.385,371.724,412.385z"/>
</g>
</svg>
