<?xml version="1.0" encoding="utf-8"?>
<!-- Generator: Adobe Illustrator 16.0.0, SVG Export Plug-In . SVG Version: 6.00 Build 0)  -->
<!DOCTYPE svg PUBLIC "-//W3C//DTD SVG 1.1//EN" "http://www.w3.org/Graphics/SVG/1.1/DTD/svg11.dtd">
<svg version="1.1"
	 id="svg2" xmlns:dc="http://purl.org/dc/elements/1.1/" xmlns:cc="http://creativecommons.org/ns#" xmlns:rdf="http://www.w3.org/1999/02/22-rdf-syntax-ns#" xmlns:svg="http://www.w3.org/2000/svg" xmlns:sodipodi="http://sodipodi.sourceforge.net/DTD/sodipodi-0.dtd" xmlns:inkscape="http://www.inkscape.org/namespaces/inkscape" inkscape:version="1.0beta1 (e4c7a4b, 2019-11-30)" sodipodi:docname="svg.svg" inkscape:export-filename="/Volumes/ramdisk/doc.png" inkscape:export-xdpi="10.800075" inkscape:export-ydpi="10.800075"
	 xmlns="http://www.w3.org/2000/svg" xmlns:xlink="http://www.w3.org/1999/xlink" x="0px" y="0px" width="594.189px"
	 height="601.781px" viewBox="0 0 594.189 601.781" enable-background="new 0 0 594.189 601.781" xml:space="preserve">
<filter id="Blur10" width="200%" height="200%" x="-50%" y="-50%">
	<feGaussianBlur stdDeviation="10"></feGaussianBlur>
</filter>
<g id="g3890_1_" transform="matrix(0.86046,0,0,0.86207,6.3889645,-801.60481)">
	
		<linearGradient id="path3892_2_" gradientUnits="userSpaceOnUse" x1="145.4793" y1="-624.712" x2="-39.5218" y2="-859.7133" gradientTransform="matrix(3.2999 0 0 3.3247 173.1308 3723.439)">
		<stop  offset="0" style="stop-color:#E6E6E6"/>
		<stop  offset="1" style="stop-color:#F9F9F9"/>
	</linearGradient>
	
		<path id="path3892_1_" inkscape:connector-curvature="0" fill="url(#path3892_2_)" stroke="#808080" stroke-width="5" stroke-linejoin="round" d="
		M529.726,932.818H168.545v692.265h511.673v-541.774L529.726,932.818z"/>
	
		<linearGradient id="path3894_2_" gradientUnits="userSpaceOnUse" x1="131.787" y1="856.0085" x2="118.787" y2="869.0084" gradientTransform="matrix(3.2999 0 0 3.3247 173.1308 -1840.9291)">
		<stop  offset="0" style="stop-color:#CCCCCC"/>
		<stop  offset="0.2201" style="stop-color:#E6E6E6"/>
		<stop  offset="0.4693" style="stop-color:#FFFFFF"/>
		<stop  offset="1" style="stop-color:#E6E6E6"/>
	</linearGradient>
	
		<path id="path3894_1_" inkscape:connector-curvature="0" fill="url(#path3894_2_)" stroke="#808080" stroke-width="5" stroke-linejoin="round" d="
		M680.217,1083.31L529.724,932.818c11.216,50.164,12.838,100.33,0,150.492C589.354,1071.661,632.831,1079.893,680.217,1083.31z"/>
</g>
<rect id="rect3878_1_b" filter="url(#Blur10)" x="20" y="92.783" fill="#404040" width="378.628" height="188.151"/>
<path filter="url(#Blur10)" fill="#404040" d="M550.163,498.479c-12.463-63.377-62.18-113.097-125.557-125.56v-28.994h-61.961v28.994
	c-63.376,12.465-113.097,62.185-125.561,125.56h-28.994v61.961h61.963v-61.961h-22.771
	c12.167-57.834,57.525-103.193,115.361-115.359v22.768h61.961V383.12c57.836,12.166,103.193,57.525,115.359,115.359h-22.771v61.961
	h61.962v-61.961H550.163z"/>
<rect id="rect3878_1_" x="0" y="72.783" fill="#00AAD4" width="378.628" height="188.151"/>
<g enable-background="new    ">
	<path fill="#FFFFFF" d="M35.1,189.024l13.56-1.289c0.642,5.909,2.136,10.755,4.483,14.542c2.346,3.786,5.989,6.848,10.929,9.185
		c4.939,2.336,10.497,3.504,16.672,3.504c5.483,0,10.324-0.886,14.523-2.659c4.198-1.772,7.323-4.202,9.374-7.291
		c2.049-3.088,3.075-6.458,3.075-10.111c0-3.706-0.989-6.941-2.964-9.708c-1.977-2.766-5.237-5.088-9.781-6.969
		c-2.915-1.235-9.361-3.155-19.339-5.76c-9.979-2.605-16.968-5.062-20.97-7.372c-5.187-2.953-9.052-6.619-11.596-10.997
		c-2.544-4.377-3.816-9.278-3.816-14.704c0-5.962,1.556-11.534,4.668-16.717c3.112-5.183,7.656-9.117,13.634-11.803
		c5.977-2.685,12.621-4.028,19.932-4.028c8.051,0,15.153,1.41,21.303,4.23c6.15,2.819,10.879,6.969,14.189,12.447
		c3.309,5.479,5.087,11.682,5.335,18.611l-13.782,1.128c-0.741-7.465-3.249-13.104-7.521-16.919
		c-4.273-3.813-10.584-5.72-18.932-5.72c-8.695,0-15.03,1.732-19.006,5.196c-3.977,3.465-5.965,7.642-5.965,12.528
		c0,4.244,1.408,7.734,4.224,10.474c2.766,2.739,9.99,5.546,21.673,8.419c11.682,2.874,19.697,5.386,24.044,7.533
		c6.323,3.17,10.991,7.184,14.004,12.045c3.013,4.861,4.52,10.461,4.52,16.798c0,6.284-1.656,12.206-4.964,17.765
		c-3.31,5.56-8.065,9.883-14.264,12.972c-6.2,3.088-13.178,4.632-20.933,4.632c-9.831,0-18.068-1.559-24.711-4.673
		c-6.644-3.114-11.855-7.801-15.634-14.059C37.286,203.997,35.297,196.919,35.1,189.024z"/>
	<path fill="#FFFFFF" d="M172.254,226.971l-42.087-118.11h15.56l28.231,85.803c2.271,6.876,4.174,13.321,5.706,19.336
		c1.679-6.445,3.631-12.891,5.854-19.336l29.343-85.803h14.671l-42.532,118.11H172.254z"/>
	<path fill="#FFFFFF" d="M293.254,180.645v-13.857l46.015-0.081v43.828c-7.064,6.123-14.352,10.729-21.859,13.817
		c-7.508,3.088-15.215,4.632-23.118,4.632c-10.67,0-20.365-2.484-29.083-7.453c-8.719-4.967-15.301-12.151-19.747-21.551
		c-4.446-9.398-6.668-19.9-6.668-31.501c0-11.493,2.21-22.223,6.631-32.187c4.42-9.962,10.781-17.362,19.08-22.196
		s17.857-7.251,28.676-7.251c7.854,0,14.956,1.383,21.303,4.149c6.346,2.767,11.324,6.621,14.93,11.562
		c3.605,4.942,6.348,11.388,8.225,19.336l-12.967,3.867c-1.629-6.015-3.656-10.742-6.076-14.18c-2.42-3.437-5.879-6.19-10.373-8.258
		c-4.496-2.067-9.484-3.102-14.968-3.102c-6.57,0-12.251,1.087-17.042,3.263c-4.792,2.175-8.658,5.035-11.596,8.58
		c-2.939,3.545-5.224,7.44-6.854,11.682c-2.767,7.305-4.149,15.227-4.149,23.767c0,10.528,1.667,19.336,5.001,26.426
		s8.188,12.354,14.56,15.791c6.373,3.438,13.14,5.156,20.303,5.156c6.224,0,12.3-1.302,18.228-3.907
		c5.928-2.605,10.422-5.384,13.486-8.339v-21.995H293.254z"/>
</g>
<path fill="#00AAD4" d="M530.163,478.479c-12.463-63.377-62.18-113.097-125.557-125.56v-28.994h-61.961v28.994
	c-63.376,12.465-113.097,62.185-125.561,125.56h-28.994v61.961h61.963v-61.961h-22.771
	c12.167-57.834,57.525-103.193,115.361-115.359v22.768h61.961V363.12c57.836,12.166,103.193,57.525,115.359,115.359h-22.771v61.961
	h61.962v-61.961H530.163z"/>
<rect x="198.093" y="488.479" fill="#FFFFFF" width="41.963" height="41.961"/>
<rect x="352.646" y="333.926" fill="#FFFFFF" width="41.961" height="41.961"/>
<rect x="507.198" y="488.479" fill="#FFFFFF" width="41.962" height="41.961"/>
</svg>
