<?xml version="1.0" encoding="utf-8"?>
<!-- Generator: Adobe Illustrator 16.0.0, SVG Export Plug-In . SVG Version: 6.00 Build 0)  -->
<!DOCTYPE svg PUBLIC "-//W3C//DTD SVG 1.1//EN" "http://www.w3.org/Graphics/SVG/1.1/DTD/svg11.dtd">
<svg version="1.1"
	 id="svg2" xmlns:dc="http://purl.org/dc/elements/1.1/" xmlns:cc="http://creativecommons.org/ns#" xmlns:rdf="http://www.w3.org/1999/02/22-rdf-syntax-ns#" xmlns:svg="http://www.w3.org/2000/svg" xmlns:sodipodi="http://sodipodi.sourceforge.net/DTD/sodipodi-0.dtd" xmlns:inkscape="http://www.inkscape.org/namespaces/inkscape" inkscape:version="0.92.1 r15371" sodipodi:docname="txt.svg" inkscape:export-filename="/Volumes/ramdisk/csv.png" inkscape:export-xdpi="10.800075" inkscape:export-ydpi="10.800075"
	 xmlns="http://www.w3.org/2000/svg" xmlns:xlink="http://www.w3.org/1999/xlink" x="0px" y="0px" width="595.188px"
	 height="601.781px" viewBox="0 0 595.188 601.781" enable-background="new 0 0 595.188 601.781" xml:space="preserve">
<filter id="Blur10" width="200%" height="200%" x="-50%" y="-50%">
	<feGaussianBlur stdDeviation="10"></feGaussianBlur>
</filter>
<sodipodi:namedview  pagecolor="#ffffff" bordercolor="#666666" borderopacity="1" objecttolerance="10" gridtolerance="10" guidetolerance="10" id="namedview22" showgrid="false" inkscape:zoom="5.6499932" inkscape:cx="-6.1310811" inkscape:cy="49.999655" fit-margin-top="0" fit-margin-left="0" inkscape:window-height="1027" inkscape:window-y="-4" fit-margin-right="0" inkscape:window-maximized="1" fit-margin-bottom="0" inkscape:current-layer="svg2" inkscape:window-x="-8" inkscape:pageopacity="0" inkscape:pageshadow="2" inkscape:window-width="1920" showborder="true">
	</sodipodi:namedview>
<g id="g3890" transform="matrix(0.86046,0,0,0.86207,6.3889645,-801.60481)">
	
		<linearGradient id="path3892_1_" gradientUnits="userSpaceOnUse" x1="132.1706" y1="1922.323" x2="-52.8306" y2="2157.3242" gradientTransform="matrix(3.835 0 0 -3.8566 147.7208 9060.4824)">
		<stop  offset="0" style="stop-color:#E6E6E6"/>
		<stop  offset="1" style="stop-color:#F9F9F9"/>
	</linearGradient>
	
		<path id="path3892" inkscape:connector-curvature="0" fill="url(#path3892_1_)" stroke="#808080" stroke-width="5" stroke-linejoin="round" d="
		M530.887,933.509h-361.18v692.264h511.672v-541.772L530.887,933.509z"/>
	
		<linearGradient id="path3894_1_" gradientUnits="userSpaceOnUse" x1="120.3236" y1="645.7577" x2="107.3231" y2="632.7571" gradientTransform="matrix(3.835 0 0 -3.8566 147.7208 3496.1147)">
		<stop  offset="0" style="stop-color:#CCCCCC"/>
		<stop  offset="0.2201" style="stop-color:#E6E6E6"/>
		<stop  offset="0.4693" style="stop-color:#FFFFFF"/>
		<stop  offset="1" style="stop-color:#E6E6E6"/>
	</linearGradient>
	
		<path id="path3894" inkscape:connector-curvature="0" fill="url(#path3894_1_)" stroke="#808080" stroke-width="5" stroke-linejoin="round" d="
		M681.378,1084.001L530.885,933.509c11.217,50.164,12.838,100.33,0,150.492C590.515,1072.353,633.992,1080.585,681.378,1084.001z"/>
</g>
<rect id="rect3878-b" filter="url(#Blur10)" fill="#404040" x="20" y="93.378" width="379.626" height="188.151"/>
<g id="g3042_1_b" filter="url(#Blur10)" transform="translate(20 20)" fill="#404040">
	<rect id="rect6605" x="421.016" y="195.18" width="123.196" height="46.75"/>
	<rect id="rect6623_1_" x="343.409" y="277.085" width="200.831" height="46.75"/>
	<rect id="rect6625_1_" x="207.209" y="358.99" width="337.063" height="46.75"/>
	<rect id="rect6627_1_" x="207.239" y="440.893" width="337.063" height="46.752"/>
	<rect id="rect6523" x="207.268" y="522.797" width="337.062" height="46.752"/>
</g>
<rect id="rect3878" x="0" y="73.378" width="379.626" height="188.151"/>
<g id="g3042_1_">
	<rect id="rect6605" x="421.016" y="195.18" width="123.196" height="46.75"/>
	<rect id="rect6623_1_" x="343.409" y="277.085" width="200.831" height="46.75"/>
	<rect id="rect6625_1_" x="207.209" y="358.99" width="337.063" height="46.75"/>
	<rect id="rect6627_1_" x="207.239" y="440.893" width="337.063" height="46.752"/>
	<rect id="rect6523" x="207.268" y="522.797" width="337.062" height="46.752"/>
</g>
<g enable-background="new    ">
	<path fill="#FFFFFF" d="M76.192,228.945V124.773H37.278v-13.938h93.618v13.938H91.822v104.172H76.192z"/>
	<path fill="#FFFFFF" d="M134.925,228.945l45.681-61.553l-40.283-56.558h18.611l21.431,30.293
		c4.458,6.284,7.626,11.118,9.507,14.502c2.631-4.297,5.747-8.782,9.346-13.454l23.767-31.341h17l-41.492,55.671l44.714,62.439
		H223.87l-29.729-42.137c-1.666-2.416-3.384-5.048-5.156-7.895c-2.632,4.297-4.512,7.25-5.64,8.861l-29.648,41.17H134.925z"/>
	<path fill="#FFFFFF" d="M287.034,228.945V124.773H248.12v-13.938h93.618v13.938h-39.074v104.172H287.034z"/>
</g>
</svg>
