<?xml version="1.0" encoding="utf-8"?>
<!-- Generator: Adobe Illustrator 16.0.0, SVG Export Plug-In . SVG Version: 6.00 Build 0)  -->
<!DOCTYPE svg PUBLIC "-//W3C//DTD SVG 1.1//EN" "http://www.w3.org/Graphics/SVG/1.1/DTD/svg11.dtd">
<svg version="1.1"
	 id="svg2" xmlns:dc="http://purl.org/dc/elements/1.1/" xmlns:cc="http://creativecommons.org/ns#" xmlns:rdf="http://www.w3.org/1999/02/22-rdf-syntax-ns#" xmlns:svg="http://www.w3.org/2000/svg" xmlns:sodipodi="http://sodipodi.sourceforge.net/DTD/sodipodi-0.dtd" xmlns:inkscape="http://www.inkscape.org/namespaces/inkscape" inkscape:version="0.48.5 r10040" sodipodi:docname="xls.svg" inkscape:export-filename="/Volumes/ramdisk/xls.png" inkscape:export-xdpi="10.800075" inkscape:export-ydpi="10.800075"
	 xmlns="http://www.w3.org/2000/svg" xmlns:xlink="http://www.w3.org/1999/xlink" x="0px" y="0px" width="595.188px"
	 height="601.781px" viewBox="0 0 595.188 601.781" enable-background="new 0 0 595.188 601.781" xml:space="preserve">
<filter id="Blur10" width="200%" height="200%" x="-50%" y="-50%">
	<feGaussianBlur stdDeviation="10"></feGaussianBlur>
</filter>
<g id="g3890" transform="matrix(0.86046,0,0,0.86207,6.3889645,-801.60481)">
	
		<linearGradient id="path3892_1_" gradientUnits="userSpaceOnUse" x1="132.17" y1="1922.4998" x2="-52.831" y2="2157.5007" gradientTransform="matrix(3.835 0 0 -3.8566 147.7208 9060.4824)">
		<stop  offset="0" style="stop-color:#E6E6E6"/>
		<stop  offset="1" style="stop-color:#F9F9F9"/>
	</linearGradient>
	
		<path id="path3892" inkscape:connector-curvature="0" fill="url(#path3892_1_)" stroke="#808080" stroke-width="5" stroke-linejoin="round" d="
		M530.887,932.824h-361.18v692.263h511.672v-541.771L530.887,932.824z"/>
	
		<linearGradient id="path3894_1_" gradientUnits="userSpaceOnUse" x1="120.3236" y1="645.9354" x2="107.3231" y2="632.9349" gradientTransform="matrix(3.835 0 0 -3.8566 147.7208 3496.1147)">
		<stop  offset="0" style="stop-color:#CCCCCC"/>
		<stop  offset="0.2201" style="stop-color:#E6E6E6"/>
		<stop  offset="0.4693" style="stop-color:#FFFFFF"/>
		<stop  offset="1" style="stop-color:#E6E6E6"/>
	</linearGradient>
	
		<path id="path3894" inkscape:connector-curvature="0" fill="url(#path3894_1_)" stroke="#808080" stroke-width="5" stroke-linejoin="round" d="
		M681.378,1083.316L530.885,932.823c11.217,50.164,12.838,100.33,0,150.492C590.515,1071.667,633.992,1079.9,681.378,1083.316z"/>
</g>
<rect id="rect3896-b" filter="url(#Blur10)" x="20" y="92.788" fill="#404040" width="379.626" height="188.151"/>
<path filter="url(#Blur10)" fill="#404040" d="M238.384,353.658c-0.001,0-0.001,0.01-0.002,0.012c-0.002,0-0.013,0-0.013,0v208.174c0,0,0.011,0,0.012,0
	c0.001,0.004,0.001,0.014,0.002,0.014c0,0,308.378,0,308.378-0.014V353.668C526.761,353.658,238.384,353.658,238.384,353.658z
	 M527.385,481.924h-76.946v-48.338h76.946V461.924z M431.024,481.924h-76.933v-48.338h76.933V461.924z M257.763,433.586h76.934
	v48.338h-76.934V413.586z M354.092,417.789v-48.336h76.933v48.336H334.092z M334.697,417.789h-76.934v-48.336h76.934V397.789z
	 M257.763,497.721h76.934v48.336h-76.934V477.721z M354.092,497.721h76.933v48.336h-76.933V477.721L334.092,477.721z
	 M450.419,497.721h76.946v48.336h-76.946V477.721z M527.365,417.789h-76.946v-48.336h76.946V397.789z"/>
<rect id="rect3896" x="0" y="72.788" fill="#008000" width="379.626" height="188.151"/>
<g enable-background="new    ">
	<path fill="#FFFFFF" d="M36.628,229.514l45.681-61.553l-40.283-56.558h18.611l21.431,30.293c4.458,6.284,7.626,11.118,9.507,14.502
		c2.631-4.297,5.747-8.782,9.346-13.454l23.767-31.341h17l-41.492,55.671l44.714,62.439h-19.336l-29.729-42.137
		c-1.666-2.416-3.384-5.048-5.156-7.895c-2.632,4.297-4.512,7.25-5.64,8.861L55.4,229.514H36.628z"/>
	<path fill="#FFFFFF" d="M158.042,229.514v-118.11h15.63v104.173h58.169v13.938H158.042z"/>
	<path fill="#FFFFFF" d="M245.134,191.567l14.744-1.289c0.697,5.909,2.323,10.756,4.875,14.543c2.55,3.786,6.512,6.848,11.883,9.185
		c5.37,2.336,11.413,3.505,18.127,3.505c5.962,0,11.226-0.887,15.791-2.659c4.564-1.772,7.962-4.202,10.191-7.291
		c2.229-3.088,3.344-6.458,3.344-10.111c0-3.706-1.075-6.941-3.223-9.708c-2.149-2.766-5.694-5.089-10.635-6.969
		c-3.17-1.235-10.179-3.155-21.028-5.761c-10.85-2.604-18.45-5.063-22.8-7.372c-5.64-2.953-9.843-6.619-12.608-10.997
		c-2.767-4.377-4.149-9.278-4.149-14.704c0-5.961,1.692-11.533,5.076-16.717c3.384-5.183,8.325-9.117,14.824-11.803
		c6.498-2.686,13.723-4.029,21.672-4.029c8.754,0,16.476,1.41,23.163,4.23c6.687,2.819,11.829,6.969,15.428,12.447
		c3.598,5.479,5.531,11.682,5.801,18.611l-14.984,1.127c-0.807-7.465-3.533-13.104-8.178-16.918
		c-4.646-3.813-11.509-5.721-20.585-5.721c-9.454,0-16.342,1.732-20.665,5.196c-4.324,3.465-6.486,7.642-6.486,12.528
		c0,4.243,1.531,7.734,4.592,10.474c3.007,2.739,10.863,5.547,23.565,8.419c12.702,2.874,21.417,5.386,26.145,7.533
		c6.874,3.17,11.949,7.185,15.227,12.045c3.275,4.861,4.914,10.461,4.914,16.798c0,6.284-1.801,12.206-5.397,17.765
		c-3.599,5.56-8.769,9.884-15.509,12.972c-6.741,3.088-14.328,4.632-22.76,4.632c-10.689,0-19.646-1.558-26.869-4.672
		c-7.225-3.115-12.891-7.802-17-14.06C247.511,206.54,245.348,199.463,245.134,191.567z"/>
</g>
<path fill="#008000" d="M218.384,333.658c-0.001,0-0.001,0.01-0.002,0.012c-0.002,0-0.013,0-0.013,0v208.174c0,0,0.011,0,0.012,0
	c0.001,0.004,0.001,0.014,0.002,0.014c0,0,308.378,0,308.378-0.014V333.668C526.761,333.658,218.384,333.658,218.384,333.658z
	 M507.365,461.924h-76.946v-48.338h76.946V461.924z M411.024,461.924h-76.933v-48.338h76.933V461.924z M237.763,413.586h76.934
	v48.338h-76.934V413.586z M334.092,397.789v-48.336h76.933v48.336H334.092z M314.697,397.789h-76.934v-48.336h76.934V397.789z
	 M237.763,477.721h76.934v48.336h-76.934V477.721z M334.092,477.721h76.933v48.336h-76.933V477.721L334.092,477.721z
	 M430.419,477.721h76.946v48.336h-76.946V477.721z M507.365,397.789h-76.946v-48.336h76.946V397.789z"/>
</svg>
