<?xml version="1.0" encoding="utf-8"?>
<!-- Generator: Adobe Illustrator 16.0.0, SVG Export Plug-In . SVG Version: 6.00 Build 0)  -->
<!DOCTYPE svg PUBLIC "-//W3C//DTD SVG 1.1//EN" "http://www.w3.org/Graphics/SVG/1.1/DTD/svg11.dtd">
<svg version="1.1"
	 id="svg2" xmlns:dc="http://purl.org/dc/elements/1.1/" xmlns:cc="http://creativecommons.org/ns#" xmlns:rdf="http://www.w3.org/1999/02/22-rdf-syntax-ns#" xmlns:svg="http://www.w3.org/2000/svg" xmlns:sodipodi="http://sodipodi.sourceforge.net/DTD/sodipodi-0.dtd" xmlns:inkscape="http://www.inkscape.org/namespaces/inkscape" inkscape:version="0.91 r13725" sodipodi:docname="xml.svg" inkscape:export-filename="/Volumes/ramdisk/xml.png" inkscape:export-xdpi="10.800075" inkscape:export-ydpi="10.800075"
	 xmlns="http://www.w3.org/2000/svg" xmlns:xlink="http://www.w3.org/1999/xlink" x="0px" y="0px" width="595.188px"
	 height="601.781px" viewBox="0 0 595.188 601.781" enable-background="new 0 0 595.188 601.781" xml:space="preserve">
<filter id="Blur10" width="200%" height="200%" x="-50%" y="-50%">
	<feGaussianBlur stdDeviation="10"></feGaussianBlur>
</filter>
<sodipodi:namedview  pagecolor="#ffffff" bordercolor="#666666" borderopacity="1" objecttolerance="10" gridtolerance="10" guidetolerance="10" id="namedview22" showgrid="false" inkscape:zoom="5.5148875" inkscape:cx="52.040953" inkscape:cy="49.999655" fit-margin-top="0" fit-margin-left="0" inkscape:window-height="756" inkscape:window-y="0" fit-margin-right="0" inkscape:window-maximized="0" fit-margin-bottom="0" inkscape:current-layer="svg2" inkscape:window-x="0" inkscape:pageopacity="0" inkscape:pageshadow="2" inkscape:window-width="1192" showborder="true">
	</sodipodi:namedview>
<g id="g3890" transform="matrix(0.86046,0,0,0.86207,6.3889645,-801.60481)">
	
		<linearGradient id="path3892_1_" gradientUnits="userSpaceOnUse" x1="132.1706" y1="1922.5507" x2="-52.8304" y2="2157.5518" gradientTransform="matrix(3.835 0 0 -3.8566 147.7208 9060.4824)">
		<stop  offset="0" style="stop-color:#E6E6E6"/>
		<stop  offset="1" style="stop-color:#F9F9F9"/>
	</linearGradient>
	
		<path id="path3892" inkscape:connector-curvature="0" fill="url(#path3892_1_)" stroke="#808080" stroke-width="5" stroke-linejoin="round" d="
		M530.887,932.634h-361.18v692.263h511.672v-541.771L530.887,932.634z"/>
	
		<linearGradient id="path3894_1_" gradientUnits="userSpaceOnUse" x1="120.3236" y1="645.9854" x2="107.3231" y2="632.9848" gradientTransform="matrix(3.835 0 0 -3.8566 147.7208 3496.1147)">
		<stop  offset="0" style="stop-color:#CCCCCC"/>
		<stop  offset="0.2201" style="stop-color:#E6E6E6"/>
		<stop  offset="0.4693" style="stop-color:#FFFFFF"/>
		<stop  offset="1" style="stop-color:#E6E6E6"/>
	</linearGradient>
	
		<path id="path3894" inkscape:connector-curvature="0" fill="url(#path3894_1_)" stroke="#808080" stroke-width="5" stroke-linejoin="round" d="
		M681.378,1083.125L530.885,932.633c11.217,50.164,12.838,100.33,0,150.492C590.515,1071.477,633.992,1079.709,681.378,1083.125z"/>
</g>
<rect id="rect3896-b" filter="url(#Blur10)" x="20" y="92.623" fill="#404040" width="379.626" height="188.151"/>
<path filter="url(#Blur10)" fill="#404040" d="M473.41,404.404c-3.188-2.271-5.521-3.576-6.989-3.912c-1.475-0.338-2.976-0.186-4.511,0.463
	c-2.167,0.914-3.688,2.352-4.562,4.313c-0.875,1.963-0.912,3.895-0.113,5.789c0.456,1.084,1.317,2.369,2.581,3.855l60.112,61.117
	l-60.112,61.113c-1.264,1.486-2.125,2.771-2.581,3.855c-0.799,1.895-0.762,3.826,0.113,5.789c0.872,1.961,2.395,3.4,4.562,4.313
	c1.535,0.646,3.036,0.803,4.511,0.465c1.471-0.338,3.803-1.645,6.989-3.91l97.09-71.627L453.41,384.404z"/>
<path filter="url(#Blur10)" fill="#404040" d="M306.903,404.404c3.188-2.271,5.521-3.576,6.991-3.912c1.474-0.338,2.975-0.186,4.509,0.463
	c2.167,0.914,3.689,2.352,4.563,4.313c0.875,1.963,0.912,3.895,0.111,5.789c-0.456,1.084-1.315,2.369-2.581,3.855l-60.11,61.117
	l60.11,61.113c1.266,1.486,2.125,2.771,2.581,3.855c0.801,1.895,0.764,3.826-0.111,5.789c-0.872,1.961-2.396,3.4-4.563,4.313
	c-1.534,0.646-3.035,0.803-4.509,0.465c-1.472-0.338-3.804-1.645-6.991-3.91l-97.09-71.627L286.903,384.404z"/>
<path filter="url(#Blur10)" fill="#404040" d="M361.426,577.498c-1.678,3.537-3.074,5.813-4.193,6.828c-1.12,1.012-2.506,1.607-4.162,1.793
	c-2.337,0.262-4.367-0.25-6.086-1.537c-1.722-1.287-2.695-2.953-2.924-4.998c-0.131-1.168-0.007-2.711,0.371-4.625l76.367-208.309
	c1.676-3.537,3.072-5.814,4.191-6.828c1.12-1.014,2.506-1.609,4.162-1.793c2.337-0.264,4.367,0.25,6.086,1.537
	c1.724,1.283,2.695,2.949,2.924,4.996c0.133,1.168,0.009,2.709-0.371,4.623L"/>
<rect id="rect3896" x="0" y="72.623" fill="#FF6600" width="379.626" height="188.151"/>
<g enable-background="new    ">
	<path fill="#FFFFFF" d="M23.132,225.35l45.681-61.553L28.53,107.24h18.611l21.431,30.293c4.458,6.284,7.626,11.118,9.507,14.502
		c2.631-4.297,5.747-8.782,9.346-13.454l23.767-31.341h17l-41.492,55.671l44.714,62.439h-19.336l-29.729-42.137
		c-1.666-2.416-3.384-5.048-5.156-7.895c-2.632,4.297-4.512,7.25-5.64,8.861l-29.648,41.17H23.132z"/>
	<path fill="#FFFFFF" d="M144.707,225.35V107.24h23.525l27.957,83.628c2.578,7.788,4.458,13.615,5.64,17.482
		c1.342-4.296,3.437-10.606,6.284-18.933l28.279-82.178h21.028v118.11h-15.066v-98.855l-34.321,98.855h-14.099l-34.16-100.547
		V225.35H144.707z"/>
	<path fill="#FFFFFF" d="M281.992,225.35V107.24h15.63v104.173h58.169v13.938H281.992z"/>
</g>
<g display="none" enable-background="new    ">
	<path display="inline" fill="#AAD400" d="M311.635,488.017h5.438c5.486,0,10.164,1.961,14.035,5.877
		c3.869,3.923,5.805,8.576,5.805,13.964c0,5.78-1.961,10.582-5.878,14.401c-3.92,3.82-8.573,5.732-13.962,5.732h-5.438
		c-5.488,0-10.166-1.959-14.035-5.879c-3.872-3.918-5.806-8.572-5.806-13.963c0-5.779,1.983-10.58,5.952-14.402
		C301.715,489.927,306.344,488.017,311.635,488.017z"/>
	<path display="inline" fill="#AAD400" d="M470.504,570.906h40.119l-43.646,81.125c-2.646,4.896-5.83,7.348-9.553,7.348
		c-2.45,0-4.533-0.856-6.246-2.572c-1.715-1.715-2.572-3.797-2.572-6.243c0-0.98,0.147-2.06,0.441-3.234L470.504,570.906z"/>
</g>
<path fill="#FF6600" d="M453.41,384.404c-3.188-2.271-5.521-3.576-6.989-3.912c-1.475-0.338-2.976-0.186-4.511,0.463
	c-2.167,0.914-3.688,2.352-4.562,4.313c-0.875,1.963-0.912,3.895-0.113,5.789c0.456,1.084,1.317,2.369,2.581,3.855l60.112,61.117
	l-60.112,61.113c-1.264,1.486-2.125,2.771-2.581,3.855c-0.799,1.895-0.762,3.826,0.113,5.789c0.872,1.961,2.395,3.4,4.562,4.313
	c1.535,0.646,3.036,0.803,4.511,0.465c1.471-0.338,3.803-1.645,6.989-3.91l97.09-71.627L453.41,384.404z"/>
<path fill="#FF6600" d="M286.903,384.404c3.188-2.271,5.521-3.576,6.991-3.912c1.474-0.338,2.975-0.186,4.509,0.463
	c2.167,0.914,3.689,2.352,4.563,4.313c0.875,1.963,0.912,3.895,0.111,5.789c-0.456,1.084-1.315,2.369-2.581,3.855l-60.11,61.117
	l60.11,61.113c1.266,1.486,2.125,2.771,2.581,3.855c0.801,1.895,0.764,3.826-0.111,5.789c-0.872,1.961-2.396,3.4-4.563,4.313
	c-1.534,0.646-3.035,0.803-4.509,0.465c-1.472-0.338-3.804-1.645-6.991-3.91l-97.09-71.627L286.903,384.404z"/>
<path fill="#FF6600" d="M341.426,557.498c-1.678,3.537-3.074,5.813-4.193,6.828c-1.12,1.012-2.506,1.607-4.162,1.793
	c-2.337,0.262-4.367-0.25-6.086-1.537c-1.722-1.287-2.695-2.953-2.924-4.998c-0.131-1.168-0.007-2.711,0.371-4.625l76.367-208.309
	c1.676-3.537,3.072-5.814,4.191-6.828c1.12-1.014,2.506-1.609,4.162-1.793c2.337-0.264,4.367,0.25,6.086,1.537
	c1.724,1.283,2.695,2.949,2.924,4.996c0.133,1.168,0.009,2.709-0.371,4.623L341.426,557.498z"/>
</svg>
