<?xml version="1.0" encoding="utf-8"?>
<!-- Generator: Adobe Illustrator 16.0.0, SVG Export Plug-In . SVG Version: 6.00 Build 0)  -->
<!DOCTYPE svg PUBLIC "-//W3C//DTD SVG 1.1//EN" "http://www.w3.org/Graphics/SVG/1.1/DTD/svg11.dtd">
<svg version="1.1"
	 id="svg2" xmlns:dc="http://purl.org/dc/elements/1.1/" xmlns:cc="http://creativecommons.org/ns#" xmlns:rdf="http://www.w3.org/1999/02/22-rdf-syntax-ns#" xmlns:svg="http://www.w3.org/2000/svg" xmlns:sodipodi="http://sodipodi.sourceforge.net/DTD/sodipodi-0.dtd" xmlns:inkscape="http://www.inkscape.org/namespaces/inkscape" inkscape:version="0.91 r13725" sodipodi:docname="xml.svg" inkscape:export-filename="/Volumes/ramdisk/xml.png" inkscape:export-xdpi="10.800075" inkscape:export-ydpi="10.800075"
	 xmlns="http://www.w3.org/2000/svg" xmlns:xlink="http://www.w3.org/1999/xlink" x="0px" y="0px" width="595.188px"
	 height="601.781px" viewBox="0 0 595.188 601.781" enable-background="new 0 0 595.188 601.781" xml:space="preserve">
<filter id="Blur10" width="200%" height="200%" x="-50%" y="-50%">
	<feGaussianBlur stdDeviation="10"></feGaussianBlur>
</filter>
<sodipodi:namedview  pagecolor="#ffffff" bordercolor="#666666" borderopacity="1" objecttolerance="10" gridtolerance="10" guidetolerance="10" id="namedview22" showgrid="false" inkscape:zoom="5.5148875" inkscape:cx="52.040953" inkscape:cy="49.999655" fit-margin-top="0" fit-margin-left="0" inkscape:window-height="756" inkscape:window-y="0" fit-margin-right="0" inkscape:window-maximized="0" fit-margin-bottom="0" inkscape:current-layer="svg2" inkscape:window-x="0" inkscape:pageopacity="0" inkscape:pageshadow="2" inkscape:window-width="1192" showborder="true">
	</sodipodi:namedview>
<g id="g3890" transform="matrix(0.86046,0,0,0.86207,6.3889645,-801.60481)">
	
		<linearGradient id="path3892_1_" gradientUnits="userSpaceOnUse" x1="146.1875" y1="-420.9896" x2="-38.8136" y2="-655.991" gradientTransform="matrix(3.2999 0 0 3.3247 171.9477 3047.1006)">
		<stop  offset="0" style="stop-color:#E6E6E6"/>
		<stop  offset="1" style="stop-color:#F9F9F9"/>
	</linearGradient>
	
		<path id="path3892" inkscape:connector-curvature="0" fill="url(#path3892_1_)" stroke="#808080" stroke-width="5" stroke-linejoin="round" d="
		M530.887,933.794H169.707v692.263h511.671v-541.77L530.887,933.794z"/>
	
		<linearGradient id="path3894_1_" gradientUnits="userSpaceOnUse" x1="132.498" y1="1059.7316" x2="119.4975" y2="1072.7322" gradientTransform="matrix(3.2999 0 0 3.3247 171.9477 -2517.2676)">
		<stop  offset="0" style="stop-color:#CCCCCC"/>
		<stop  offset="0.2201" style="stop-color:#E6E6E6"/>
		<stop  offset="0.4693" style="stop-color:#FFFFFF"/>
		<stop  offset="1" style="stop-color:#E6E6E6"/>
	</linearGradient>
	
		<path id="path3894" inkscape:connector-curvature="0" fill="url(#path3894_1_)" stroke="#808080" stroke-width="5" stroke-linejoin="round" d="
		M681.378,1084.285L530.884,933.793c11.218,50.164,12.838,100.33,0,150.492C590.515,1072.637,633.992,1080.869,681.378,1084.285z"/>
</g>
<rect id="rect3896-b" filter="url(#Blur10)" x="20" y="93.623" fill="#404040" width="379.626" height="188.151"/>
<g filter="url(#Blur10)">
	<polygon fill="#404040" points="384.724,361.912 287.14,361.912 243.326,415.033 384.724,415.033 "/>
</g>
<g filter="url(#Blur10)">
	<polygon fill="#404040" points="404.14,388.471 536.119,415.033 492.308,361.912 392.551,335.35 "/>
</g>
<path fill="#404040" filter="url(#Blur10)" d="M243.327,424.07v167.196h292.79v-167.196z M420.516,478.75h-61.584c-6.903,0-12.5-5.463-12.5-12.201
	c0-6.74,5.597-12.203,12.5-12.203h61.584c6.903,0,12.5,5.463,12.5,12.203S407.42,458.75,400.516,458.75z"/>
<rect id="rect3896" x="0" y="73.623" fill="#B1883F" width="379.626" height="188.151"/>
<g enable-background="new    ">
	<path fill="#FFFFFF" d="M65.71,226.35v-14.502l60.505-75.652c4.296-5.37,8.379-10.043,12.246-14.018H72.558V108.24h84.595v13.938
		l-66.306,81.937l-7.17,8.299h75.41v13.938L65.71,226.35L65.71,226.35z"/>
	<path fill="#FFFFFF" d="M178.584,226.35V108.24h15.63v118.11H178.584z"/>
	<path fill="#FFFFFF" d="M221.767,226.35V108.24h44.553c7.842,0,13.83,0.376,17.967,1.128c5.801,0.967,10.66,2.808,14.582,5.519
		c3.92,2.713,7.076,6.514,9.468,11.4c2.389,4.888,3.585,10.26,3.585,16.113c0,10.044-3.196,18.544-9.587,25.499
		c-6.394,6.957-17.94,10.434-34.645,10.434h-30.293v48.018L221.767,226.35L221.767,226.35z M237.397,164.395h30.535
		c10.097,0,17.269-1.88,21.511-5.641c4.242-3.759,6.365-9.05,6.365-15.871c0-4.941-1.249-9.171-3.747-12.689
		c-2.497-3.517-5.788-5.841-9.869-6.969c-2.632-0.697-7.493-1.047-14.583-1.047h-30.212V164.395L237.397,164.395z"/>
</g>
<polygon fill="#B1883F" points="364.724,341.912 267.14,341.912 223.326,395.033 364.724,395.033 "/>
<polygon fill="#B1883F" points="384.14,368.471 516.119,395.033 472.308,341.912 372.551,315.35 "/>
<path fill="#B1883F" d="M223.327,404.07v167.196h292.79v-167.196z M400.516,458.75h-61.584c-6.903,0-12.5-5.463-12.5-12.201
	c0-6.74,5.597-12.203,12.5-12.203h61.584c6.903,0,12.5,5.463,12.5,12.203S407.42,458.75,400.516,458.75z"/>
</svg>
