<?xml version="1.0" encoding="utf-8"?>
<!-- Generator: Adobe Illustrator 16.0.0, SVG Export Plug-In . SVG Version: 6.00 Build 0)  -->
<!DOCTYPE svg PUBLIC "-//W3C//DTD SVG 1.1//EN" "http://www.w3.org/Graphics/SVG/1.1/DTD/svg11.dtd">
<svg version="1.1"
	 id="svg2" xmlns:dc="http://purl.org/dc/elements/1.1/" xmlns:svg="http://www.w3.org/2000/svg" xmlns:cc="http://creativecommons.org/ns#" xmlns:inkscape="http://www.inkscape.org/namespaces/inkscape" xmlns:sodipodi="http://sodipodi.sourceforge.net/DTD/sodipodi-0.dtd" xmlns:rdf="http://www.w3.org/1999/02/22-rdf-syntax-ns#" sodipodi:docname="shield-green.svg" inkscape:export-filename="C:\Users\Yann\Desktop\shield-green.png" inkscape:export-xdpi="4.2538862" inkscape:export-ydpi="4.2538862" inkscape:version="0.48.4 r9939"
	 xmlns="http://www.w3.org/2000/svg" xmlns:xlink="http://www.w3.org/1999/xlink" x="0px" y="0px" width="531.551px"
	 height="531.529px" viewBox="42.213 42.235 531.551 531.529" enable-background="new 42.213 42.235 531.551 531.529"
	 xml:space="preserve">
<filter  id="NewFilter">
	<feGaussianBlur  stdDeviation="12" result="blur"></feGaussianBlur>
	<feMerge>
		<feMergeNode  in="blur"></feMergeNode>
	</feMerge>
</filter>
<g inkscape:connector-curvature="0" display="none" filter="url(#NewFilter)">
	<path display="inline" fill="#14A000" d="M44.57,374.057c0.753,8.172,7.646,14.389,15.853,14.313h167.202v167.192
		c-0.027,4.216,1.643,8.265,4.622,11.247c2.979,2.979,7.028,4.635,11.229,4.619H372.51c4.215,0.016,8.247-1.643,11.229-4.619
		c2.98-2.982,4.651-7.031,4.639-11.247V388.373h167.188c4.214,0.019,8.264-1.643,11.245-4.618c2.964-2.98,4.636-7.031,4.619-11.245
		V243.488c0.017-4.215-1.655-8.264-4.619-11.245c-2.981-2.979-7.031-4.636-11.245-4.621H388.377V60.436
		c0.017-4.215-1.654-8.268-4.639-11.245c-2.979-2.979-7.016-4.637-11.229-4.621H243.475c-4.201-0.016-8.25,1.642-11.229,4.621
		c-2.979,2.979-4.649,7.031-4.622,11.245v167.186H60.422c-4.215-0.015-8.249,1.645-11.229,4.621
		c-2.979,2.98-4.649,7.03-4.621,11.245V372.51C44.541,373.032,44.541,373.55,44.57,374.057L44.57,374.057z"/>
</g>
<path inkscape:connector-curvature="0" fill="#595959" stroke="#383838" stroke-width="4.6705" d="M44.57,374.057
	c0.753,8.172,7.646,14.389,15.853,14.313h167.202v167.192c-0.027,4.216,1.643,8.265,4.622,11.247
	c2.979,2.979,7.028,4.635,11.229,4.619H372.51c4.215,0.016,8.247-1.643,11.229-4.619c2.98-2.982,4.651-7.031,4.639-11.247V388.373
	h167.188c4.214,0.019,8.264-1.643,11.245-4.618c2.964-2.98,4.636-7.031,4.619-11.245V243.488c0.017-4.215-1.655-8.264-4.619-11.245
	c-2.981-2.979-7.031-4.636-11.245-4.621H388.377V60.436c0.017-4.215-1.654-8.268-4.639-11.245
	c-2.979-2.979-7.016-4.637-11.229-4.621H243.475c-4.201-0.016-8.25,1.642-11.229,4.621c-2.979,2.979-4.649,7.031-4.622,11.245
	v167.186H60.422c-4.215-0.015-8.249,1.645-11.229,4.621c-2.979,2.98-4.649,7.03-4.621,11.245V372.51
	C44.541,373.032,44.541,373.55,44.57,374.057L44.57,374.057z"/>
<linearGradient id="SVGID_1_" gradientUnits="userSpaceOnUse" x1="59.5686" y1="308.0027" x2="556.4241" y2="308.0027">
	<stop  offset="0" style="stop-color:#14A000"/>
	<stop  offset="1" style="stop-color:#1ECC00"/>
</linearGradient>
<path fill="url(#SVGID_1_)" d="M372.554,59.57H243.475h-0.035h-0.032c-0.203,0-0.411,0.083-0.558,0.229
	c-0.146,0.146-0.229,0.344-0.229,0.534v0.055v0.053v167.186v15h-15h-167.2h-0.032h-0.034c-0.144,0-0.366,0.04-0.56,0.23
	c-0.146,0.144-0.228,0.338-0.227,0.53v0.053v0.052v129.02v0.417c0.12,0.268,0.393,0.449,0.706,0.449l0.063-0.003h0.081h167.202h15
	v15v167.191v0.052v0.056c-0.001,0.19,0.083,0.392,0.23,0.538c0.142,0.143,0.348,0.225,0.563,0.225h0.031h0.026h129.033h0.032h0.03
	c0.147,0,0.372-0.039,0.56-0.229c0.155-0.152,0.245-0.368,0.244-0.589v-0.022v-0.025V388.373v-15h15H555.56h0.031h0.028
	c0.222,0,0.436-0.084,0.579-0.229c0.128-0.129,0.227-0.357,0.226-0.579v-0.027v-0.024V243.49v-0.028v-0.024
	c0.001-0.225-0.098-0.45-0.258-0.612c-0.111-0.114-0.326-0.198-0.555-0.198h-0.033h-0.021H388.377h-15v-15V60.436V60.41v-0.026
	c0.001-0.217-0.088-0.43-0.244-0.586c-0.188-0.188-0.41-0.228-0.564-0.228H372.554z"/>
<linearGradient id="SVGID_2_" gradientUnits="userSpaceOnUse" x1="151.8616" y1="17.3005" x2="353.317" y2="339.6967" gradientTransform="matrix(1 0 0 1 -0.0605 40.7969)">
	<stop  offset="0" style="stop-color:#FFFFFF"/>
	<stop  offset="1" style="stop-color:#FFFFFF;stop-opacity:0"/>
</linearGradient>
<path fill="url(#SVGID_2_)" d="M555.619,242.622h-0.031h-0.021H388.377h-15v-15V60.436V60.41v-0.026
	c0.001-0.217-0.088-0.43-0.244-0.586c-0.188-0.188-0.41-0.228-0.564-0.228h-129.09h-0.035h-0.032c-0.203,0-0.411,0.083-0.558,0.229
	c-0.146,0.146-0.229,0.344-0.229,0.534v0.055v0.053v167.186v15h-15H60.422H60.39h-0.034c-0.144,0-0.365,0.04-0.56,0.23
	c-0.146,0.144-0.228,0.338-0.227,0.53v0.053v0.052v129.02v0.417c0.12,0.268,0.393,0.449,0.706,0.449l0.063-0.003h0.081h66.54
	c130.667-77.021,286.35-117.353,429.47-103.424v-26.462v-0.028v-0.024c0.001-0.225-0.097-0.45-0.257-0.612
	C556.06,242.706,555.845,242.622,555.619,242.622z"/>
</svg>
