<?xml version="1.0" encoding="utf-8"?>
<!-- Generator: Adobe Illustrator 16.0.0, SVG Export Plug-In . SVG Version: 6.00 Build 0)  -->
<!DOCTYPE svg PUBLIC "-//W3C//DTD SVG 1.1//EN" "http://www.w3.org/Graphics/SVG/1.1/DTD/svg11.dtd">
<svg version="1.1"
	 id="svg2" xmlns:dc="http://purl.org/dc/elements/1.1/" xmlns:svg="http://www.w3.org/2000/svg" xmlns:cc="http://creativecommons.org/ns#" xmlns:inkscape="http://www.inkscape.org/namespaces/inkscape" xmlns:sodipodi="http://sodipodi.sourceforge.net/DTD/sodipodi-0.dtd" xmlns:rdf="http://www.w3.org/1999/02/22-rdf-syntax-ns#" sodipodi:docname="shield-green.svg" inkscape:export-filename="C:\Users\Yann\Desktop\shield-green.png" inkscape:export-xdpi="4.2538862" inkscape:export-ydpi="4.2538862" inkscape:version="0.48.4 r9939"
	 xmlns="http://www.w3.org/2000/svg" xmlns:xlink="http://www.w3.org/1999/xlink" x="0px" y="0px" width="531.552px"
	 height="531.529px" viewBox="42.213 42.235 531.552 531.529" enable-background="new 42.213 42.235 531.552 531.529"
	 xml:space="preserve">
<path inkscape:connector-curvature="0" fill="#595959" stroke="#383838" stroke-width="4.6705" d="M141.593,567.816
	c6.311,5.246,15.582,4.768,21.331-1.09l145.071-145.07l145.088,145.088c2.961,3,7.005,4.683,11.221,4.685
	c4.213,0,8.246-1.691,11.206-4.674l91.241-91.24c2.991-2.97,4.669-6.994,4.674-11.206c-0.002-4.217-1.684-8.261-4.673-11.233
	L421.665,307.988l145.072-145.072c2.993-2.966,4.682-7.005,4.687-11.217c-0.012-4.203-1.694-8.25-4.686-11.218l-91.232-91.232
	c-2.969-2.992-7.014-4.673-11.218-4.685c-4.214,0.002-8.25,1.694-11.219,4.684L307.996,194.321L162.909,49.233
	c-2.969-2.992-7.017-4.677-11.232-4.67c-4.213-0.001-8.24,1.682-11.208,4.672l-91.241,91.241c-2.981,2.959-4.673,6.994-4.672,11.207
	c-0.001,4.213,1.684,8.26,4.683,11.22l145.088,145.088L49.257,453.061c-2.991,2.97-4.669,6.996-4.673,11.208
	c0.001,4.214,1.684,8.258,4.684,11.219L140.5,566.72C140.848,567.111,141.214,567.477,141.593,567.816L141.593,567.816z"/>
<linearGradient id="SVGID_1_" gradientUnits="userSpaceOnUse" x1="132.3274" y1="398.8904" x2="483.6662" y2="47.5515" gradientTransform="matrix(0.7071 -0.7071 -0.7071 -0.7071 248.0431 683.6381)">
	<stop  offset="0" style="stop-color:#9E0000"/>
	<stop  offset="1" style="stop-color:#CC0000"/>
</linearGradient>
<path fill="url(#SVGID_1_)" d="M151.108,59.809l-91.272,91.272l-0.025,0.025l-0.022,0.022c-0.144,0.144-0.232,0.35-0.233,0.557
	c0,0.207,0.082,0.405,0.216,0.539l0.04,0.04l0.037,0.038l145.088,145.088l10.606,10.606l-10.606,10.606L59.866,463.672l-0.023,0.023
	l-0.024,0.023c-0.102,0.102-0.231,0.287-0.233,0.559c-0.002,0.205,0.078,0.4,0.214,0.536l0.037,0.037l0.037,0.037l91.231,91.231
	l0.295,0.295c0.274,0.104,0.596,0.039,0.816-0.182l0.043-0.048l0.058-0.057l145.07-145.071l10.606-10.606l10.606,10.606
	l145.087,145.087l0.037,0.037l0.04,0.04c0.133,0.135,0.335,0.218,0.542,0.218c0.202,0,0.405-0.087,0.558-0.239l0.021-0.021
	l0.019-0.019l91.24-91.24l0.023-0.023l0.021-0.021c0.104-0.104,0.235-0.29,0.234-0.558c0.001-0.217-0.087-0.434-0.244-0.59
	l-0.016-0.016l-0.018-0.018L411.053,318.601l-10.607-10.606l10.607-10.606l145.073-145.075l0.022-0.022l0.02-0.019
	c0.157-0.158,0.249-0.368,0.248-0.571c-0.001-0.182-0.092-0.414-0.249-0.57l-0.02-0.019l-0.017-0.017l-91.234-91.234l-0.02-0.02
	l-0.017-0.017c-0.159-0.16-0.389-0.249-0.616-0.25c-0.159-0.003-0.37,0.09-0.532,0.252l-0.023,0.023l-0.015,0.015L318.608,204.932
	l-10.606,10.606l-10.607-10.606L152.302,59.84l-0.019-0.019l-0.019-0.019c-0.153-0.154-0.366-0.242-0.587-0.242
	c-0.266,0.001-0.451,0.129-0.56,0.238L151.108,59.809z"/>
<linearGradient id="SVGID_2_" gradientUnits="userSpaceOnUse" x1="180.7874" y1="-16.0276" x2="377.7226" y2="299.1346">
	<stop  offset="0" style="stop-color:#FFFFFF"/>
	<stop  offset="1" style="stop-color:#FFFFFF;stop-opacity:0"/>
</linearGradient>
<path fill="url(#SVGID_2_)" d="M152.008,371.53c78.308-40.519,174.133-68.979,267.138-82.234l136.98-136.982l0.022-0.022l0.02-0.019
	c0.157-0.158,0.249-0.368,0.248-0.571c-0.001-0.182-0.092-0.414-0.249-0.57l-0.02-0.019l-0.017-0.017l-91.234-91.234l-0.02-0.02
	l-0.017-0.017c-0.159-0.16-0.389-0.249-0.616-0.25c-0.159-0.003-0.37,0.09-0.532,0.252l-0.023,0.023l-0.015,0.015L318.608,204.932
	l-10.606,10.606l-10.607-10.606L152.302,59.84l-0.019-0.019l-0.019-0.019c-0.153-0.154-0.366-0.242-0.587-0.242
	c-0.266,0.001-0.451,0.129-0.56,0.238l-0.01,0.011l-91.272,91.272l-0.025,0.025l-0.022,0.022c-0.144,0.144-0.232,0.35-0.233,0.557
	c0,0.207,0.082,0.405,0.216,0.539l0.04,0.04l0.037,0.038l145.088,145.088l10.606,10.606l-10.606,10.606L152.008,371.53z"/>
</svg>
