<?xml version="1.0" encoding="UTF-8" standalone="no"?>
<svg
   xmlns:dc="http://purl.org/dc/elements/1.1/"
   xmlns:cc="http://creativecommons.org/ns#"
   xmlns:rdf="http://www.w3.org/1999/02/22-rdf-syntax-ns#"
   xmlns:svg="http://www.w3.org/2000/svg"
   xmlns="http://www.w3.org/2000/svg"
   xmlns:xlink="http://www.w3.org/1999/xlink"
   xmlns:sodipodi="http://sodipodi.sourceforge.net/DTD/sodipodi-0.dtd"
   xmlns:inkscape="http://www.inkscape.org/namespaces/inkscape"
   version="1.0"
   width="95.400002"
   height="107.3"
   id="svg2"
   sodipodi:version="0.32"
   inkscape:version="0.92.2 5c3e80d, 2017-08-06"
   sodipodi:docname="delete.svg"
   inkscape:output_extension="org.inkscape.output.svg.inkscape"
   inkscape:export-filename="/Volumes/ramdisk/trash.png"
   inkscape:export-xdpi="9.176631"
   inkscape:export-ydpi="9.176631">
  <metadata
     id="metadata90">
    <rdf:RDF>
      <cc:Work
         rdf:about="">
        <dc:format>image/svg+xml</dc:format>
        <dc:type
           rdf:resource="http://purl.org/dc/dcmitype/StillImage" />
        <dc:title></dc:title>
      </cc:Work>
    </rdf:RDF>
  </metadata>
  <sodipodi:namedview
     inkscape:window-height="935"
     inkscape:window-width="1673"
     inkscape:pageshadow="2"
     inkscape:pageopacity="0.0"
     guidetolerance="10.0"
     gridtolerance="10.0"
     objecttolerance="10.0"
     borderopacity="1.0"
     bordercolor="#666666"
     pagecolor="#ffffff"
     id="base"
     showgrid="false"
     inkscape:zoom="4.8474856"
     inkscape:cx="-2.936164"
     inkscape:cy="54.667517"
     inkscape:window-x="44"
     inkscape:window-y="58"
     inkscape:current-layer="svg2"
     fit-margin-top="0"
     fit-margin-left="0"
     fit-margin-right="0"
     fit-margin-bottom="0"
     inkscape:window-maximized="0" />
  <defs
     id="defs4">
    <linearGradient
       x1="76"
       y1="105.3"
       x2="76"
       y2="86"
       id="linearGradient2299"
       xlink:href="#BlackTransparent"
       gradientUnits="userSpaceOnUse"
       gradientTransform="matrix(0.9,0,0,0.9,3.5,9)" />
    <linearGradient
       id="BlackTransparent">
      <stop
         style="stop-color:black;stop-opacity:1"
         offset="0"
         id="stop8" />
      <stop
         style="stop-color:black;stop-opacity:0"
         offset="1"
         id="stop10" />
    </linearGradient>
    <linearGradient
       id="WhiteTransparent">
      <stop
         style="stop-color:white;stop-opacity:1"
         offset="0"
         id="stop13" />
      <stop
         style="stop-color:white;stop-opacity:0"
         offset="1"
         id="stop15" />
    </linearGradient>
    <linearGradient
       id="linearGradient6182"
       x1="0"
       y1="21"
       x2="0"
       y2="30"
       xlink:href="#WhiteTransparent"
       gradientUnits="userSpaceOnUse" />
    <linearGradient
       id="linearGradient6185"
       x1="0"
       y1="71"
       x2="0"
       y2="59"
       xlink:href="#WhiteTransparent"
       gradientUnits="userSpaceOnUse" />
    <linearGradient
       id="linearGradient6188"
       x1="0"
       y1="52"
       x2="0"
       y2="16"
       xlink:href="#WhiteTransparent"
       gradientUnits="userSpaceOnUse" />
    <linearGradient
       id="linearGradient6192"
       x1="0"
       y1="35"
       x2="0"
       y2="48"
       xlink:href="#BlackTransparent"
       gradientUnits="userSpaceOnUse" />
    <linearGradient
       id="linearGradient6197"
       x1="13"
       y1="56"
       x2="13"
       y2="102"
       xlink:href="#BlackTransparent"
       gradientUnits="userSpaceOnUse"
       gradientTransform="translate(-13,-14)" />
    <linearGradient
       id="linearGradient6213"
       x1="22"
       y1="0"
       x2="46"
       y2="0"
       xlink:href="#WhiteTransparent"
       gradientUnits="userSpaceOnUse"
       gradientTransform="translate(-13,-14)" />
    <linearGradient
       id="linearGradient6216"
       x1="96"
       y1="0"
       x2="60"
       y2="0"
       xlink:href="#WhiteTransparent"
       gradientUnits="userSpaceOnUse"
       gradientTransform="translate(-13,-14)" />
    <clipPath
       clipPathUnits="userSpaceOnUse"
       id="clipoutline1">
      <path
         id="outline1"
         d="M 60.3,27.4 C 40.4,27.4 24.4,35 24.4,44 v 56.8 c 0,9.2 16,16.5 35.9,16.5 C 80,117.3 96,110 96,100.8 V 44 C 96,35 80,27.4 60.3,27.4 Z"
         inkscape:connector-curvature="0" />
    </clipPath>
    <clipPath
       clipPathUnits="userSpaceOnUse"
       id="clipoutline2">
      <path
         id="outline2"
         d="M 59.6,18 C 36.3,18 17.6,27.8 17,39.7 v 9.8 C 17,62 36.5,72 60.7,72 85,72 104.4,62 104.4,49.5 V 39.8 C 104.4,27.6 84.6,18 60.7,18 60.4,18 60,18 59.6,18 Z"
         inkscape:connector-curvature="0" />
    </clipPath>
    <filter
       id="ShadowBlur"
       filterUnits="userSpaceOnUse"
       x="0"
       y="0"
       style="color-interpolation-filters:sRGB">
      <feGaussianBlur
         in="SourceAlpha"
         stdDeviation="3"
         result="blur"
         id="feGaussianBlur31" />
    </filter>
  </defs>
  <style
     type="text/css"
     id="style33">
	.specularity {opacity:0.5;}
	.high-specularity {opacity:0.75;}
	.low-specularity {opacity:0.25;}
	.full-specularity {opacity:1;}
	.shade{opacity:0.5;}
	.black {fill:#000000;}
	.white {fill:#ffffff;}
	.outline-big {stroke-width:16;stroke:none;opacity:0.;fill:none;}
	.outline-small {stroke-width:8px;stroke:black;opacity:1;fill:none;}
	.stroke-highlight {fill:none;stroke:white;opacity:0.3;stroke-width:9px;stroke-linejoin:round;}
				.base-shadow 	{fill:black;opacity:0.4;}
	.stroke-aluminium5	{stroke:#555753;}
	.aluminium1	{fill:#eeeeec;}
	.aluminium2	{fill:#d3d7cf;}
	.aluminium3	{fill:#babdb6;}
	.aluminium4	{fill:#888a85;}
	.aluminium5	{fill:#555753;}
	.aluminium6	{fill:#2e3436;}
	</style>
  <path
     class="filter base-shadow"
     d="m -54.42167,93.272603 c 0,10.756747 -20.021807,19.486857 -44.691527,19.486857 -24.669723,0 -44.691523,-8.73011 -44.691523,-19.486857 0,-10.75674 20.0218,-19.48685 44.691523,-19.48685 24.66972,0 44.691527,8.73011 44.691527,19.48685 z"
     id="path39"
     inkscape:connector-curvature="0"
     style="opacity:0.4;fill:#000000;filter:url(#ShadowBlur)" />
  <g
     id="g41"
     transform="translate(-13,-14)">
    <use
       class="outline-big"
       xlink:href="#outline1"
       id="use43"
       x="0"
       y="0"
       width="128"
       height="128" />
    <use
       class="outline-small stroke-aluminium5"
       xlink:href="#outline1"
       id="use45"
       style="opacity:1;fill:#555753;stroke:#555753;stroke-width:8px"
       x="0"
       y="0"
       width="128"
       height="128" />
  </g>
  <path
     d="M 47.4,16 C 27.6,16 11.7,23.6 11.7,32.7 v 54 c 0,9.099993 15.9,16.29999 35.7,16.29999 C 67,102.99999 83,95.799993 83,86.7 v -54 C 83,23.6 67,16 47.4,16 Z"
     style="fill:#888a85"
     id="path47"
     inkscape:connector-curvature="0" />
  <path
     d="m 47.4,13.6 c -19.9,0 -19.9,89.39999 0,89.39999 C 67,102.99999 83,95.899993 83,86.7 V 30 C 83,21 67,13.6 47.4,13.6 Z"
     class="specularity"
     style="opacity:0.5;fill:url(#linearGradient6216)"
     id="path49"
     inkscape:connector-curvature="0" />
  <path
     class="high-specularity"
     d="M 29.4,44 11.7,35.7 V 87 c 0,4.999993 7.3,11.699993 17.8,13.69999 z"
     style="opacity:0.75;fill:url(#linearGradient6213)"
     id="path51"
     inkscape:connector-curvature="0" />
  <path
     d="M 11.6,43.7 V 61.4 C 32.5,76.5 62.5,77 83,61.4 V 43.7 C 63,60 32,58.5 11.6,43.7 Z"
     class="shade"
     style="opacity:0.5;fill:url(#linearGradient6197)"
     id="path53"
     inkscape:connector-curvature="0" />
  <use
     class="stroke-highlight"
     clip-path="url(#clipoutline1)"
     xlink:href="#outline1"
     id="use55"
     style="opacity:0.3;fill:none;stroke:#ffffff;stroke-width:9px;stroke-linejoin:round"
     x="0"
     y="0"
     width="128"
     height="128"
     transform="translate(-13,-14)" />
  <g
     id="g57"
     transform="translate(-13,-14)">
    <g
       id="g59">
      <use
         height="128"
         width="128"
         y="0"
         x="0"
         id="use61"
         xlink:href="#outline2"
         class="outline-big" />
      <use
         height="128"
         width="128"
         y="0"
         x="0"
         style="opacity:1;fill:#555753;stroke:#555753;stroke-width:8px"
         id="use63"
         xlink:href="#outline2"
         class="outline-small stroke-aluminium5" />
    </g>
    <path
       style="fill:#d3d7cf"
       inkscape:connector-curvature="0"
       id="path65"
       class="aluminium2"
       d="m 60.7,18 c 24.3,0 43.7,10 43.7,22 v 3.5 C 104.4,56 85,66 60.7,66 36.5,66 17,56 17,43.5 V 40 C 17,28 36.5,18 60.7,18 Z" />
    <path
       style="fill:#888a85"
       inkscape:connector-curvature="0"
       id="path67"
       class="aluminium4"
       d="M 60.7,59 C 85,59 104.4,52.6 104.4,39.4 V 49.5 C 104.4,62 85,72 60.7,72 36.5,72 17,62 17,49.5 V 39.4 C 17,47.3 36.5,59 60.7,59 Z" />
    <path
       inkscape:connector-curvature="0"
       id="path69"
       style="opacity:0.5;fill:url(#linearGradient6188)"
       d="m 16.473476,36.525126 c 0,11.4 27.281281,17.544544 44.226524,17.544544 17.652349,0 43.69619,-3.744544 43.69619,-17.544544 l 0.004,3.358757 c 0,16.050487 -29.399999,19.25 -43.699999,19.25 -13.8,0 -44.318719,-8.338388 -44.318719,-20.338388" />
    <path
       inkscape:connector-curvature="0"
       id="path71"
       style="opacity:0.5;fill:url(#linearGradient6185)"
       class="specularity"
       d="M 61,59 C 33.7,59 4.5,46.6 26.5,62.7 c 8.2,6 20.2,9 34.5,9 14.4,0 26,-3 34.7,-9 C 117,47.5 88,59 61,59 Z" />
    <use
       height="128"
       width="128"
       y="0"
       x="0"
       style="opacity:0.3;fill:none;stroke:#ffffff;stroke-width:9px;stroke-linejoin:round"
       id="use73"
       xlink:href="#outline2"
       clip-path="url(#clipoutline2)"
       class="stroke-highlight" />
    <g
       id="g75">
      <path
         inkscape:connector-curvature="0"
         id="path77"
         style="opacity:0.5;fill:url(#linearGradient6192)"
         class="shade"
         d="m 41.4,35.6 h 40.1 c 4.5,0 4.5,6.9 0,6.9 H 41.4 c -4.4,0 -4.6,-6.9 0,-6.9 z" />
      <path
         inkscape:connector-curvature="0"
         id="path79"
         style="fill:#000000"
         d="m 61.6,19.3 c -18.6,0 -20.1,6 -20.1,12.3 v 6.8 c 0,2.9 7.5,2.3 7.5,0 V 36 c 0,-4.4 4.5,-5.5 12.6,-5.5 8.1,0 12.4,1.1 12.4,5.5 v 2.4 c 0,2.3 7.6,2.3 7.6,0 v -6.8 c 0,-6.3 -1.6,-12.3 -20,-12.3 z" />
      <path
         inkscape:connector-curvature="0"
         id="path81"
         style="opacity:0.5;fill:url(#linearGradient6182)"
         d="M 61.6,21.3 C 53.4,21.3 47,22.5 47,27.4 h 29 c 0,-4.9 -6.3,-6.1 -14.4,-6.1 z"
         class="specularity" />
    </g>
  </g>
  <g
     id="g83"
     transform="translate(-13,-14)">
    <path
       inkscape:connector-curvature="0"
       id="path85"
       style="opacity:0.5;fill:#000000"
       d="M 32,83.6 V 99 c 0,6.9 8,7 8,0 V 83.6 c 0,-5.3 -8,-5.7 -8,0 z m 48,0 V 99 c 1.9,5.9 7.5,4.7 8,0 V 83.6 c 0,-5 -7.8,-4.9 -8,0 z M 47.4,87.7 V 106 c 0,6.3 8.5,5.7 8.6,0 V 87.7 c 0,-5.4 -8.5,-5.7 -8.6,0 z m 16.6,0 V 106 c 0,6.5 8.9,5.8 9,0 V 87.7 c -1.4,-6.1 -8.2,-5.5 -9,0 z" />
    <path
       inkscape:connector-curvature="0"
       id="path87"
       style="opacity:0.5;fill:url(#linearGradient2299)"
       d="m 88,91 c 0,4.2 -8,4 -8,0 v 7.4 c 0,5.6 8,6.3 8,0 z m -56,0 v 7.4 c 0,8 8,7.6 8,0 V 91 c 0,4.9 -8,4.6 -8,0 z m 24,6.8 c 0,5.1 -8.6,4.2 -8.6,0 v 7.9 c 0,6.9 8.5,5.9 8.6,0 z m 17,0 c 0,5.8 -9,4.9 -9,0 v 7.9 c 0,7.1 9,6.3 9,0 z" />
  </g>
</svg>
