<?xml version="1.0" encoding="utf-8"?>
<!-- Generator: Adobe Illustrator 16.0.0, SVG Export Plug-In . SVG Version: 6.00 Build 0)  -->
<!DOCTYPE svg PUBLIC "-//W3C//DTD SVG 1.1//EN" "http://www.w3.org/Graphics/SVG/1.1/DTD/svg11.dtd">
<svg version="1.1"
	 id="svg2" xmlns:dc="http://purl.org/dc/elements/1.1/" xmlns:svg="http://www.w3.org/2000/svg" xmlns:cc="http://creativecommons.org/ns#" xmlns:inkscape="http://www.inkscape.org/namespaces/inkscape" xmlns:sodipodi="http://sodipodi.sourceforge.net/DTD/sodipodi-0.dtd" xmlns:rdf="http://www.w3.org/1999/02/22-rdf-syntax-ns#" sodipodi:docname="shield-green.svg" inkscape:export-filename="C:\Users\Yann\Desktop\shield-green.png" inkscape:export-xdpi="4.2538862" inkscape:export-ydpi="4.2538862" inkscape:version="0.48.4 r9939"
	 xmlns="http://www.w3.org/2000/svg" xmlns:xlink="http://www.w3.org/1999/xlink" x="0px" y="0px" width="424.995px"
	 height="531.391px" viewBox="62.794 0.268 424.995 531.391" enable-background="new 62.794 0.268 424.995 531.391"
	 xml:space="preserve">
<path id="rect2332_1_" display="none" opacity="0.7386" enable-background="new    " d="M45.405,43.318h22.492
	c0.877,0,1.607,0.723,1.607,1.621v22.482c0,0.899-0.73,1.627-1.607,1.627H45.405c-0.901,0-1.633-0.728-1.633-1.627V44.939
	C43.772,44.039,44.503,43.318,45.405,43.318z"/>
<path fill="#595959" stroke="#383838" stroke-width="4.6705" d="M485.454,107.444c0-58.671-95.222-104.84-210.162-104.84
	c-1.443,0-3.368,0-5.288,0c-112.058,0-201.986,47.129-204.875,104.36v47.129c0,19.745,10.119,38.193,27.831,54.065l22.815,246.551
	c0,41.599,72.354,74.615,162.342,74.615c89.087,0,161.44-33.017,161.44-74.615l23.266-251.424
	c14.485-14.729,22.63-31.436,22.63-49.192V107.444z"/>
<path fill="#888A85" d="M275.292,262.298c-67.688,0-127.723-16.271-166.117-41.709l21.537,232.739l0.064,0.689v0.692
	c0,28.197,60.511,59.615,147.342,59.615c41.069,0,79.373-7.222,107.855-20.334c24.521-11.289,38.585-25.606,38.585-39.281v-0.692
	l0.063-0.689l21.852-236.139C408.499,244.57,346.241,262.298,275.292,262.298z"/>
<path fill="#888A85" d="M470.454,154.093v-46.649c0-10.648-4.404-21.213-13.09-31.402c-9.186-10.776-23.203-21.002-40.537-29.574
	c-18.188-8.993-39.477-16.076-63.276-21.051c-24.801-5.185-51.131-7.813-78.259-7.813h-5.288c-51.568,0-100.052,10.32-136.52,29.06
	c-16.651,8.556-30.292,18.778-39.449,29.56c-8.607,10.133-13.284,20.612-13.905,31.148v46.722c0,11.14,4.4,22.165,13.079,32.767
	c9.116,11.137,23.023,21.697,40.219,30.539c37.495,19.281,87.877,29.899,141.865,29.899c54.163,0,104.605-10.617,142.036-29.895
	c17.394-8.958,30.885-19.228,40.099-30.523C466.071,176.281,470.454,165.251,470.454,154.093z"/>
<linearGradient id="SVGID_1_" gradientUnits="userSpaceOnUse" x1="470.4539" y1="310.4739" x2="317.1309" y2="310.4739">
	<stop  offset="0" style="stop-color:#FFFFFF"/>
	<stop  offset="1" style="stop-color:#FFFFFF;stop-opacity:0"/>
</linearGradient>
<path opacity="0.5" fill="url(#SVGID_1_)" enable-background="new    " d="M275.292,262.298c70.949,0,133.207-17.729,171.182-45.109
	l-21.852,236.139l-0.063,0.689v0.692c0,13.675-14.063,27.992-38.585,39.281c-23.032,10.604-52.488,17.353-84.634,19.548
	c-38.848-14.555-55.417-157.11-40.824-251.511C265.398,262.2,270.321,262.298,275.292,262.298z M470.453,107.409
	c-0.01,11.145-4.392,22.162-13.026,32.748c-9.214,11.296-22.705,21.565-40.099,30.523c-36.628,18.866-85.719,29.43-138.56,29.874
	c-6.648,11.893-11.824,27.948-15.602,46.556c4.02,0.12,8.061,0.187,12.125,0.187c54.163,0,104.605-10.617,142.036-29.895
	c17.394-8.958,30.885-19.228,40.099-30.523c8.645-10.598,13.027-21.629,13.027-32.787v-46.649
	C470.454,107.432,470.453,107.421,470.453,107.409z"/>
<path fill="#D3D7CF" d="M133.427,170.677c37.495,19.281,87.877,29.899,141.865,29.899c54.163,0,104.605-10.616,142.036-29.896
	c17.394-8.958,30.885-19.228,40.099-30.523c8.635-10.586,13.017-21.604,13.026-32.749c-0.01-10.636-4.413-21.189-13.089-31.367
	c-9.186-10.776-23.203-21.002-40.537-29.574c-18.188-8.993-39.477-16.076-63.276-21.051c-24.801-5.185-51.131-7.813-78.259-7.813
	h-5.288c-51.568,0-100.052,10.32-136.52,29.06c-16.651,8.556-30.292,18.778-39.449,29.56c-8.607,10.133-13.284,20.612-13.905,31.148
	c0,11.14,4.4,22.165,13.079,32.767C102.324,151.275,116.231,161.835,133.427,170.677z"/>
<g id="g83_1_" transform="translate(-13,-14)" opacity="0.7386" enable-background="new    ">
	<path id="path85_1_" inkscape:connector-curvature="0" opacity="0.7386" enable-background="new    " d="M158.412,309.098
		l11.7,137.653c0,29.726,34.249,30.155,34.249,0l-8.358-137.653C196.003,284.039,158.412,282.146,158.412,309.098z M383.955,309.098
		l-8.356,137.653c8.135,25.418,32.106,20.253,34.247,0l11.7-137.653C421.546,285.456,384.896,285.931,383.955,309.098z
		 M230.776,328.488l5.265,148.419c0,27.142,36.389,24.559,36.814,0l-1.671-148.419C271.184,302.951,231.244,301.529,230.776,328.488
		z M308.775,328.488l-1.673,148.419c0,28.001,38.103,24.989,38.53,0l5.432-148.419C344.488,299.641,312.533,302.481,308.775,328.488
		z"/>
</g>
<linearGradient id="SVGID_2_" gradientUnits="userSpaceOnUse" x1="56.5447" y1="336.1174" x2="211.3167" y2="377.5885">
	<stop  offset="0" style="stop-color:#FFFFFF"/>
	<stop  offset="1" style="stop-color:#FFFFFF;stop-opacity:0"/>
</linearGradient>
<path fill="url(#SVGID_2_)" d="M168.12,247.298L168.12,247.298c-22.783-6.929-42.787-16.003-58.946-26.709l21.537,232.739
	l0.064,0.689v0.692c0,16.258,20.12,33.586,53.799,45.346L168.12,247.298z"/>
<linearGradient id="SVGID_3_" gradientUnits="userSpaceOnUse" x1="177.8923" y1="-22.637" x2="318.3121" y2="202.0816">
	<stop  offset="0" style="stop-color:#FFFFFF"/>
	<stop  offset="1" style="stop-color:#FFFFFF;stop-opacity:0"/>
</linearGradient>
<path fill="url(#SVGID_3_)" d="M399.042,98.696c-38.268,2.749-65.181,7.794-65.181,7.794s-5.216-14.57-15.843-14.092
	c-52.893,2.381-96.595,14.779-96.595,14.779l-5.333-12c0,0,32.099-9.865,80.701-14.732c76.665-7.678,136.925-10.371,154.226-11.035
	c-8.816-8.319-20.457-16.151-34.19-22.942c-18.188-8.993-39.477-16.076-63.276-21.051c-24.801-5.185-51.131-7.813-78.259-7.813
	h-5.288c-51.568,0-100.052,10.32-136.52,29.06c-16.651,8.556-30.292,18.778-39.449,29.56c-8.607,10.133-13.284,20.612-13.905,31.148
	v46.722c0,11.14,4.4,22.165,13.079,32.767c9.116,11.137,23.023,21.697,40.219,30.539c8.74,4.494,18.188,8.511,28.21,12.04v-46.717
	c98.409-45.683,205.223-65.667,308.817-64.268v-11.009c0-3.408-0.457-6.807-1.354-10.188
	C455.608,96.817,429.728,96.491,399.042,98.696z"/>
<path id="path79_1_" inkscape:connector-curvature="0" fill="#383838" d="M275.292,46.735c-64.095,0-69.263,16.256-69.263,37.966
	v15.967c0,9.992,25.844,7.926,25.844,0v-8.27c0-15.162,15.506-18.953,43.419-18.953c27.91,0,42.727,3.791,42.727,18.953v8.27
	c0,7.926,26.19,7.926,26.19,0V84.701C344.209,62.991,338.693,46.735,275.292,46.735z"/>
</svg>
