<?xml version="1.0" encoding="utf-8"?>
<!-- Generator: Adobe Illustrator 16.0.0, SVG Export Plug-In . SVG Version: 6.00 Build 0)  -->
<!DOCTYPE svg PUBLIC "-//W3C//DTD SVG 1.1//EN" "http://www.w3.org/Graphics/SVG/1.1/DTD/svg11.dtd">
<svg version="1.1"
	 id="svg2" xmlns:dc="http://purl.org/dc/elements/1.1/" xmlns:svg="http://www.w3.org/2000/svg" xmlns:cc="http://creativecommons.org/ns#" xmlns:inkscape="http://www.inkscape.org/namespaces/inkscape" xmlns:sodipodi="http://sodipodi.sourceforge.net/DTD/sodipodi-0.dtd" xmlns:rdf="http://www.w3.org/1999/02/22-rdf-syntax-ns#" sodipodi:docname="shield-green.svg" inkscape:export-filename="C:\Users\Yann\Desktop\shield-green.png" inkscape:export-xdpi="4.2538862" inkscape:export-ydpi="4.2538862" inkscape:version="0.48.4 r9939"
	 xmlns="http://www.w3.org/2000/svg" xmlns:xlink="http://www.w3.org/1999/xlink" x="0px" y="0px" width="512.204px"
	 height="531.023px" viewBox="53.762 42.741 512.204 531.023" enable-background="new 53.762 42.741 512.204 531.023"
	 xml:space="preserve">
<path fill="#595959" stroke="#383838" stroke-width="4.6705" d="M487.463,136.43l34.852-40.547
	c9.668-11.249,0.951-28.573-13.844-27.515L245.448,45.351l62.27,256.58c1.176,14.785,19.614,20.802,29.282,9.553l45.802-53.287
	c13.236,16.211,21.179,36.916,21.179,59.478c0,51.977-42.138,94.113-94.113,94.113c-51.979,0-94.115-42.138-94.115-94.113
	c0-23.324,8.489-44.663,22.54-61.105L116.876,152.915c-37.889,44.333-60.778,101.869-60.778,164.76
	c0,140.145,113.615,253.755,253.769,253.755c140.148,0,253.765-113.61,253.765-253.755
	C563.631,246.671,534.465,182.486,487.463,136.43z"/>
<linearGradient id="SVGID_1_" gradientUnits="userSpaceOnUse" x1="71.0979" y1="309.2722" x2="548.6311" y2="309.2722">
	<stop  offset="0.3065" style="stop-color:#8BB300"/>
	<stop  offset="1" style="stop-color:#B2CE0D"/>
</linearGradient>
<path fill="url(#SVGID_1_)" d="M548.631,317.675c0-32.664-6.476-64.312-19.242-94.062c-12.336-28.743-29.976-54.471-52.424-76.468
	l-10.037-9.835l9.16-10.657l34.852-40.546c0.263-0.307,0.703-0.818,0.262-1.781c-0.461-1.003-1.174-1.003-1.441-1.003
	c-0.07,0-0.143,0.002-0.218,0.008l-1.189,0.085l-1.188-0.104L264.951,62.115l57.342,236.278l0.281,1.159l0.095,1.188
	c0.116,1.461,1.407,1.575,1.8,1.575c0.389,0,0.717-0.102,1.153-0.61l45.803-53.287l11.67-13.578l11.324,13.869
	c15.838,19.397,24.56,43.89,24.56,68.965c0,60.166-48.947,109.113-109.113,109.113S200.75,377.841,200.75,317.675
	c0-20.918,6.023-41.314,17.178-58.767l-99.036-84.549c-13.646,18.134-24.576,38.01-32.575,59.261
	c-10.099,26.832-15.219,55.111-15.219,84.055c0,32.237,6.312,63.504,18.757,92.929c12.025,28.43,29.243,53.965,51.175,75.896
	c21.934,21.932,47.47,39.147,75.9,51.173c29.427,12.445,60.695,18.757,92.935,18.757s63.508-6.312,92.935-18.757
	c28.43-12.024,53.966-29.241,75.897-51.174c21.933-21.932,39.15-47.467,51.176-75.896
	C542.32,381.177,548.631,349.912,548.631,317.675z"/>
<linearGradient id="SVGID_2_" gradientUnits="userSpaceOnUse" x1="182.1389" y1="473.5125" x2="375.2814" y2="164.4199" gradientTransform="matrix(1 0 0 -1 -0.0151 531.228)">
	<stop  offset="0" style="stop-color:#FFFFFF"/>
	<stop  offset="1" style="stop-color:#FFFFFF;stop-opacity:0"/>
</linearGradient>
<path fill="url(#SVGID_2_)" d="M545.047,276.426c-43.957-4.766-89.189-5.113-134.441-0.597c-4.036-9.726-9.462-18.885-16.186-27.119
	l-11.324-13.869l-11.67,13.578l-33.479,38.949c-5.791,1.273-11.569,2.644-17.337,4.087l-55.658-229.34l242.21,21.197l1.188,0.104
	l1.189-0.085c0.075-0.006,0.146-0.008,0.218-0.008c0.269,0,0.98,0,1.441,1.003c0.441,0.962,0.001,1.475-0.262,1.781l-34.852,40.546
	l-9.16,10.657l10.037,9.835c22.448,21.998,40.088,47.725,52.424,76.468c7.313,17.038,12.55,34.701,15.699,52.818
	C545.073,276.428,545.06,276.427,545.047,276.426z M89.285,409.205c35.196-29.953,73.156-54.581,112.835-74.271
	c-0.898-5.624-1.37-11.388-1.37-17.26c0-20.918,6.023-41.314,17.178-58.767l-99.036-84.549
	c-13.646,18.134-24.576,38.01-32.575,59.261c-10.099,26.832-15.219,55.111-15.219,84.055
	C71.098,349.403,77.225,380.187,89.285,409.205z"/>
</svg>
