<?xml version="1.0" encoding="utf-8"?>
<!-- Generator: Adobe Illustrator 16.0.0, SVG Export Plug-In . SVG Version: 6.00 Build 0)  -->
<!DOCTYPE svg PUBLIC "-//W3C//DTD SVG 1.1//EN" "http://www.w3.org/Graphics/SVG/1.1/DTD/svg11.dtd">
<svg version="1.1"
	 id="svg2" xmlns:dc="http://purl.org/dc/elements/1.1/" xmlns:svg="http://www.w3.org/2000/svg" xmlns:cc="http://creativecommons.org/ns#" xmlns:inkscape="http://www.inkscape.org/namespaces/inkscape" xmlns:sodipodi="http://sodipodi.sourceforge.net/DTD/sodipodi-0.dtd" xmlns:rdf="http://www.w3.org/1999/02/22-rdf-syntax-ns#" sodipodi:docname="shield-green.svg" inkscape:export-filename="C:\Users\Yann\Desktop\shield-green.png" inkscape:export-xdpi="4.2538862" inkscape:export-ydpi="4.2538862" inkscape:version="0.48.4 r9939"
	 xmlns="http://www.w3.org/2000/svg" xmlns:xlink="http://www.w3.org/1999/xlink" x="0px" y="0px" width="549.174px"
	 height="531.391px" viewBox="0 0 549.174 531.391" enable-background="new 0 0 549.174 531.391" xml:space="preserve">
<path fill="#595959" stroke="#383838" stroke-width="4.6705" d="M547.544,499.654V32.239c0-16.376-13.275-29.652-29.654-29.652
	H32.694C16.316,2.585,3.04,15.863,3.04,32.239v424.078l72.99,72.989h441.858C534.268,529.306,547.544,516.031,547.544,499.654z"/>
<linearGradient id="SVGID_1_" gradientUnits="userSpaceOnUse" x1="18.0413" y1="265.9451" x2="532.5442" y2="265.9451">
	<stop  offset="0" style="stop-color:#415C97"/>
	<stop  offset="1" style="stop-color:#5171B7"/>
</linearGradient>
<path fill="url(#SVGID_1_)" d="M517.889,17.585H32.694c-8.08,0-14.652,6.573-14.652,14.652v417.865l64.205,64.202H517.89
	c8.08,0,14.654-6.572,14.654-14.651V32.239C532.544,24.158,525.969,17.585,517.889,17.585z"/>
<g>
	<rect id="rect2328_1_" x="82.306" y="30.718" fill="#DDDDDD" width="385.974" height="264.615"/>
	<rect x="82.306" y="30.718" fill="#B20000" width="385.972" height="51.462"/>
	<path id="path2336_1_" inkscape:connector-curvature="0" opacity="0.1307" stroke="#000000" enable-background="new    " d="
		M108.035,188.757h334.508"/>
	<path id="path2336_2_" inkscape:connector-curvature="0" opacity="0.1307" stroke="#000000" enable-background="new    " d="
		M108.035,242.045h334.508"/>
	<path id="path2336_3_" inkscape:connector-curvature="0" opacity="0.1307" stroke="#000000" enable-background="new    " d="
		M108.035,135.468h334.508"/>
</g>
<linearGradient id="SVGID_2_" gradientUnits="userSpaceOnUse" x1="90.3655" y1="-32.0964" x2="347.4755" y2="379.3658" gradientTransform="matrix(1 0 0 1 -0.0303 -63.71)">
	<stop  offset="0" style="stop-color:#FFFFFF"/>
	<stop  offset="1" style="stop-color:#FFFFFF;stop-opacity:0"/>
</linearGradient>
<path fill="url(#SVGID_2_)" d="M517.889,17.585H32.694c-8.08,0-14.652,6.573-14.652,14.652v340.094
	C166.899,247.104,357.964,203.825,532.544,220.94V32.239C532.544,24.158,525.969,17.585,517.889,17.585z"/>
<linearGradient id="SVGID_3_" gradientUnits="userSpaceOnUse" x1="188.7727" y1="280.7532" x2="307.9231" y2="572.7219" gradientTransform="matrix(1 0 0 1 -0.0303 -63.71)">
	<stop  offset="0" style="stop-color:#858585"/>
	<stop  offset="0.5" style="stop-color:#CBCBCB"/>
	<stop  offset="1" style="stop-color:#6B6B6B"/>
</linearGradient>
<path fill="url(#SVGID_3_)" d="M401.542,322.804H147.445c-11.434,0-20.631,9.646-20.631,21.659v169.843h295.333V344.463
	C422.149,332.45,412.95,322.804,401.542,322.804z M243.306,464.924c0,5.327-4.324,9.661-9.662,9.661h-45.381
	c-5.342,0-9.663-4.334-9.663-9.661V354.736c0-5.326,4.321-9.648,9.663-9.648h45.381c5.338,0,9.662,4.322,9.662,9.648V464.924z"/>
<linearGradient id="SVGID_4_" gradientUnits="userSpaceOnUse" x1="192.4871" y1="325.0383" x2="294.9031" y2="488.9382" gradientTransform="matrix(1 0 0 1 -0.0303 -63.71)">
	<stop  offset="0" style="stop-color:#FFFFFF"/>
	<stop  offset="1" style="stop-color:#FFFFFF;stop-opacity:0"/>
</linearGradient>
<path fill="url(#SVGID_4_)" d="M401.542,322.804H147.445c-11.434,0-20.631,9.646-20.631,21.659V447.24
	c16.938-10.118,34.222-19.395,51.786-27.828v-64.677c0-5.326,4.321-9.648,9.663-9.648h45.381c5.338,0,9.662,4.322,9.662,9.648
	v37.719c58.298-20.786,118.654-33.314,178.841-38.411v-9.579C422.149,332.45,412.95,322.804,401.542,322.804z"/>
<path id="rect2332_1_" opacity="0.7386" enable-background="new    " d="M45.405,43.318h22.492c0.877,0,1.607,0.724,1.607,1.621
	v22.482c0,0.898-0.73,1.627-1.607,1.627H45.405c-0.9,0-1.633-0.729-1.633-1.627V44.939C43.772,44.039,44.503,43.318,45.405,43.318z"
	/>
</svg>
