<?xml version="1.0" encoding="utf-8"?>
<!-- Generator: Adobe Illustrator 16.0.0, SVG Export Plug-In . SVG Version: 6.00 Build 0)  -->
<!DOCTYPE svg PUBLIC "-//W3C//DTD SVG 1.1//EN" "http://www.w3.org/Graphics/SVG/1.1/DTD/svg11.dtd">
<svg version="1.1"
	 id="svg2" xmlns:dc="http://purl.org/dc/elements/1.1/" xmlns:cc="http://creativecommons.org/ns#" xmlns:rdf="http://www.w3.org/1999/02/22-rdf-syntax-ns#" xmlns:svg="http://www.w3.org/2000/svg" xmlns:sodipodi="http://sodipodi.sourceforge.net/DTD/sodipodi-0.dtd" xmlns:inkscape="http://www.inkscape.org/namespaces/inkscape" inkscape:export-ydpi="4.2538862" inkscape:export-xdpi="4.2538862" inkscape:export-filename="C:\Users\Yann\Desktop\shield-green.png" inkscape:version="0.48.4 r9939" sodipodi:docname="shield-green.svg"
	 xmlns="http://www.w3.org/2000/svg" xmlns:xlink="http://www.w3.org/1999/xlink" x="0px" y="0px" width="530.204px"
	 height="531.202px" viewBox="-66.035 0.243 530.204 531.202" enable-background="new -66.035 0.243 530.204 531.202"
	 xml:space="preserve">
<g>
	<path fill="#595959" d="M460.868,462.377l-10.479-10.481L305.23,306.737l-10.419-10.421l-8.763,8.664
		c-1.854-0.65-3.764-1.16-5.705-1.522L265.69,288.8c0.533-3.09,0.802-6.245,0.802-9.448c0-9.679-2.648-19.144-7.589-27.477
		C271.423,227.707,278,200.777,278,173.393c0-23.059-4.523-45.435-13.439-66.505c-8.608-20.344-20.929-38.61-36.621-54.292
		c-15.688-15.679-33.962-27.991-54.313-36.594c-21.075-8.909-43.452-13.425-66.511-13.425h-0.002
		c-23.059,0-45.434,4.518-66.5,13.426C20.269,24.606,2.003,36.918-13.678,52.6c-15.681,15.681-27.994,33.947-36.596,54.292
		c-8.909,21.068-13.427,43.442-13.427,66.501s4.518,45.433,13.427,66.501c8.602,20.345,20.915,38.611,36.596,54.292
		s33.948,27.994,54.292,36.597c21.067,8.91,43.441,13.427,66.5,13.427c26.697,0,53.027-6.262,76.744-18.181
		c8.45,5.13,18.125,7.878,28.079,7.878c2.519,0,5.03-0.175,7.52-0.523l15.889,15.89c0.343,1.686,0.795,3.347,1.353,4.967
		l-7.726,7.727l10.48,10.479L384.681,517.67l10.476,10.477l7.893-7.889c4.509,1.811,9.355,2.758,14.32,2.758
		c21.336,0,38.698-17.392,38.698-38.77c0-4.968-0.946-9.812-2.751-14.318L460.868,462.377z M189.605,305.919
		c-54.025,34.966-129.164,30.212-179.185-9.91c-47.952-36.967-69.785-103.163-54.464-161.57
		c16.223-67.278,81.96-118.2,151.085-117.042h-0.004c12.688,0.029,25.401,1.613,37.717,4.665
		c60.354,14.053,108.1,67.625,116.642,128.847C270.988,210.901,241.04,274.099,189.605,305.919z"/>
	<path fill="#383838" d="M395.156,531.446L225.673,361.966l8.365-8.366c-0.317-1.042-0.596-2.101-0.832-3.167l-14.588-14.589
		c-2.212,0.264-4.454,0.396-6.681,0.396c-9.875,0-19.588-2.61-28.175-7.557c-23.699,11.687-50.173,17.858-76.648,17.858
		c-23.375,0-46.056-4.58-67.41-13.611c-20.622-8.719-39.137-21.2-55.033-37.095c-15.895-15.896-28.375-34.411-37.095-55.033
		c-9.031-21.358-13.611-44.038-13.611-67.411c0-23.372,4.58-46.053,13.611-67.41c8.72-20.622,21.2-39.138,37.095-55.033
		c15.894-15.894,34.41-28.375,55.033-37.096c21.357-9.031,44.037-13.611,67.41-13.611c23.375,0,46.06,4.579,67.422,13.61
		c20.628,8.72,39.152,21.2,55.054,37.092c15.905,15.895,28.395,34.41,37.12,55.032c9.039,21.362,13.624,44.043,13.624,67.415
		c0,27.171-6.489,54.256-18.774,78.416c4.757,8.456,7.266,17.951,7.266,27.543c0,2.907-0.216,5.809-0.642,8.643l13.306,13.31
		c1.322,0.271,2.64,0.61,3.934,1.013l9.397-9.291l169.349,169.352l-8.137,8.136c1.572,4.402,2.368,9.015,2.368,13.733
		c0,22.664-18.407,41.103-41.031,41.103c-4.724,0-9.337-0.797-13.739-2.373L395.156,531.446z M232.272,361.966l162.885,162.881
		l7.331-7.327l1.429,0.573c4.28,1.717,8.806,2.589,13.452,2.589c20.051,0,36.365-16.346,36.365-36.436
		c0-4.644-0.87-9.169-2.584-13.451l-0.572-1.429l6.99-6.989l-162.768-162.77l-8.148,8.058l-1.376-0.482
		c-1.746-0.612-3.549-1.094-5.361-1.432l-0.711-0.133l-16.02-16.024l0.206-1.191c0.509-2.95,0.767-5.996,0.767-9.051
		c0-9.184-2.511-18.272-7.263-26.287l-0.66-1.114l0.595-1.15c12.323-23.786,18.835-50.553,18.835-77.408
		c0-22.743-4.458-44.813-13.253-65.596c-8.491-20.065-20.644-38.082-36.122-53.55c-15.475-15.466-33.5-27.61-53.572-36.095
		c-20.785-8.787-42.856-13.242-65.602-13.242c-22.748,0-44.816,4.455-65.595,13.242c-20.067,8.485-38.083,20.63-53.55,36.097
		c-15.469,15.468-27.613,33.485-36.097,53.55c-8.787,20.779-13.242,42.848-13.242,65.592c0,22.745,4.455,44.813,13.242,65.592
		c8.484,20.066,20.628,38.083,36.097,53.55c15.468,15.469,33.484,27.612,53.55,36.099c20.776,8.786,42.845,13.24,65.592,13.24
		c26.178,0,52.353-6.2,75.697-17.931l1.153-0.579l1.104,0.67c8.126,4.932,17.417,7.539,26.868,7.539c2.402,0,4.823-0.169,7.196-0.5
		l1.151-0.161l17.207,17.207l0.141,0.688c0.322,1.583,0.75,3.156,1.273,4.673l0.475,1.378L232.272,361.966z"/>
</g>
<g>
	<linearGradient id="SVGID_1_" gradientUnits="userSpaceOnUse" x1="295.6252" y1="419.0188" x2="351.5426" y2="363.1014">
		<stop  offset="0" style="stop-color:#858585"/>
		<stop  offset="0.5" style="stop-color:#CBCBCB"/>
		<stop  offset="1" style="stop-color:#6B6B6B"/>
	</linearGradient>
	<path fill="url(#SVGID_1_)" d="M241.154,252.723c-12.647,21.473-30.257,40.023-51.549,53.196c-1.441,0.934-2.899,1.832-4.37,2.708
		c7.059,6.441,16.393,10.46,26.702,10.46c4.263,0,8.39-0.697,12.241-1.941l25.217,25.22c0.201,5.531,2.229,10.619,5.554,14.582
		l145.895,144.56c4.29,4.107,10.116,6.69,16.525,6.69c13.189,0,23.88-10.756,23.88-23.951c0-6.426-2.565-12.229-6.693-16.523
		L288.663,323.236c-4.092-3.444-9.376-5.54-15.119-5.619l-24.348-24.351c1.623-4.334,2.475-9.013,2.475-13.914
		c0-10.204-3.979-19.389-10.301-26.423L241.154,252.723z"/>
	<linearGradient id="SVGID_2_" gradientUnits="userSpaceOnUse" x1="322.5442" y1="434.5803" x2="367.3305" y2="389.794">
		<stop  offset="0" style="stop-color:#966D2C"/>
		<stop  offset="1" style="stop-color:#C1842B"/>
	</linearGradient>
	<polygon fill="url(#SVGID_2_)" points="294.751,317.215 439.91,462.375 395.158,507.192 249.93,361.966 	"/>
</g>
<radialGradient id="SVGID_3_" cx="104.803" cy="201.7942" r="261.8902" gradientTransform="matrix(0.9985 -0.0026 -0.0025 -0.9844 0.975 528.5883)" gradientUnits="userSpaceOnUse">
	<stop  offset="0" style="stop-color:#D5F6FF"/>
	<stop  offset="1" style="stop-color:#0098BE"/>
</radialGradient>
<path opacity="0.4038" fill="url(#SVGID_3_)" enable-background="new    " d="M107.041,17.396h-0.004
	c12.688,0.029,25.401,1.613,37.717,4.665c60.354,14.053,108.1,67.625,116.642,128.847c9.591,59.993-20.356,123.19-71.792,155.011
	c-54.025,34.966-129.164,30.212-179.185-9.91c-47.952-36.967-69.785-103.163-54.464-161.57
	C-27.822,67.16,37.916,16.239,107.041,17.396"/>
<linearGradient id="SVGID_4_" gradientUnits="userSpaceOnUse" x1="9.2434" y1="16.74" x2="126.3643" y2="204.1726">
	<stop  offset="0" style="stop-color:#FFFFFF"/>
	<stop  offset="1" style="stop-color:#FFFFFF;stop-opacity:0"/>
</linearGradient>
<path fill="url(#SVGID_4_)" d="M-44.044,134.439c-9.975,38.029-4.188,79.353,14.291,113.768
	c87.772-61.905,186.701-99.525,287.164-116.377c-14.775-53.003-58.669-97.197-112.656-109.768
	c-12.315-3.052-25.029-4.636-37.717-4.665h0.004C37.916,16.239-27.822,67.16-44.044,134.439z"/>
</svg>
