<?xml version="1.0" encoding="utf-8"?>
<!-- Generator: Adobe Illustrator 16.0.0, SVG Export Plug-In . SVG Version: 6.00 Build 0)  -->
<!DOCTYPE svg PUBLIC "-//W3C//DTD SVG 1.1//EN" "http://www.w3.org/Graphics/SVG/1.1/DTD/svg11.dtd">
<svg version="1.1" id="Ebene_1" xmlns="http://www.w3.org/2000/svg" xmlns:xlink="http://www.w3.org/1999/xlink" x="0px" y="0px"
	 width="595.279px" height="595.281px" viewBox="0 0 595.279 595.281" enable-background="new 0 0 595.279 595.281"
	 xml:space="preserve">
<g>
	
		<linearGradient id="SVGID_1_" gradientUnits="userSpaceOnUse" x1="90.0403" y1="90.9309" x2="505.3108" y2="506.2014" gradientTransform="matrix(1 0 0 1 -0.0352 -0.9258)">
		<stop  offset="0" style="stop-color:#FDC332"/>
		<stop  offset="0.1978" style="stop-color:#EBB026"/>
		<stop  offset="0.7173" style="stop-color:#C4870D"/>
		<stop  offset="1" style="stop-color:#B77902"/>
	</linearGradient>
	<path display="none" fill="url(#SVGID_1_)" d="M297.64,591.281c-78.435,0-152.175-30.545-207.636-86.006S4,376.074,4,297.64
		c0-78.435,30.544-152.175,86.005-207.636S219.206,4,297.64,4c78.434,0,152.173,30.544,207.635,86.005
		c55.461,55.461,86.005,129.201,86.005,207.636c0,78.434-30.544,152.174-86.005,207.635
		C449.813,560.736,376.073,591.281,297.64,591.281z"/>
	<path fill="#0C7CAD" d="M297.64,0C133.258,0,0,133.258,0,297.64S133.258,595.281,297.64,595.281
		c164.382,0,297.64-133.258,297.64-297.641S462.022,0,297.64,0z M467.798,467.799c-22.102,22.102-47.838,39.454-76.49,51.573
		c-29.663,12.548-61.18,18.908-93.667,18.908c-32.488,0-64.003-6.36-93.667-18.908c-28.654-12.119-54.391-29.473-76.492-51.573
		c-22.104-22.102-39.455-47.837-51.575-76.49C63.362,361.643,57,330.13,57,297.64s6.362-64.003,18.908-93.667
		c12.12-28.654,29.472-54.391,51.574-76.492c22.103-22.103,47.838-39.454,76.492-51.575C233.636,63.362,265.152,57,297.64,57
		c32.487,0,64.004,6.362,93.667,18.908c28.652,12.121,54.39,29.472,76.49,51.574c22.103,22.103,39.454,47.838,51.573,76.492
		c12.547,29.664,18.908,61.178,18.908,93.667c0,32.488-6.361,64.003-18.908,93.667C507.252,419.962,489.9,445.698,467.798,467.799z"
		/>
</g>
<g display="none">
	<path display="inline" fill="#0C7CAD" d="M332.471,453.656c-3.021,28.039-25.362,44.941-56.383,41.601
		c-26.249-2.828-46.924-23.767-43.967-51.205c3.021-28.041,26.813-47.201,56.64-43.986
		C318.588,403.278,335.428,426.215,332.471,453.656z M375.852,107.105c-9.787,46.017-42.158,195.209-54.488,253.625
		c-12.978,2.826-51.543,2.291-59.895,1.391c-0.229-9.075-1.452-98.521-1.718-118.467c-0.219-25.974-2.066-104.021-4.222-134.428
		c23.845-2.861,101.957-5.308,119.854-3.378C375.979,105.912,375.914,106.509,375.852,107.105z"/>
</g>
<g>
	<path fill="#0C7CAD" d="M335.562,318.781c-5.65,2.393-10.243,6.097-10.688,10.245c-0.889,8.296-1.565,20.212-2.029,35.746
		c-12.36,3.472-35.449,6.394-63.493,5.188c-7.493-13.989-17.759-46.856-15.94-69.438c66.2-36.069,95.215-55.14,99.657-96.622
		c2.855-26.668-13.865-44.042-33.421-46.136c-9.481-1.016-19.153-0.254-26.836,4.318c-2.561,1.523-3.873,2.582-4.847,6.074
		l-19.426,47.07c-20.551-3.998-41.63-8.653-60.276-13.647c5.606-29.969,10.811-61.779,16.608-93.525
		c24.318-8.785,75.641-12.28,121.864-7.33c74.076,7.933,122.143,46.047,115.733,105.899
		C446.312,264.107,403.71,292.512,335.562,318.781z M330.385,456.689c-2.792,26.074-24.908,42.287-55.723,38.987
		c-24.89-2.665-46.097-22.918-43.305-48.993c2.792-26.074,26.474-45.717,56.104-42.544
		C315.906,407.186,333.431,428.244,330.385,456.689z"/>
</g>
</svg>
