<?xml version="1.0" encoding="UTF-8" standalone="no"?>
<svg
   xmlns:dc="http://purl.org/dc/elements/1.1/"
   xmlns:cc="http://creativecommons.org/ns#"
   xmlns:rdf="http://www.w3.org/1999/02/22-rdf-syntax-ns#"
   xmlns:svg="http://www.w3.org/2000/svg"
   xmlns="http://www.w3.org/2000/svg"
   xmlns:sodipodi="http://sodipodi.sourceforge.net/DTD/sodipodi-0.dtd"
   xmlns:inkscape="http://www.inkscape.org/namespaces/inkscape"
   inkscape:version="1.1-dev (ddb55ca, 2020-02-02)"
   height="239.451"
   width="512"
   sodipodi:docname="email-3.svg"
   xml:space="preserve"
   viewBox="0 0 512 239.451"
   y="0px"
   x="0px"
   id="Capa_1"
   version="1.1"><metadata
   id="metadata61"><rdf:RDF><cc:Work
       rdf:about=""><dc:format>image/svg+xml</dc:format><dc:type
         rdf:resource="http://purl.org/dc/dcmitype/StillImage" /></cc:Work></rdf:RDF></metadata><defs
   id="defs59" /><sodipodi:namedview
   inkscape:current-layer="Capa_1"
   inkscape:window-maximized="0"
   inkscape:window-y="383"
   inkscape:window-x="0"
   inkscape:cy="119.725"
   inkscape:cx="256"
   inkscape:zoom="1.1328125"
   showgrid="false"
   id="namedview57"
   inkscape:window-height="801"
   inkscape:window-width="1445"
   inkscape:pageshadow="2"
   inkscape:pageopacity="0"
   guidetolerance="10"
   gridtolerance="10"
   objecttolerance="10"
   borderopacity="1"
   bordercolor="#666666"
   pagecolor="#ffffff" />
<path
   inkscape:connector-curvature="0"
   id="path10"
   d="M 488.468,231.952 H 183.855 c -8.854,0 -16.032,-7.178 -16.032,-16.032 V 23.531 c 0,-8.854 7.178,-16.032 16.032,-16.032 h 304.613 c 8.854,0 16.032,7.178 16.032,16.032 v 192.387 c 0,8.855 -7.178,16.034 -16.032,16.034 z"
   style="fill:#ffe1a0" />
<path
   inkscape:connector-curvature="0"
   id="path12"
   d="m 183.855,231.952 h 304.613 c 8.854,0 16.032,-7.178 16.032,-16.032 v -192.389 0 L 370.512,127.264 c -20.224,15.657 -48.477,15.657 -68.702,0 L 167.823,23.531 v 0 192.387 c 0,8.855 7.178,16.034 16.032,16.034 z"
   style="fill:#f7d291" />
<path
   inkscape:connector-curvature="0"
   id="path14"
   d="m 336.161,139.486 c -11.729,0 -23.457,-3.788 -33.243,-11.364 L 167.822,23.532 v 30.413 l 120.374,93.193 c 13.657,10.574 30.692,16.397 47.965,16.397 17.273,0 34.307,-5.823 47.965,-16.397 L 504.5,53.944 V 23.531 l -135.096,104.59 c -9.785,7.577 -21.514,11.365 -33.243,11.365 z"
   style="fill:#f0c382" />
<path
   inkscape:connector-curvature="0"
   id="path16"
   d="M 488.468,0 H 183.855 c -12.976,0 -23.532,10.557 -23.532,23.532 v 192.387 c 0,12.976 10.557,23.532 23.532,23.532 h 304.613 c 12.976,0 23.532,-10.557 23.532,-23.532 V 23.532 C 512,10.556 501.443,0 488.468,0 Z M 183.855,15 h 304.613 c 3.575,0 6.639,2.212 7.906,5.338 L 364.812,122.192 c -16.869,13.06 -40.434,13.06 -57.303,0 L 175.949,20.338 C 177.216,17.212 180.28,15 183.855,15 Z M 488.468,224.452 H 183.855 c -3.575,0 -6.639,-2.212 -7.906,-5.338 l 92.658,-71.736 c 3.275,-2.536 3.875,-7.247 1.339,-10.522 -2.536,-3.275 -7.246,-3.875 -10.522,-1.339 l -84.102,65.111 V 38.824 l 123.004,95.229 c 11.138,8.623 24.486,12.935 37.834,12.935 13.348,0 26.696,-4.312 37.834,-12.935 L 497,38.824 v 161.803 l -84.102,-65.111 c -3.275,-2.535 -7.986,-1.936 -10.522,1.339 -2.536,3.275 -1.936,7.986 1.339,10.522 l 92.658,71.736 c -1.267,3.125 -4.33,5.339 -7.905,5.339 z" />
<path
   inkscape:connector-curvature="0"
   id="path18"
   d="M 135.758,136.273 H 39.564 c -4.142,0 -7.5,3.358 -7.5,7.5 0,4.142 3.358,7.5 7.5,7.5 h 96.194 c 4.142,0 7.5,-3.358 7.5,-7.5 0,-4.142 -3.358,-7.5 -7.5,-7.5 z" />
<path
   inkscape:connector-curvature="0"
   id="path20"
   d="M 135.758,176.354 H 7.5 c -4.142,0 -7.5,3.358 -7.5,7.5 0,4.142 3.358,7.5 7.5,7.5 h 128.258 c 4.142,0 7.5,-3.358 7.5,-7.5 0,-4.142 -3.358,-7.5 -7.5,-7.5 z" />
<path
   inkscape:connector-curvature="0"
   id="path22"
   d="M 135.758,96.194 H 71.629 c -4.142,0 -7.5,3.358 -7.5,7.5 0,4.142 3.358,7.5 7.5,7.5 h 64.129 c 4.142,0 7.5,-3.358 7.5,-7.5 0,-4.142 -3.358,-7.5 -7.5,-7.5 z" />
<path
   inkscape:connector-curvature="0"
   id="path24"
   d="m 135.758,56.112 h -32.065 c -4.142,0 -7.5,3.358 -7.5,7.5 0,4.142 3.358,7.5 7.5,7.5 h 32.065 c 4.142,0 7.5,-3.358 7.5,-7.5 0,-4.142 -3.358,-7.5 -7.5,-7.5 z" />
<g
   transform="translate(0,-136.275)"
   id="g26">
</g>
<g
   transform="translate(0,-136.275)"
   id="g28">
</g>
<g
   transform="translate(0,-136.275)"
   id="g30">
</g>
<g
   transform="translate(0,-136.275)"
   id="g32">
</g>
<g
   transform="translate(0,-136.275)"
   id="g34">
</g>
<g
   transform="translate(0,-136.275)"
   id="g36">
</g>
<g
   transform="translate(0,-136.275)"
   id="g38">
</g>
<g
   transform="translate(0,-136.275)"
   id="g40">
</g>
<g
   transform="translate(0,-136.275)"
   id="g42">
</g>
<g
   transform="translate(0,-136.275)"
   id="g44">
</g>
<g
   transform="translate(0,-136.275)"
   id="g46">
</g>
<g
   transform="translate(0,-136.275)"
   id="g48">
</g>
<g
   transform="translate(0,-136.275)"
   id="g50">
</g>
<g
   transform="translate(0,-136.275)"
   id="g52">
</g>
<g
   transform="translate(0,-136.275)"
   id="g54">
</g>
</svg>
