<?xml version="1.0" encoding="utf-8"?>
<!-- Generator: Adobe Illustrator 16.0.0, SVG Export Plug-In . SVG Version: 6.00 Build 0)  -->
<!DOCTYPE svg PUBLIC "-//W3C//DTD SVG 1.1//EN" "http://www.w3.org/Graphics/SVG/1.1/DTD/svg11.dtd">
<svg version="1.1"
	 id="svg2" xmlns:dc="http://purl.org/dc/elements/1.1/" xmlns:cc="http://creativecommons.org/ns#" xmlns:rdf="http://www.w3.org/1999/02/22-rdf-syntax-ns#" xmlns:svg="http://www.w3.org/2000/svg" xmlns:sodipodi="http://sodipodi.sourceforge.net/DTD/sodipodi-0.dtd" xmlns:inkscape="http://www.inkscape.org/namespaces/inkscape" sodipodi:version="0.32" inkscape:version="0.48.4 r9939" inkscape:export-filename="/home/barret/Desktop/house.png" sodipodi:docname="barretr-House.svg" inkscape:output_extension="org.inkscape.output.svg.inkscape" inkscape:export-xdpi="90" inkscape:export-ydpi="90" sodipodi:modified="TRUE"
	 xmlns="http://www.w3.org/2000/svg" xmlns:xlink="http://www.w3.org/1999/xlink" x="0px" y="0px" width="631.605px" height="617px"
	 viewBox="118.596 29.951 631.605 617" enable-background="new 118.596 29.951 631.605 617" xml:space="preserve">
<path fill="#FFFFFF" stroke="#C8C8C8" stroke-width="4.6705" d="M688.829,323.157L445.016,77.466L434.4,66.767l-10.618,10.699
	L294.445,207.799v-78.445c0-2.139-0.442-4.191-1.229-6.047c-0.787-1.855-1.893-3.552-3.295-4.953
	c-1.412-1.414-3.097-2.47-4.953-3.258c-1.867-0.786-3.908-1.277-6.059-1.277h-51.386v-0.001c-2.14,0-4.143,0.492-6.011,1.278
	c-1.855,0.788-3.539,1.844-4.941,3.258c-1.412,1.401-2.52,3.097-3.305,4.953c-0.787,1.856-1.229,3.908-1.229,6.047v161.487
	l-32.065,32.312c-5.938,5.985-9.206,13.854-9.206,22.152v0.002c0,8.122,3.056,15.869,8.61,21.813
	c5.979,6.399,14.162,9.924,23.04,9.924h9.621v194.31c0,13.216,10.713,23.929,23.931,23.929h34.975h356.582
	c13.22,0,23.934-10.713,23.934-23.93V377.043h14.925c8.879,0,17.061-3.524,23.039-9.924c5.552-5.943,8.609-13.688,8.609-21.813
	C698.032,337.009,694.766,329.14,688.829,323.157z"/>
<linearGradient id="SVGID_1_" gradientUnits="userSpaceOnUse" x1="224.1604" y1="243.8767" x2="639.3689" y2="243.8767" gradientTransform="matrix(1 0 0 -1 -0.0151 594.98)">
	<stop  offset="0" style="stop-color:#B4BBCC"/>
	<stop  offset="1" style="stop-color:#DFE2EA"/>
</linearGradient>
<path fill="url(#SVGID_1_)" d="M434.399,119.033L224.145,331.024v240.324c0,6.521,5.307,11.825,11.827,11.825h39.989h351.565
	c6.521,0,11.826-5.304,11.826-11.824V331.024L434.399,119.033z"/>
<path fill="#AA0000" d="M680.013,331.823L434.399,86.209L281.578,238.651l0.762-1.468v-29.384v-78.445
	c0-0.457-0.091-0.903-0.27-1.324c-0.193-0.456-0.445-0.854-0.707-1.117c-0.225-0.224-0.613-0.457-1.121-0.673
	c-0.488-0.206-0.947-0.316-1.332-0.316h-51.386c-0.354,0-0.794,0.11-1.313,0.328c-0.634,0.269-0.928,0.508-1.044,0.625l-0.035,0.036
	l-0.037,0.036c-0.25,0.25-0.494,0.633-0.684,1.081c-0.178,0.421-0.269,0.867-0.269,1.324v161.487v4.987l0.188-0.074l-36.158,36.069
	c-7.449,7.447-7.449,19.524,0,26.973c7.447,7.448,19.523,7.448,26.972,0l218.948-218.947l218.947,218.947
	c7.448,7.448,19.523,7.448,26.973,0C687.461,351.347,687.461,339.27,680.013,331.823z"/>
<linearGradient id="path4557_1_" gradientUnits="userSpaceOnUse" x1="379.196" y1="-38.1467" x2="379.196" y2="101.7234" gradientTransform="matrix(1.6783 0 0 -1.6783 -201.8722 517.3646)">
	<stop  offset="0" style="stop-color:#6A8FC6"/>
	<stop  offset="1" style="stop-color:#97B9EC"/>
</linearGradient>
<path id="path4557" sodipodi:nodetypes="cccsssccssscc" fill="url(#path4557_1_)" d="M524.088,583.174H344.98V362.168
	c0-2.151,0.441-4.19,1.228-6.047s1.893-3.54,3.294-4.941c1.414-1.413,3.098-2.507,4.953-3.293c1.855-0.787,3.896-1.241,6.047-1.241
	h148.062c2.152,0,4.192,0.454,6.049,1.241c1.854,0.786,3.538,1.88,4.939,3.293c1.414,1.401,2.521,3.085,3.308,4.941
	c0.785,1.856,1.229,3.896,1.229,6.047V583.174z"/>
<path id="path3431" sodipodi:cx="403.57141" sodipodi:cy="568.07648" sodipodi:type="arc" sodipodi:ry="14.285714" sodipodi:rx="14.285714" fill="#4C4C4C" d="
	M511.968,464.909c0,10.687-8.662,19.349-19.349,19.349c-10.686,0-19.349-8.662-19.349-19.349c0-10.686,8.663-19.349,19.349-19.349
	C503.305,445.56,511.968,454.223,511.968,464.909z"/>
<linearGradient id="SVGID_2_" gradientUnits="userSpaceOnUse" x1="233.7893" y1="50.5432" x2="477.6382" y2="440.7831">
	<stop  offset="0" style="stop-color:#FFFFFF"/>
	<stop  offset="1" style="stop-color:#FFFFFF;stop-opacity:0"/>
</linearGradient>
<path fill="url(#SVGID_2_)" d="M224.148,468.6C356.443,357.305,526.1,318.559,681.374,333.341c-0.425-0.522-0.875-1.031-1.36-1.518
	L434.399,86.209L281.578,238.651l0.762-1.468v-29.384v-78.445c0-0.457-0.091-0.903-0.27-1.324c-0.193-0.456-0.445-0.854-0.707-1.117
	c-0.225-0.224-0.613-0.457-1.121-0.673c-0.488-0.206-0.947-0.316-1.332-0.316h-51.386c-0.354,0-0.794,0.11-1.313,0.328
	c-0.634,0.269-0.928,0.508-1.044,0.625l-0.035,0.036l-0.037,0.036c-0.25,0.25-0.494,0.633-0.684,1.081
	c-0.178,0.421-0.269,0.867-0.269,1.324v161.487v4.987l0.188-0.074l-36.158,36.069c-7.449,7.447-7.449,19.524,0,26.973
	c7.447,7.448,19.523,7.448,26.972,0l9-9v118.8L224.148,468.6z"/>
<path opacity="0.3" fill="#AA0000" d="M680.013,331.823L434.399,86.209L281.578,238.651l0.762-1.468v-29.384v-78.445
	c0-0.457-0.091-0.903-0.27-1.324c-0.193-0.456-0.445-0.854-0.707-1.117c-0.225-0.224-0.613-0.457-1.121-0.673
	c-0.488-0.206-0.947-0.316-1.332-0.316h-51.386c-0.354,0-0.794,0.11-1.313,0.328c-0.634,0.269-0.928,0.508-1.044,0.625l-0.035,0.036
	l-0.037,0.036c-0.25,0.25-0.494,0.633-0.684,1.081c-0.178,0.421-0.269,0.867-0.269,1.324v161.487v4.987l0.188-0.074l-36.158,36.069
	c-7.449,7.447-7.449,19.524,0,26.973c7.447,7.448,19.523,7.448,26.972,0l218.948-218.947l218.947,218.947
	c7.448,7.448,19.523,7.448,26.973,0C687.461,351.347,687.461,339.27,680.013,331.823z"/>
</svg>
