<?xml version="1.0" encoding="utf-8"?>
<!-- Generator: Adobe Illustrator 16.0.0, SVG Export Plug-In . SVG Version: 6.00 Build 0)  -->
<!DOCTYPE svg PUBLIC "-//W3C//DTD SVG 1.1//EN" "http://www.w3.org/Graphics/SVG/1.1/DTD/svg11.dtd">
<svg version="1.1" id="Ebene_1" xmlns="http://www.w3.org/2000/svg" xmlns:xlink="http://www.w3.org/1999/xlink" x="0px" y="0px"
	 width="577.99px" height="615.928px" viewBox="0 0 577.99 615.928" enable-background="new 0 0 577.99 615.928"
	 xml:space="preserve">
<filter  id="NewFilter">
	<feGaussianBlur  stdDeviation="12" result="blur"></feGaussianBlur>
	<feMerge>
		<feMergeNode  in="blur"></feMergeNode>
	</feMerge>
</filter>
<image overflow="visible" filter="url(#NewFilter)" enable-background="new    " width="356" height="637" xlink:href="A5C15198.png"  transform="matrix(0.9981 0 0 0.9981 -12.2605 -52.6453)">
</image>
<image overflow="visible" filter="url(#NewFilter)" enable-background="new    " width="297" height="531" xlink:href="A5C15199.png"  transform="matrix(0.9978 0 0 0.9978 264.1467 0.3547)">
</image>
<image overflow="visible" filter="url(#NewFilter)" enable-background="new    " width="297" height="531" xlink:href="A5C1519B.png"  transform="matrix(0.9978 0 0 0.9978 140.7444 86.3997)">
</image>
<g>
	<path fill="#FFFFFF" stroke="#C8C8C8" stroke-width="5" d="M241.246,120.094c0,41.783-33.871,75.654-75.655,75.654
		s-75.655-33.872-75.655-75.654c0-41.784,33.871-75.656,75.655-75.656S241.246,78.31,241.246,120.094z M42.188,369.484
		c0,86.716,46.042,116.728,123.403,116.728c77.355,0,123.404-30.012,123.404-116.728c0-77.354-68.376-163.42-123.404-163.42
		C110.555,206.064,42.188,292.131,42.188,369.484z"/>
	<g>
		<path fill="#DD364A" d="M272.995,369.484c0-32.469-14.112-70.213-37.75-100.967c-11.012-14.324-23.436-26.225-35.929-34.416
			c-12.009-7.875-23.67-12.037-33.724-12.037c-10.056,0-21.718,4.162-33.726,12.037c-12.496,8.192-24.919,20.092-35.929,34.416
			c-23.638,30.751-37.75,68.495-37.75,100.967c0,37.186,8.886,62.957,27.165,78.786c17.048,14.764,43.294,21.94,80.238,21.94
			c36.941,0,63.187-7.177,80.237-21.94C264.109,432.44,272.995,406.668,272.995,369.484z"/>
		<path fill="#DD364A" d="M165.591,179.748c32.894,0,59.655-26.761,59.655-59.654c0-32.895-26.761-59.656-59.655-59.656
			s-59.655,26.762-59.655,59.656C105.936,152.988,132.697,179.748,165.591,179.748z"/>
	</g>
	<g>
		
			<linearGradient id="SVGID_1_" gradientUnits="userSpaceOnUse" x1="124.9036" y1="562.2942" x2="175.7827" y2="480.8706" gradientTransform="matrix(1 0 0 -1 -0.0151 615.6274)">
			<stop  offset="0" style="stop-color:#FFFFFF"/>
			<stop  offset="1" style="stop-color:#FFFFFF;stop-opacity:0"/>
		</linearGradient>
		<path fill="url(#SVGID_1_)" d="M103.446,141.229c37.467-27.991,83.239-38.596,126.1-35.929
			c-6.73-29.099-32.84-50.862-63.954-50.862c-36.202,0-65.655,29.453-65.655,65.656C99.936,127.487,101.183,134.591,103.446,141.229
			z"/>
		
			<linearGradient id="SVGID_2_" gradientUnits="userSpaceOnUse" x1="91.8577" y1="387.3167" x2="173.3519" y2="256.8985" gradientTransform="matrix(1 0 0 -1 -0.0151 615.6274)">
			<stop  offset="0" style="stop-color:#FFFFFF"/>
			<stop  offset="1" style="stop-color:#FFFFFF;stop-opacity:0"/>
		</linearGradient>
		<path fill="url(#SVGID_2_)" d="M265.245,307.94c-6.438-15.028-14.966-29.706-25.245-43.079
			c-11.414-14.849-24.347-27.221-37.396-35.777c-12.988-8.518-25.788-13.02-37.014-13.02c-11.229,0-24.027,4.502-37.018,13.02
			c-13.051,8.557-25.98,20.929-37.395,35.777C67.31,295.911,52.854,333.98,52.217,367.2
			C115.89,321.045,192.96,303.503,265.245,307.94z"/>
	</g>
</g>
<g>
	<path fill="#FFFFFF" stroke="#C8C8C8" stroke-width="5" d="M488.054,120.094c0,41.783-33.871,75.654-75.656,75.654
		c-41.783,0-75.653-33.872-75.653-75.654c0-41.784,33.87-75.656,75.653-75.656C454.183,44.438,488.054,78.31,488.054,120.094z
		 M288.995,369.484c0,86.716,46.041,116.728,123.401,116.728c77.357,0,123.404-30.012,123.404-116.728
		c0-77.354-68.375-163.42-123.404-163.42C357.362,206.064,288.995,292.131,288.995,369.484z"/>
	<g>
		<path fill="#60DF33" d="M412.397,179.748c32.895,0,59.656-26.761,59.656-59.654c0-32.895-26.762-59.656-59.656-59.656
			c-32.893,0-59.653,26.762-59.653,59.656C352.743,152.988,379.504,179.748,412.397,179.748z"/>
		<path fill="#60DF33" d="M519.802,369.484c0-32.47-14.112-70.214-37.75-100.966c-11.011-14.324-23.436-26.225-35.93-34.416
			c-12.008-7.875-23.67-12.038-33.724-12.038c-10.056,0-21.718,4.162-33.726,12.037c-12.498,8.194-24.922,20.095-35.929,34.416
			c-23.637,30.75-37.748,68.495-37.748,100.967c0,37.187,8.886,62.958,27.164,78.786c17.049,14.764,43.294,21.94,80.237,21.94
			s63.189-7.177,80.238-21.94C510.916,432.44,519.802,406.668,519.802,369.484z"/>
	</g>
	<g>
		
			<linearGradient id="SVGID_3_" gradientUnits="userSpaceOnUse" x1="371.7122" y1="562.2922" x2="422.5903" y2="480.8702" gradientTransform="matrix(1 0 0 -1 -0.0151 615.6274)">
			<stop  offset="0" style="stop-color:#FFFFFF"/>
			<stop  offset="1" style="stop-color:#FFFFFF;stop-opacity:0"/>
		</linearGradient>
		<path fill="url(#SVGID_3_)" d="M350.253,141.229c37.467-27.991,83.239-38.596,126.1-35.929
			c-6.73-29.099-32.84-50.862-63.955-50.862c-36.201,0-65.653,29.453-65.653,65.656
			C346.743,127.487,347.989,134.591,350.253,141.229z"/>
		
			<linearGradient id="SVGID_4_" gradientUnits="userSpaceOnUse" x1="338.6653" y1="387.3157" x2="420.1588" y2="256.8987" gradientTransform="matrix(1 0 0 -1 -0.0151 615.6274)">
			<stop  offset="0" style="stop-color:#FFFFFF"/>
			<stop  offset="1" style="stop-color:#FFFFFF;stop-opacity:0"/>
		</linearGradient>
		<path fill="url(#SVGID_4_)" d="M512.052,307.94c-6.438-15.028-14.965-29.706-25.244-43.079
			c-11.414-14.849-24.346-27.221-37.396-35.777c-12.987-8.518-25.786-13.02-37.014-13.02c-11.227,0-24.026,4.502-37.016,13.02
			c-13.051,8.557-25.982,20.929-37.396,35.777c-23.867,31.051-38.323,69.119-38.961,102.34
			C362.696,321.045,439.767,303.503,512.052,307.94z"/>
	</g>
</g>
<g>
	<path fill="#FFFFFF" stroke="#C8C8C8" stroke-width="5" d="M364.65,206.139c0,41.783-33.871,75.654-75.654,75.654
		c-41.784,0-75.655-33.872-75.655-75.654c0-41.784,33.871-75.656,75.655-75.656C330.779,130.483,364.65,164.354,364.65,206.139z
		 M165.593,455.529c0,86.716,46.041,116.728,123.402,116.728c77.355,0,123.403-30.012,123.403-116.728
		c0-77.354-68.376-163.42-123.403-163.42C233.959,292.109,165.593,378.176,165.593,455.529z"/>
	<g>
		<path fill="#DBD237" d="M395.399,455.529c0-32.256-14.035-69.772-37.543-100.357c-10.944-14.235-23.283-26.059-35.684-34.189
			c-11.847-7.768-23.318-11.873-33.176-11.873c-9.86,0-21.333,4.105-33.179,11.873c-12.402,8.132-24.741,19.954-35.683,34.189
			c-23.507,30.583-37.541,68.1-37.541,100.357c0,36.88,8.772,62.403,26.818,78.03c16.859,14.6,42.891,21.696,79.584,21.696
			c36.69,0,62.723-7.097,79.583-21.696C386.625,517.93,395.399,492.406,395.399,455.529z"/>
		<path fill="#DBD237" d="M288.995,264.793c32.342,0,58.654-26.313,58.654-58.654c0-32.343-26.313-58.656-58.654-58.656
			c-32.343,0-58.655,26.313-58.655,58.656C230.34,238.481,256.653,264.793,288.995,264.793z"/>
	</g>
	<g>
		
			<linearGradient id="SVGID_5_" gradientUnits="userSpaceOnUse" x1="248.3074" y1="475.5032" x2="299.1862" y2="394.08" gradientTransform="matrix(1 0 0 -1 -0.0151 615.6274)">
			<stop  offset="0" style="stop-color:#FFFFFF"/>
			<stop  offset="1" style="stop-color:#FFFFFF;stop-opacity:0"/>
		</linearGradient>
		<path fill="url(#SVGID_5_)" d="M226.85,228.02c37.467-27.991,83.239-38.596,126.1-35.929c-6.73-29.099-32.84-50.862-63.955-50.862
			c-36.202,0-65.655,29.453-65.655,65.656C223.341,214.278,224.588,221.382,226.85,228.02z"/>
		
			<linearGradient id="SVGID_6_" gradientUnits="userSpaceOnUse" x1="215.2629" y1="300.5261" x2="296.7576" y2="170.1073" gradientTransform="matrix(1 0 0 -1 -0.0151 615.6274)">
			<stop  offset="0" style="stop-color:#FFFFFF"/>
			<stop  offset="1" style="stop-color:#FFFFFF;stop-opacity:0"/>
		</linearGradient>
		<path fill="url(#SVGID_6_)" d="M388.65,394.731c-6.438-15.028-14.965-29.706-25.244-43.079
			c-11.414-14.849-24.348-27.221-37.396-35.777c-12.988-8.518-25.789-13.02-37.014-13.02c-11.229,0-24.027,4.502-37.018,13.02
			c-13.051,8.557-25.98,20.929-37.395,35.777c-23.868,31.051-38.324,69.119-38.961,102.34
			C239.295,407.836,316.365,390.294,388.65,394.731z"/>
	</g>
</g>
</svg>
