<?xml version="1.0" encoding="utf-8"?>
<!-- Generator: Adobe Illustrator 16.0.0, SVG Export Plug-In . SVG Version: 6.00 Build 0)  -->
<!DOCTYPE svg PUBLIC "-//W3C//DTD SVG 1.1//EN" "http://www.w3.org/Graphics/SVG/1.1/DTD/svg11.dtd">
<svg version="1.1" id="Ebene_1" xmlns="http://www.w3.org/2000/svg" xmlns:xlink="http://www.w3.org/1999/xlink" x="0px" y="0px"
	 width="595.28px" height="595.28px" viewBox="0 0 595.28 595.28" enable-background="new 0 0 595.28 595.28" xml:space="preserve">
<g>
	<linearGradient id="SVGID_1_" gradientUnits="userSpaceOnUse" x1="90.0059" y1="90.0059" x2="505.2764" y2="505.2764">
		<stop  offset="0" style="stop-color:#FDC332"/>
		<stop  offset="0.1978" style="stop-color:#EBB026"/>
		<stop  offset="0.7173" style="stop-color:#C4870D"/>
		<stop  offset="1" style="stop-color:#B77902"/>
	</linearGradient>
	<path fill="url(#SVGID_1_)" d="M297.64,591.28c-78.434,0-152.174-30.544-207.635-86.005C34.544,449.813,4,376.074,4,297.64
		S34.544,145.466,90.005,90.005C145.466,34.544,219.206,4,297.64,4s152.173,30.544,207.635,86.005
		c55.461,55.461,86.005,129.201,86.005,207.635s-30.544,152.173-86.005,207.635C449.813,560.736,376.074,591.28,297.64,591.28z"/>
	<path fill="#7F5613" d="M297.64,8c39.105,0,77.036,7.657,112.739,22.758c34.489,14.588,65.465,35.473,92.067,62.076
		s47.488,57.579,62.076,92.068c15.101,35.703,22.758,73.634,22.758,112.739s-7.657,77.036-22.758,112.739
		c-14.588,34.489-35.474,65.465-62.076,92.067s-57.578,47.488-92.067,62.076c-35.703,15.101-73.634,22.758-112.739,22.758
		c-39.104,0-77.036-7.657-112.739-22.758c-34.489-14.588-65.465-35.474-92.068-62.076s-47.488-57.578-62.076-92.067
		C15.657,374.676,8,336.745,8,297.64s7.657-77.036,22.758-112.739c14.588-34.489,35.473-65.465,62.076-92.068
		s57.579-47.488,92.068-62.076C220.604,15.657,258.536,8,297.64,8 M297.64,0C133.258,0,0,133.258,0,297.64
		s133.258,297.64,297.64,297.64s297.64-133.258,297.64-297.64S462.022,0,297.64,0L297.64,0z"/>
</g>
<g>
	<path d="M332.471,453.656c-3.021,28.038-25.362,44.941-56.382,41.599c-26.249-2.828-46.924-23.765-43.967-51.205
		c3.021-28.04,26.812-47.201,56.639-43.986C318.588,403.278,335.428,426.215,332.471,453.656z M375.852,107.105
		c-9.787,46.017-42.158,195.209-54.488,253.625c-12.978,2.826-51.543,2.291-59.895,1.391c-0.229-9.077-1.452-98.523-1.717-118.467
		c-0.219-25.974-2.067-104.021-4.221-134.428c23.844-2.861,101.957-5.307,119.854-3.378
		C375.979,105.912,375.915,106.509,375.852,107.105z"/>
</g>
</svg>
