<?xml version="1.0" encoding="utf-8"?>
<!-- Generator: Adobe Illustrator 16.0.0, SVG Export Plug-In . SVG Version: 6.00 Build 0)  -->
<!DOCTYPE svg PUBLIC "-//W3C//DTD SVG 1.1//EN" "http://www.w3.org/Graphics/SVG/1.1/DTD/svg11.dtd">
<svg version="1.1" id="Ebene_1" xmlns="http://www.w3.org/2000/svg" xmlns:xlink="http://www.w3.org/1999/xlink" x="0px" y="0px"
	 width="595.279px" height="595.281px" viewBox="0 0 595.279 595.281" enable-background="new 0 0 595.279 595.281"
	 xml:space="preserve">
<g>
	
		<linearGradient id="SVGID_1_" gradientUnits="userSpaceOnUse" x1="90.0242" y1="504.3696" x2="505.294" y2="89.0998" gradientTransform="matrix(1 0 0 -1 -0.02 594.375)">
		<stop  offset="0" style="stop-color:#FDC332"/>
		<stop  offset="0.1978" style="stop-color:#EBB026"/>
		<stop  offset="0.7173" style="stop-color:#C4870D"/>
		<stop  offset="1" style="stop-color:#B77902"/>
	</linearGradient>
	<path display="none" fill="url(#SVGID_1_)" d="M297.64,591.281c-78.434,0-152.174-30.545-207.635-86.006S4,376.074,4,297.64
		c0-78.434,30.544-152.174,86.005-207.635S219.206,4,297.64,4s152.173,30.544,207.635,86.005
		c55.461,55.461,86.005,129.201,86.005,207.635c0,78.434-30.544,152.174-86.005,207.635
		C449.813,560.736,376.073,591.281,297.64,591.281z"/>
	<path fill="#0C7CAD" d="M297.64,0C133.258,0,0,133.258,0,297.64c0,164.383,133.258,297.641,297.64,297.641
		S595.28,462.023,595.28,297.64C595.28,133.258,462.022,0,297.64,0z M467.797,467.798c-22.101,22.102-47.837,39.454-76.49,51.574
		c-29.663,12.547-61.179,18.908-93.667,18.908s-64.003-6.361-93.667-18.908c-28.654-12.12-54.39-29.473-76.492-51.574
		c-22.103-22.101-39.455-47.837-51.575-76.49C63.362,361.643,57,330.129,57,297.64s6.362-64.003,18.908-93.667
		c12.12-28.654,29.472-54.39,51.574-76.492c22.103-22.102,47.838-39.454,76.492-51.575C233.636,63.362,265.152,57,297.64,57
		s64.004,6.362,93.667,18.908c28.653,12.121,54.39,29.472,76.49,51.574c22.103,22.103,39.454,47.838,51.574,76.492
		c12.547,29.664,18.908,61.178,18.908,93.667c0,32.488-6.361,64.003-18.908,93.667C507.251,419.961,489.9,445.698,467.797,467.798z"
		/>
</g>
<g>
	<path fill="#0C7CAD" d="M332.471,453.656c-3.021,28.039-25.362,44.941-56.382,41.6c-26.249-2.828-46.924-23.766-43.967-51.205
		c3.021-28.041,26.812-47.201,56.639-43.986C318.588,403.278,335.428,426.214,332.471,453.656z M375.852,107.105
		c-9.787,46.017-42.158,195.209-54.488,253.625c-12.978,2.826-51.543,2.291-59.895,1.391c-0.229-9.076-1.452-98.522-1.717-118.467
		c-0.219-25.974-2.067-104.021-4.222-134.428c23.845-2.861,101.957-5.307,119.854-3.378
		C375.979,105.912,375.914,106.509,375.852,107.105z"/>
</g>
</svg>
