<?xml version="1.0" encoding="UTF-8" standalone="no"?>
<svg
   xmlns:dc="http://purl.org/dc/elements/1.1/"
   xmlns:cc="http://creativecommons.org/ns#"
   xmlns:rdf="http://www.w3.org/1999/02/22-rdf-syntax-ns#"
   xmlns:svg="http://www.w3.org/2000/svg"
   xmlns="http://www.w3.org/2000/svg"
   xmlns:sodipodi="http://sodipodi.sourceforge.net/DTD/sodipodi-0.dtd"
   xmlns:inkscape="http://www.inkscape.org/namespaces/inkscape"
   inkscape:version="1.1-dev (ddb55ca, 2020-02-02)"
   sodipodi:docname="info.svg"
   version="1.1"
   width="469.33334"
   viewBox="0 0 22 19.339"
   height="412.56534"
   id="color">
  <metadata
     id="metadata41">
    <rdf:RDF>
      <cc:Work
         rdf:about="">
        <dc:format>image/svg+xml</dc:format>
        <dc:type
           rdf:resource="http://purl.org/dc/dcmitype/StillImage" />
      </cc:Work>
    </rdf:RDF>
  </metadata>
  <defs
     id="defs39" />
  <sodipodi:namedview
     inkscape:current-layer="color"
     inkscape:window-maximized="0"
     inkscape:window-y="383"
     inkscape:window-x="0"
     inkscape:cy="255.97867"
     inkscape:cx="256"
     inkscape:zoom="1.1679688"
     showgrid="false"
     id="namedview37"
     inkscape:window-height="847"
     inkscape:window-width="1528"
     inkscape:pageshadow="2"
     inkscape:pageopacity="0"
     guidetolerance="10"
     gridtolerance="10"
     objecttolerance="10"
     borderopacity="1"
     bordercolor="#666666"
     pagecolor="#ffffff" />
  <path
     inkscape:connector-curvature="0"
     id="path10"
     fill="#607d8b"
     d="M 20.5,16.999 H 1.5 C 0.673,16.999 0,16.326 0,15.499 V 3.504 C 0,2.679 0.672,2.005 1.497,2.004 L 3.499,1.999 h 10e-4 17 c 0.827,0 1.5,0.673 1.5,1.5 v 12 c 0,0.827 -0.673,1.5 -1.5,1.5 z" />
  <path
     inkscape:connector-curvature="0"
     id="path12"
     fill="#cfd8dc"
     d="m 11,16.999 c -0.117,0 -0.235,-0.041 -0.329,-0.124 C 8.804,15.241 5.846,14.568 3.692,14.82 3.256,14.868 2.82,14.734 2.496,14.445 2.181,14.164 2,13.76 2,13.337 V 1.585 C 2,0.845 2.556,0.204 3.292,0.094 5.697,-0.263 8.945,0.403 11,2.074 13.055,0.403 16.306,-0.264 18.707,0.094 19.444,0.204 20,0.845 20,1.585 v 11.752 c 0,0.423 -0.181,0.827 -0.496,1.108 -0.324,0.289 -0.761,0.423 -1.196,0.375 -2.156,-0.252 -5.111,0.421 -6.979,2.055 -0.094,0.083 -0.212,0.124 -0.329,0.124 z" />
  <path
     inkscape:connector-curvature="0"
     id="path14"
     fill="#90a4ae"
     d="m 12,1.359 v 14.98 c -0.22,0.16 -0.45,0.35 -0.67,0.54 -0.09,0.08 -0.21,0.12 -0.33,0.12 -0.12,0 -0.24,-0.04 -0.33,-0.12 -0.22,-0.19 -0.45,-0.38 -0.67,-0.54 V 1.359 c 0.34,0.21 0.67,0.45 1,0.72 0.33,-0.27 0.66,-0.51 1,-0.72 z" />
  <path
     inkscape:connector-curvature="0"
     id="path16"
     fill="#546d79"
     d="M 2,2.003 1.497,2.004 C 0.672,2.005 0,2.679 0,3.504 v 11.995 c 0,0.827 0.673,1.5 1.5,1.5 H 11 c -0.12,0 -0.24,-0.04 -0.33,-0.12 -0.093,-0.08 -0.189,-0.161 -0.284,-0.239 -1.605,-1.253 -3.872,-1.87 -5.776,-1.87 -0.318,0 -0.625,0.017 -0.917,0.051 -0.058,0.006 -0.116,0.01 -0.173,0.01 -0.376,0 -0.742,-0.134 -1.023,-0.385 C 2.181,14.164 2,13.76 2,13.337 Z m 9,-0.004 h -0.094 c 0.032,0.025 0.063,0.05 0.094,0.075 z" />
  <path
     inkscape:connector-curvature="0"
     id="path18"
     fill="#b4bcc0"
     d="M 10.744,1.876 C 10.83,1.942 10.915,2.009 11,2.079 V 2.074 C 10.969,2.049 10.938,2.024 10.906,1.999 10.853,1.957 10.799,1.916 10.744,1.876 Z M 4.618,0 C 4.158,0 3.712,0.031 3.292,0.093 2.556,0.204 2,0.845 2,1.585 v 0.418 11.334 c 0,0.423 0.181,0.827 0.496,1.108 0.281,0.251 0.647,0.385 1.023,0.385 0.058,0 0.116,-0.003 0.173,-0.01 0.293,-0.034 0.6,-0.051 0.917,-0.051 1.904,0 4.171,0.617 5.776,1.87 -0.129,-0.106 -0.259,-0.208 -0.386,-0.301 V 1.389 C 8.402,0.465 6.399,0 4.618,0 Z" />
  <path
     inkscape:connector-curvature="0"
     id="path20"
     fill="#7d8f97"
     d="m 10,1.359 v 0.03 14.95 c 0.126,0.092 0.256,0.194 0.386,0.301 0.096,0.078 0.191,0.159 0.284,0.239 0.09,0.08 0.21,0.12 0.33,0.12 V 2.079 C 10.915,2.009 10.83,1.941 10.744,1.876 10.499,1.687 10.252,1.515 10,1.359 Z" />
  <path
     inkscape:connector-curvature="0"
     id="path22"
     fill="#ffc107"
     d="m 11,6.3389996 c -3.5840001,0 -6.5000001,2.9160004 -6.5000001,6.5000004 0,3.584 2.916,6.5 6.5000001,6.5 3.584,0 6.5,-2.916 6.5,-6.5 0,-3.584 -2.916,-6.5000004 -6.5,-6.5000004 z" />
  <path
     inkscape:connector-curvature="0"
     id="path24"
     fill="#ffffff"
     d="m 12,16.339 c 0,0.552 -0.447,1 -1,1 -0.553,0 -1.0000001,-0.448 -1.0000001,-1 v -3.5 c 0,-0.552 0.4470001,-1 1.0000001,-1 0.553,0 1,0.448 1,1 z" />
  <path
     inkscape:connector-curvature="0"
     id="path26"
     fill="#ffffff"
     d="m 11,10.339 c -0.552,0 -1.0000001,-0.448 -1.0000001,-1 0,-0.552 0.4480001,-1 1.0000001,-1 0.552,0 1,0.448 1,1 0,0.552 -0.448,1 -1,1 z" />
  <path
     inkscape:connector-curvature="0"
     id="path28"
     fill="#dea806"
     d="m 11,6.3389996 c -3.5840001,0 -6.5000001,2.9160004 -6.5000001,6.5000004 0,3.584 2.916,6.5 6.5000001,6.5 v -2 c -0.553,0 -1.0000001,-0.448 -1.0000001,-1 v -3.5 c 0,-0.552 0.4470001,-1 1.0000001,-1 v -1.5 c -0.552,0 -1.0000001,-0.448 -1.0000001,-1 0,-0.552 0.4480001,-1 1.0000001,-1 z" />
  <g
     transform="translate(-6.5000001,-4.6610004)"
     id="g34"
     fill="#dedede">
    <path
       inkscape:connector-curvature="0"
       id="path30"
       d="m 17.5,16.5 c -0.553,0 -1,0.448 -1,1 V 21 c 0,0.552 0.447,1 1,1 z" />
    <path
       inkscape:connector-curvature="0"
       id="path32"
       d="m 17.5,13 c -0.552,0 -1,0.448 -1,1 0,0.552 0.448,1 1,1 z" />
  </g>
</svg>
