<?xml version="1.0" encoding="utf-8"?>
<!-- Generator: Adobe Illustrator 16.0.0, SVG Export Plug-In . SVG Version: 6.00 Build 0)  -->
<!DOCTYPE svg PUBLIC "-//W3C//DTD SVG 1.1//EN" "http://www.w3.org/Graphics/SVG/1.1/DTD/svg11.dtd">
<svg version="1.1" id="Ebene_1" xmlns="http://www.w3.org/2000/svg" xmlns:xlink="http://www.w3.org/1999/xlink" x="0px" y="0px"
	 width="577.991px" height="615.928px" viewBox="0 0 577.991 615.928" enable-background="new 0 0 577.991 615.928"
	 xml:space="preserve">
<filter  id="NewFilter">
	<feGaussianBlur  stdDeviation="12" result="blur"></feGaussianBlur>
	<feMerge>
		<feMergeNode  in="blur"></feMergeNode>
	</feMerge>
</filter>
<image overflow="visible" filter="url(#NewFilter)" width="355" height="636" xlink:href="A5C15198.png"  transform="matrix(1 0 0 1 -12.0928 -52.7393)">
</image>
<image overflow="visible" filter="url(#NewFilter)" width="296" height="530" xlink:href="A5C15199.png"  transform="matrix(1 0 0 1 264.3145 0.2607)">
</image>
<image overflow="visible" filter="url(#NewFilter)" width="296" height="530" xlink:href="A5C1519B.png"  transform="matrix(1 0 0 1 140.9121 86.3057)">
</image>
<g>
	<path fill="#FFFFFF" stroke="#C8C8C8" stroke-width="5" d="M241.246,120.094c0,41.783-33.871,75.654-75.655,75.654
		s-75.655-33.872-75.655-75.654c0-41.784,33.871-75.656,75.655-75.656S241.246,78.31,241.246,120.094z M42.188,369.484
		c0,86.716,46.042,116.727,123.403,116.727c77.356,0,123.404-30.011,123.404-116.727c0-77.354-68.376-163.42-123.404-163.42
		C110.555,206.064,42.188,292.131,42.188,369.484z"/>
	<path fill="#DD364A" d="M278.995,369.484c0,39.029-9.564,66.284-29.239,83.322c-18.188,15.749-45.718,23.404-84.165,23.404
		c-38.449,0-65.979-7.655-84.166-23.404c-19.674-17.037-29.237-44.292-29.237-83.322c0-33.749,14.576-72.86,38.992-104.623
		c11.413-14.849,24.344-27.221,37.395-35.778c12.989-8.517,25.789-13.019,37.017-13.019c11.226,0,24.024,4.502,37.014,13.019
		c13.05,8.557,25.981,20.929,37.396,35.778C264.418,296.626,278.995,335.737,278.995,369.484z M165.591,185.748
		c36.202,0,65.655-29.452,65.655-65.654c0-36.203-29.453-65.656-65.655-65.656s-65.655,29.453-65.655,65.656
		C99.936,156.296,129.389,185.748,165.591,185.748z"/>
	<g>
		<linearGradient id="SVGID_1_" gradientUnits="userSpaceOnUse" x1="124.8887" y1="53.3335" x2="175.7674" y2="134.7564">
			<stop  offset="0" style="stop-color:#FFFFFF"/>
			<stop  offset="1" style="stop-color:#FFFFFF;stop-opacity:0"/>
		</linearGradient>
		<path fill="url(#SVGID_1_)" d="M103.446,141.229c37.466-27.991,83.239-38.596,126.099-35.929
			c-6.73-29.099-32.84-50.862-63.954-50.862c-36.202,0-65.655,29.453-65.655,65.656C99.936,127.487,101.183,134.591,103.446,141.229
			z"/>
		<linearGradient id="SVGID_2_" gradientUnits="userSpaceOnUse" x1="91.8428" y1="228.3105" x2="173.3375" y2="358.7293">
			<stop  offset="0" style="stop-color:#FFFFFF"/>
			<stop  offset="1" style="stop-color:#FFFFFF;stop-opacity:0"/>
		</linearGradient>
		<path fill="url(#SVGID_2_)" d="M265.245,307.94c-6.438-15.029-14.965-29.706-25.245-43.079
			c-11.414-14.849-24.346-27.221-37.396-35.778c-12.989-8.517-25.788-13.019-37.014-13.019c-11.228,0-24.027,4.502-37.017,13.019
			c-13.051,8.557-25.981,20.929-37.395,35.778c-23.868,31.05-38.324,69.119-38.961,102.34
			C115.89,321.045,192.96,303.503,265.245,307.94z"/>
	</g>
</g>
<g>
	<path fill="#FFFFFF" stroke="#C8C8C8" stroke-width="5" d="M488.054,120.094c0,41.783-33.871,75.654-75.656,75.654
		c-41.783,0-75.654-33.872-75.654-75.654c0-41.784,33.871-75.656,75.654-75.656C454.183,44.438,488.054,78.31,488.054,120.094z
		 M288.995,369.484c0,86.716,46.041,116.727,123.402,116.727c77.357,0,123.404-30.011,123.404-116.727
		c0-77.354-68.375-163.42-123.404-163.42C357.362,206.064,288.995,292.131,288.995,369.484z"/>
	<path fill="#60DF33" d="M525.802,369.484c0,39.029-9.564,66.284-29.238,83.322c-18.188,15.749-45.719,23.404-84.166,23.404
		c-38.449,0-65.979-7.655-84.165-23.404c-19.674-17.037-29.237-44.292-29.237-83.322c0-33.749,14.576-72.86,38.992-104.623
		c11.412-14.849,24.344-27.221,37.395-35.778c12.988-8.517,25.789-13.019,37.016-13.019s24.025,4.502,37.014,13.019
		c13.051,8.557,25.982,20.929,37.396,35.778C511.226,296.626,525.802,335.737,525.802,369.484z M412.397,185.748
		c36.203,0,65.656-29.452,65.656-65.654c0-36.203-29.453-65.656-65.656-65.656c-36.201,0-65.654,29.453-65.654,65.656
		C346.743,156.296,376.196,185.748,412.397,185.748z"/>
	<g>
		<linearGradient id="SVGID_3_" gradientUnits="userSpaceOnUse" x1="371.6963" y1="53.335" x2="422.575" y2="134.7579">
			<stop  offset="0" style="stop-color:#FFFFFF"/>
			<stop  offset="1" style="stop-color:#FFFFFF;stop-opacity:0"/>
		</linearGradient>
		<path fill="url(#SVGID_3_)" d="M350.253,141.229c37.467-27.991,83.24-38.596,126.1-35.929
			c-6.73-29.099-32.84-50.862-63.955-50.862c-36.201,0-65.654,29.453-65.654,65.656
			C346.743,127.487,347.989,134.591,350.253,141.229z"/>
		<linearGradient id="SVGID_4_" gradientUnits="userSpaceOnUse" x1="338.6504" y1="228.311" x2="420.1445" y2="358.7289">
			<stop  offset="0" style="stop-color:#FFFFFF"/>
			<stop  offset="1" style="stop-color:#FFFFFF;stop-opacity:0"/>
		</linearGradient>
		<path fill="url(#SVGID_4_)" d="M512.052,307.94c-6.438-15.029-14.965-29.706-25.244-43.079
			c-11.414-14.849-24.346-27.221-37.396-35.778c-12.988-8.517-25.787-13.019-37.014-13.019s-24.027,4.502-37.016,13.019
			c-13.051,8.557-25.982,20.929-37.395,35.778c-23.868,31.05-38.324,69.119-38.961,102.34
			C362.696,321.045,439.767,303.503,512.052,307.94z"/>
	</g>
</g>
<g>
	<path fill="#FFFFFF" stroke="#C8C8C8" stroke-width="5" d="M364.65,206.139c0,41.783-33.871,75.654-75.655,75.654
		s-75.655-33.872-75.655-75.654c0-41.784,33.871-75.656,75.655-75.656S364.65,164.354,364.65,206.139z M165.593,455.529
		c0,86.716,46.041,116.727,123.402,116.727c77.356,0,123.404-30.011,123.404-116.727c0-77.354-68.376-163.42-123.404-163.42
		C233.959,292.109,165.593,378.176,165.593,455.529z"/>
	<path fill="#DBD237" d="M402.399,455.529c0,39.029-9.564,66.284-29.239,83.322c-18.188,15.749-45.718,23.404-84.165,23.404
		c-38.449,0-65.979-7.655-84.166-23.404c-19.674-17.037-29.236-44.292-29.236-83.322c0-33.749,14.576-72.86,38.991-104.623
		c11.413-14.849,24.344-27.221,37.395-35.778c12.989-8.517,25.789-13.019,37.017-13.019c11.226,0,24.024,4.502,37.014,13.019
		c13.05,8.557,25.981,20.929,37.396,35.778C387.822,382.671,402.399,421.782,402.399,455.529z M288.995,271.793
		c36.202,0,65.655-29.452,65.655-65.654c0-36.203-29.453-65.656-65.655-65.656s-65.655,29.453-65.655,65.656
		C223.34,242.341,252.793,271.793,288.995,271.793z"/>
	<g>
		<linearGradient id="SVGID_5_" gradientUnits="userSpaceOnUse" x1="248.2939" y1="139.3794" x2="299.1726" y2="220.8023">
			<stop  offset="0" style="stop-color:#FFFFFF"/>
			<stop  offset="1" style="stop-color:#FFFFFF;stop-opacity:0"/>
		</linearGradient>
		<path fill="url(#SVGID_5_)" d="M226.851,227.273c37.466-27.991,83.239-38.596,126.099-35.929
			c-6.73-29.099-32.84-50.862-63.954-50.862c-36.202,0-65.655,29.453-65.655,65.656C223.34,213.532,224.587,220.636,226.851,227.273
			z"/>
		<linearGradient id="SVGID_6_" gradientUnits="userSpaceOnUse" x1="215.2471" y1="314.3555" x2="296.7418" y2="444.7742">
			<stop  offset="0" style="stop-color:#FFFFFF"/>
			<stop  offset="1" style="stop-color:#FFFFFF;stop-opacity:0"/>
		</linearGradient>
		<path fill="url(#SVGID_6_)" d="M388.649,393.985c-6.438-15.029-14.965-29.706-25.245-43.079
			c-11.414-14.849-24.346-27.221-37.396-35.778c-12.989-8.517-25.788-13.019-37.014-13.019c-11.228,0-24.027,4.502-37.017,13.019
			c-13.051,8.557-25.981,20.929-37.395,35.778c-23.868,31.05-38.323,69.119-38.961,102.34
			C239.294,407.09,316.364,389.548,388.649,393.985z"/>
	</g>
</g>
</svg>
