<?xml version="1.0" encoding="utf-8"?>
<!-- Generator: Adobe Illustrator 16.0.0, SVG Export Plug-In . SVG Version: 6.00 Build 0)  -->
<!DOCTYPE svg PUBLIC "-//W3C//DTD SVG 1.1//EN" "http://www.w3.org/Graphics/SVG/1.1/DTD/svg11.dtd">
<svg version="1.1" id="Layer_1" xmlns="http://www.w3.org/2000/svg" xmlns:xlink="http://www.w3.org/1999/xlink" x="0px" y="0px"
	 width="496.891px" height="514.854px" viewBox="-15.979 163.519 496.891 514.854"
	 enable-background="new -15.979 163.519 496.891 514.854" xml:space="preserve">
<path display="none" fill="#CFF09E" d="M308.497,420.947l-109.61-106.653V196.203c0-14.35,17.323-21.565,27.509-11.457
	l238.021,236.199l-238.021,236.2c-10.187,10.105-27.509,2.893-27.509-11.457v-118.09L308.497,420.947z"/>
<text transform="matrix(1 0 0 1 -25.8601 492.4448)" display="none" fill="#9E2100" font-family="'CenturySchoolbook-Italic'" font-size="400">3</text>
<path display="none" fill="#507C5C" d="M476.036,432.654c3.121-3.096,4.876-7.313,4.876-11.709c0-4.396-1.755-8.613-4.876-11.709
	l-238.02-236.2c-6.176-6.126-14.298-9.501-22.873-9.501c-18.058,0-32.751,14.655-32.751,32.668v118.09
	c0,4.454,1.802,8.718,4.992,11.823l97.459,94.83l-97.459,94.83c-3.19,3.105-4.992,7.369-4.992,11.823v36.58l-81.289,80.666V534.582
	l104.619-101.797c3.191-3.105,4.991-7.369,4.991-11.823s-1.801-8.718-4.991-11.823L101.104,307.343l0.004-110.268
	c0,0-0.672-0.383-1.798-0.976l1.796-0.007c-0.034-9.112-7.449-16.468-16.561-16.434c-9.109,0.036-16.467,7.45-16.432,16.56v118.09
	c0,4.454,1.802,8.718,4.992,11.823l97.459,94.83l-97.459,94.83c-3.19,3.105-4.992,7.369-4.992,11.823v118.09
	c0,18.014,14.693,32.668,32.751,32.668c8.575,0,16.697-3.375,22.873-9.5l58.655-58.211v35.027c0,18.014,14.693,32.668,32.751,32.668
	c8.575,0,16.697-3.375,22.873-9.5L476.036,432.654z M215.383,644.83V534.566l104.619-101.797c3.191-3.105,4.991-7.369,4.991-11.823
	s-1.801-8.718-4.991-11.823L215.383,307.327l0.004-110.268l225.61,223.886L215.383,644.83z"/>
<path fill="#EFEB9E" d="M350.139,527.582v118.09c0,14.35-17.322,21.563-27.509,11.457L84.61,420.929L322.63,184.73
	c10.186-10.108,27.509-2.893,27.509,11.457v118.091l-109.61,106.653L350.139,527.582z"/>
<path fill="#7A7C2C" d="M311.009,668.841c6.176,6.125,14.298,9.5,22.873,9.5c18.058,0,32.751-14.654,32.751-32.668v-35.027
	l58.655,58.211c6.176,6.125,14.298,9.5,22.873,9.5c18.058,0,32.751-14.654,32.751-32.668v-118.09c0-4.454-1.802-8.718-4.992-11.823
	l-97.459-94.83l97.459-94.83c3.19-3.105,4.992-7.369,4.992-11.823v-118.09c0.036-9.109-7.322-16.524-16.432-16.56
	c-9.111-0.035-16.526,7.322-16.561,16.434l1.796,0.007c-1.125,0.593-1.798,0.976-1.798,0.976l0.004,110.268L343.303,409.123
	c-3.19,3.105-4.991,7.369-4.991,11.823s1.8,8.718,4.991,11.823l104.619,101.797V644.83l-81.289-80.666v-36.58
	c0-4.454-1.802-8.718-4.992-11.823l-97.459-94.83l97.459-94.83c3.19-3.105,4.992-7.369,4.992-11.823v-118.09
	c0-18.013-14.693-32.668-32.751-32.668c-8.575,0-16.697,3.375-22.873,9.501L72.99,409.22c-3.121,3.096-4.876,7.313-4.876,11.709
	c0,4.397,1.755,8.614,4.876,11.709L311.009,668.841z M108.029,420.93l225.61-223.886l0.004,110.268L229.024,409.107
	c-3.19,3.105-4.991,7.369-4.991,11.823s1.8,8.718,4.991,11.823L333.643,534.55v110.264L108.029,420.93z"/>
<g>
	<path fill="#9E2100" d="M107.775,289.424c12.623-26.817,24.929-45.355,36.917-55.605c11.987-10.25,27.093-15.375,45.325-15.375
		c20.963,0,37.279,9.91,48.947,29.725c11.668,19.819,15.281,45.527,10.84,77.129c-4.394,31.262-15.044,57.014-31.951,77.257
		c-16.908,20.243-34.022,30.365-51.338,30.365c-12.891,0-23.996-6.234-33.309-18.706c-6.142-8.199-13.546-26.393-22.212-54.58
		c-11.312,21.184-22.57,36.431-33.772,45.74c-11.205,9.313-23.837,13.965-37.9,13.965c-18.75,0-33.367-8.797-43.85-26.393
		c-10.485-17.593-13.768-40.314-9.854-68.162c3.961-28.187,13.142-50.904,27.548-68.161c14.403-17.252,29.614-25.881,45.63-25.881
		c11.197,0,20.559,3.804,28.085,11.403C94.405,249.751,101.37,265.51,107.775,289.424z M99.338,309.155
		c-3.74-18.79-9.086-32.627-16.041-41.511c-6.955-8.88-16.422-13.325-28.401-13.325c-13.803,0-26.255,6.367-37.351,19.09
		c-11.1,12.729-18.148,29.769-21.149,51.121c-3.193,22.723-1.154,40.871,6.117,54.452s16.699,20.371,28.29,20.371
		c12.369,0,24.327-7.259,35.873-21.78C74.139,368.007,85.025,345.203,99.338,309.155z M119.214,341.442
		c6.021,26.649,13.14,44.547,21.361,53.684c8.219,9.14,18.255,13.709,30.104,13.709c16.016,0,30.457-7.56,43.324-22.678
		c12.867-15.118,21.088-35.401,24.666-60.858c3.529-25.112,0.782-45.868-8.241-62.268c-9.023-16.399-20.566-24.599-34.629-24.599
		c-8.984,0-17.25,2.991-24.795,8.968c-7.549,5.982-14.978,15.547-22.295,28.699C144.504,283.787,134.672,305.568,119.214,341.442z"
		/>
</g>
</svg>
