<?xml version="1.0" encoding="utf-8"?>
<!-- Generator: Adobe Illustrator 16.0.0, SVG Export Plug-In . SVG Version: 6.00 Build 0)  -->
<!DOCTYPE svg PUBLIC "-//W3C//DTD SVG 1.1//EN" "http://www.w3.org/Graphics/SVG/1.1/DTD/svg11.dtd">
<svg version="1.1"
	 id="svg2" xmlns:dc="http://purl.org/dc/elements/1.1/" xmlns:svg="http://www.w3.org/2000/svg" xmlns:cc="http://creativecommons.org/ns#" xmlns:inkscape="http://www.inkscape.org/namespaces/inkscape" xmlns:sodipodi="http://sodipodi.sourceforge.net/DTD/sodipodi-0.dtd" xmlns:rdf="http://www.w3.org/1999/02/22-rdf-syntax-ns#" sodipodi:docname="shield-green.svg" inkscape:export-filename="C:\Users\Yann\Desktop\shield-green.png" inkscape:export-xdpi="4.2538862" inkscape:export-ydpi="4.2538862" inkscape:version="0.48.4 r9939"
	 xmlns="http://www.w3.org/2000/svg" xmlns:xlink="http://www.w3.org/1999/xlink" x="0px" y="0px" width="721.393px"
	 height="533.433px" viewBox="-96.933 42.181 721.393 533.433" enable-background="new -96.933 42.181 721.393 533.433"
	 xml:space="preserve">
<filter  id="NewFilter">
	<feGaussianBlur  stdDeviation="12" result="blur"></feGaussianBlur>
	<feMerge>
		<feMergeNode  in="blur"></feMergeNode>
	</feMerge>
</filter>
<g display="none" filter="url(#NewFilter)">
	<path display="inline" fill="#0F66CE" d="M379.485,298.251L133.102,53.752c-6.002-5.955-13.892-9.233-22.214-9.233h-0.001h-0.001
		c-8.146,0-15.914,3.066-21.874,8.635c-6.417,5.996-9.952,14.202-9.952,23.106v122.239v6.333l4.539,4.417L186.012,308.9
		L83.6,408.549l-4.54,4.417v6.334v122.24c0,8.905,3.534,17.11,9.952,23.105c5.959,5.567,13.728,8.634,21.874,8.634
		c8.322,0,16.212-3.278,22.213-9.229l246.386-244.504l10.729-10.647L379.485,298.251z"/>
</g>
<path fill="#595959" stroke="#383838" stroke-width="4.6705" d="M521.016,374.952h84.595c9.121,0,16.514,7.394,16.514,16.514
	c0,9.119-7.393,16.513-16.514,16.513h-84.595c-9.12,0-16.513-7.394-16.513-16.513C504.504,382.345,511.896,374.952,521.016,374.952z
	"/>
<g>
	<path fill="#595959" d="M431.13,76.26v122.239L317.67,308.9L431.131,419.3v122.24c0,14.854-17.931,22.318-28.476,11.859
		l-79.146-78.592l-0.757,20.435l69.34,68.809c6.001,5.95,13.891,9.229,22.213,9.229c8.146,0,15.915-3.066,21.874-8.634
		c6.418-5.995,9.952-14.2,9.952-23.105V419.3v-6.334l-4.54-4.417L339.178,308.9l102.413-99.651l4.539-4.417v-6.333V91.26
		C446.131,82.976,439.415,76.26,431.13,76.26z"/>
	<path fill="#383838" d="M448.466,93.595c0-9.137-7.073-16.606-16.041-17.271c6.387,0.648,11.371,6.042,11.371,12.601v114.92
		L335.83,308.9l107.966,105.052V541.54c0,8.251-3.271,15.851-9.211,21.399c-5.525,5.162-12.729,8.005-20.28,8.005
		c-7.702,0-15.007-3.037-20.567-8.551l-70.864-70.323l0.405,6.982l67.17,66.656c6.441,6.388,14.914,9.905,23.856,9.905
		c8.741,0,17.075-3.289,23.468-9.263c6.896-6.441,10.693-15.253,10.693-24.812V411.979L342.527,308.9l105.938-103.083V93.595
		L448.466,93.595L448.466,93.595z"/>
</g>
<g>
	<path fill="#595959" d="M316.029,76.258v122.239l-113.46,110.401L316.03,419.298v122.24c0,14.854-17.931,22.318-28.476,11.859
		l-246.384-244.5l159.761-158.54l-3.417-17.742L30.605,298.249l-10.729,10.648l10.729,10.647l246.386,244.504
		c6.001,5.95,13.891,9.229,22.213,9.229c8.146,0,15.915-3.066,21.874-8.634c6.418-5.995,9.952-14.2,9.952-23.105v-122.24v-6.334
		l-4.54-4.417l-102.412-99.648l102.413-99.651l4.539-4.417v-6.333V91.259C331.03,82.974,324.314,76.258,316.029,76.258z"/>
	<path fill="#383838" d="M333.365,93.594c0-9.137-7.073-16.606-16.041-17.271c6.387,0.648,11.371,6.042,11.371,12.601v114.92
		L220.729,308.898L328.695,413.95v127.588c0,8.251-3.271,15.851-9.211,21.399c-5.525,5.162-12.728,8.005-20.28,8.005
		c-7.702,0-15.007-3.037-20.568-8.551L23.192,308.897h-6.63l258.785,256.81c6.442,6.388,14.915,9.905,23.857,9.905
		c8.741,0,17.075-3.289,23.468-9.263c6.896-6.441,10.693-15.253,10.693-24.812V411.977L227.427,308.898l105.938-103.083V93.594
		L333.365,93.594L333.365,93.594z"/>
</g>
<g>
	<path fill="#595959" stroke="#383838" stroke-width="4.6705" d="M-93.618,308.897l10.729,10.647l246.386,244.504
		c6.001,5.95,13.891,9.229,22.213,9.229c8.146,0,15.915-3.066,21.874-8.634c6.418-5.995,9.952-14.2,9.952-23.105v-122.24v-6.334
		l-4.54-4.417l-102.412-99.648l102.413-99.651l4.539-4.417v-6.333V76.258c0-8.904-3.535-17.11-9.952-23.106
		c-5.96-5.568-13.728-8.635-21.874-8.635h-0.001h-0.001c-8.322,0-16.212,3.278-22.214,9.233L-82.89,298.249L-93.618,308.897z"/>
	<path fill="#98A000" d="M202.535,419.298v122.24c0,14.854-17.931,22.318-28.476,11.859l-246.384-244.5l246.383-244.5
		c10.545-10.462,28.476-2.994,28.476,11.86v122.239L89.074,308.898L202.535,419.298z"/>
	<linearGradient id="SVGID_1_" gradientUnits="userSpaceOnUse" x1="27.6296" y1="130.1599" x2="114.3622" y2="268.9611">
		<stop  offset="0" style="stop-color:#FFFFFF"/>
		<stop  offset="1" style="stop-color:#FFFFFF;stop-opacity:0"/>
	</linearGradient>
	<path fill="url(#SVGID_1_)" d="M174.058,64.397l-246.383,244.5l14.691,14.579c62.496-29.443,128.909-50.75,195.729-62.278
		l64.438-62.701V76.258C202.534,61.403,184.603,53.935,174.058,64.397z"/>
</g>
<path fill="#595959" stroke="#383838" stroke-width="4.6705" d="M453.349,292.385h84.596c9.119,0,16.513,7.394,16.513,16.514
	c0,9.119-7.394,16.513-16.513,16.513h-84.596c-9.119,0-16.513-7.394-16.513-16.513C436.837,299.779,444.23,292.385,453.349,292.385z
	"/>
<path fill="#595959" stroke="#383838" stroke-width="4.6705" d="M500.691,209.82h84.596c9.119,0,16.513,7.394,16.513,16.514
	c0,9.119-7.394,16.513-16.513,16.513h-84.596c-9.119,0-16.513-7.394-16.513-16.513C484.178,217.213,491.572,209.82,500.691,209.82z"
	/>
</svg>
