<?xml version="1.0" encoding="utf-8"?>
<!-- Generator: Adobe Illustrator 16.0.0, SVG Export Plug-In . SVG Version: 6.00 Build 0)  -->
<!DOCTYPE svg PUBLIC "-//W3C//DTD SVG 1.1//EN" "http://www.w3.org/Graphics/SVG/1.1/DTD/svg11.dtd">
<svg version="1.1" id="Layer_1" xmlns="http://www.w3.org/2000/svg" xmlns:xlink="http://www.w3.org/1999/xlink" x="0px" y="0px"
	 width="709.469px" height="514.836px" viewBox="0 0 709.469 514.836" enable-background="new 0 0 709.469 514.836"
	 xml:space="preserve">
<path display="none" fill="#CFF09E" d="M308.495,420.947L198.887,314.293v-118.09c0-14.35,17.322-21.565,27.509-11.457
	l238.021,236.199l-238.021,236.2c-10.188,10.105-27.509,2.895-27.509-11.455V527.596L308.495,420.947z"/>
<text transform="matrix(1 0 0 1 -25.8596 492.4429)" display="none" fill="#9E2100" enable-background="new    " font-family="'CenturySchoolbook-Italic'" font-size="400">3</text>
<path display="none" fill="#507C5C" d="M476.034,432.655c3.121-3.098,4.876-7.314,4.876-11.71s-1.755-8.612-4.876-11.709
	l-238.02-236.2c-6.177-6.126-14.299-9.501-22.873-9.501c-18.059,0-32.751,14.655-32.751,32.668v118.088
	c0,4.455,1.802,8.719,4.991,11.824l97.459,94.829l-97.459,94.831c-3.189,3.104-4.991,7.367-4.991,11.82v36.58l-81.289,80.666
	v-110.26L205.72,432.786c3.19-3.105,4.99-7.369,4.99-11.822c0-4.455-1.801-8.719-4.99-11.822L101.104,307.342l0.004-110.267
	c0,0-0.672-0.383-1.798-0.976l1.796-0.007c-0.034-9.112-7.447-16.468-16.562-16.434c-9.108,0.036-16.467,7.45-16.434,16.56v118.09
	c0,4.452,1.804,8.718,4.992,11.821l97.459,94.83l-97.459,94.83c-3.188,3.104-4.992,7.369-4.992,11.824v118.09
	c0,18.014,14.693,32.668,32.751,32.668c8.575,0,16.697-3.375,22.873-9.5l58.655-58.211v35.023c0,18.018,14.692,32.67,32.751,32.67
	c8.574,0,16.696-3.375,22.873-9.5L476.034,432.655z M215.383,644.831V534.567l104.62-101.799c3.188-3.104,4.988-7.367,4.988-11.822
	c0-4.453-1.801-8.718-4.988-11.822l-104.62-101.795l0.005-110.27l225.607,223.886L215.383,644.831z"/>
<path fill="#EFEB9E" d="M282.025,364.071v118.09c0,14.352-17.321,21.564-27.509,11.457l-238.021-236.2L254.517,21.219
	c10.187-10.108,27.509-2.893,27.509,11.457v118.091L172.415,257.42L282.025,364.071z"/>
<g>
	<path fill="#7A7C2C" d="M601.437,171.582h91.536c9.107,0,16.495-7.385,16.495-16.496c0-9.11-7.388-16.495-16.495-16.495h-91.535
		c-9.11,0-16.496,7.385-16.496,16.495C584.94,164.197,592.324,171.582,601.437,171.582z"/>
	<path fill="#7A7C2C" d="M500.074,240.925c-9.107,0-16.495,7.385-16.495,16.496c-0.002,9.111,7.388,16.496,16.495,16.496H657.21
		c9.107,0,16.494-7.385,16.494-16.496c0-9.109-7.387-16.496-16.494-16.496H500.074z"/>
	<path fill="#7A7C2C" d="M692.973,343.256H512.842l0.012,0.027l-88.228-85.849l97.46-94.829c3.188-3.105,4.99-7.369,4.99-11.824
		V32.692c0.036-9.109-7.32-16.524-16.433-16.56c-9.11-0.035-16.525,7.322-16.562,16.434l1.797,0.007
		c-1.125,0.593-1.8,0.976-1.8,0.976l0.006,110.268L389.468,245.612c-3.188,3.105-4.99,7.369-4.99,11.823s1.801,8.718,4.99,11.823
		l104.62,101.797v110.264l-81.29-80.666v-36.564c0-4.452-1.802-8.719-4.99-11.82l-97.459-94.831l97.459-94.829
		c3.188-3.105,4.99-7.369,4.99-11.824V32.692c0.036-9.109-7.32-16.524-16.433-16.56c-9.11-0.035-16.525,7.322-16.561,16.434
		l1.796,0.007c-1.125,0.593-1.8,0.976-1.8,0.976l0.006,110.268L275.19,245.612c-3.189,3.105-4.991,7.369-4.991,11.823
		s1.801,8.718,4.991,11.823l104.619,101.797v110.264l-81.289-80.666v-36.58c0-4.453-1.804-8.717-4.992-11.822l-97.459-94.83
		l97.459-94.83c3.188-3.105,4.992-7.369,4.992-11.823V32.677c0-18.013-14.693-32.668-32.751-32.668
		c-8.575,0-16.697,3.375-22.873,9.501L4.877,245.709C1.756,248.805,0,253.022,0,257.418s1.756,8.614,4.877,11.709l238.02,236.203
		c6.176,6.125,14.298,9.5,22.873,9.5c18.058,0,32.751-14.654,32.751-32.668v-35.027l58.653,58.211c6.178,6.125,14.3,9.5,22.873,9.5
		c18.06,0,32.751-14.65,32.751-32.668v-35.043l58.654,58.211c6.177,6.125,14.299,9.5,22.873,9.5c18.06,0,32.751-14.65,32.751-32.668
		V376.247h165.896c9.107,0,16.495-7.385,16.495-16.496C709.468,350.64,702.081,343.254,692.973,343.256z M265.529,481.303
		L39.916,257.419L265.525,33.533l0.004,110.268L160.91,245.596c-3.188,3.105-4.99,7.369-4.99,11.823
		c0,4.455,1.801,8.718,4.99,11.824L265.529,371.04V481.303z"/>
</g>
</svg>
