<?xml version="1.0" encoding="utf-8"?>
<!-- Generator: Adobe Illustrator 16.0.0, SVG Export Plug-In . SVG Version: 6.00 Build 0)  -->
<!DOCTYPE svg PUBLIC "-//W3C//DTD SVG 1.1//EN" "http://www.w3.org/Graphics/SVG/1.1/DTD/svg11.dtd">
<svg version="1.1" id="Layer_1" xmlns="http://www.w3.org/2000/svg" xmlns:xlink="http://www.w3.org/1999/xlink" x="0px" y="0px"
	 width="605.709px" height="514.824px" viewBox="0 0 605.709 514.824" enable-background="new 0 0 605.709 514.824"
	 xml:space="preserve">
<path fill="#CFF09E" d="M318.708,257.412L209.099,150.759V32.668c0-14.35,17.323-21.565,27.509-11.457L474.628,257.41
	L236.608,493.611c-10.187,10.104-27.509,2.893-27.509-11.457V364.062L318.708,257.412z"/>
<g>
	<path fill="#507C5C" d="M306.969,447.027v35.129c0,13.219,7.885,25.045,20.088,30.127c4.078,1.697,8.347,2.523,12.578,2.523
		c8.433,0,16.708-3.283,22.959-9.484l238.021-236.201c3.121-3.096,4.876-7.313,4.876-11.709c0.001-4.396-1.753-8.613-4.874-11.709
		L362.596,9.502c-6.468-6.419-16.912-6.377-23.33,0.089c-6.416,6.467-6.376,16.912,0.091,23.329l226.221,224.49L339.963,481.292
		v-67.008l146.284-145.166c3.121-3.096,4.876-7.313,4.876-11.709s-1.755-8.613-4.876-11.709l-238.02-236.2
		C242.052,3.375,233.93,0,225.355,0c-18.058,0-32.751,14.655-32.751,32.668v118.089c0,4.455,1.802,8.719,4.992,11.824l97.459,94.83
		l-97.459,94.83c-3.19,3.104-4.992,7.369-4.992,11.822v118.09c0,18.014,14.693,32.668,32.751,32.668
		c8.575,0,16.697-3.375,22.873-9.5L306.969,447.027z M225.595,481.294V371.031l104.619-101.797c3.19-3.105,4.99-7.369,4.99-11.823
		s-1.801-8.718-4.99-11.823L225.595,143.792l0.004-110.269L451.208,257.41L225.595,481.294z"/>
</g>
<g>
	<path fill="#9E2100" d="M36.305,298.246h90.234c8.463,0,15.592-2.637,21.387-7.91c5.792-5.273,13.116-17.871,21.973-37.793h15.625
		l-26.563,76.367H-0.219l4.103-14.648c11.328-16.143,24.512-31.51,39.551-46.094c15.039-14.58,37.793-33.984,68.262-58.203
		c20.963-16.666,33.658-27.147,38.086-31.444c9.244-9.244,16.179-19.142,20.802-29.688c4.62-10.547,6.934-21.808,6.934-33.789
		c0-14.063-4.33-25.259-12.988-33.594c-8.66-8.331-20.673-12.5-36.034-12.5c-15.234,0-27.964,4.169-38.185,12.5
		c-10.224,8.334-15.332,17.061-15.332,26.172c0,2.734,0.909,5.078,2.734,7.031c1.821,2.084,5.597,4.102,11.328,6.055
		c7.682,2.866,12.921,6.055,15.723,9.57c2.799,3.516,4.199,8.008,4.199,13.477c0,6.25-2.084,11.426-6.25,15.527
		c-4.169,4.102-9.639,6.152-16.406,6.152c-9.115,0-16.797-3.613-23.047-10.84c-6.25-7.228-9.375-16.896-9.375-29.004
		c0-20.182,7.646-37.335,22.949-51.465c15.299-14.126,35.123-21.191,59.473-21.191c24.737,0,44.434,6.415,59.082,19.238
		c14.648,12.827,21.973,29.135,21.973,48.926c0,10.547-2.377,20.834-7.129,30.859c-4.755,10.027-12.401,19.922-22.949,29.688
		c-10.547,9.766-28.45,22.396-53.711,37.891c-26.824,16.406-46.614,29.917-59.375,40.527
		C61.433,270.675,48.805,283.402,36.305,298.246z"/>
</g>
</svg>
