<?xml version="1.0" encoding="utf-8"?>
<!-- Generator: Adobe Illustrator 16.0.0, SVG Export Plug-In . SVG Version: 6.00 Build 0)  -->
<!DOCTYPE svg PUBLIC "-//W3C//DTD SVG 1.1//EN" "http://www.w3.org/Graphics/SVG/1.1/DTD/svg11.dtd">
<svg version="1.1"
	 id="svg2" xmlns:dc="http://purl.org/dc/elements/1.1/" xmlns:cc="http://creativecommons.org/ns#" xmlns:rdf="http://www.w3.org/1999/02/22-rdf-syntax-ns#" xmlns:svg="http://www.w3.org/2000/svg" xmlns:sodipodi="http://sodipodi.sourceforge.net/DTD/sodipodi-0.dtd" xmlns:inkscape="http://www.inkscape.org/namespaces/inkscape" inkscape:export-ydpi="4.2538862" inkscape:export-xdpi="4.2538862" inkscape:export-filename="C:\Users\Yann\Desktop\shield-green.png" inkscape:version="0.48.4 r9939" sodipodi:docname="shield-green.svg"
	 xmlns="http://www.w3.org/2000/svg" xmlns:xlink="http://www.w3.org/1999/xlink" x="0px" y="0px" width="431.905px"
	 height="533.429px" viewBox="125.818 0.647 431.905 533.429" enable-background="new 125.818 0.647 431.905 533.429"
	 xml:space="preserve">
<g>
	<path fill="#383838" d="M311.205,22.725L311.205,22.725c-3.131-3.106-7.423-4.988-12.181-4.988c-4.809,0-9.155,1.961-12.293,5.124
		l12.985-0.1l244.751,244.598L293.739,518.942c-5.561,5.516-10.955,7.771-18.658,7.771c-7.552,0-12.201-2.701-17.728-7.863
		c-5.939-5.549-7.385-10.599-7.385-18.849l-0.914-124.124l104.5-108.517L245.591,162.307l-4.672,1.973l105.938,103.082
		L240.921,370.439v129.561c0,9.561,3.797,18.37,10.691,24.813c6.396,5.974,14.729,9.263,23.468,9.263
		c8.943,0,17.416-3.518,23.857-9.907l246.385-244.504l12.4-12.305L311.205,22.725z"/>
	<path fill="#595959" d="M304.641,22.79h-0.002c-2.289-2.271-5.438-3.678-8.919-3.678c-3.516,0-6.693,1.435-8.987,3.746
		l246.383,244.5l-246.383,244.5c-10.547,10.459-28.478,2.994-28.478-11.859V377.761l113.461-110.398L258.255,156.96l-12.664,5.348
		l107.964,105.054l-107.964,105.05V500c0,8.25,3.271,15.853,9.211,21.399c5.524,5.162,12.729,8.005,20.278,8.005
		c7.703,0,15.01-3.037,20.568-8.553l255.444-253.493L304.641,22.79z"/>
</g>
<g>
	<path fill="#595959" stroke="#383838" stroke-width="4.6705" d="M428.578,256.714L182.196,12.215
		c-6.002-5.955-13.893-9.232-22.214-9.232h-0.001h-0.001c-8.146,0-15.914,3.065-21.874,8.635
		c-6.417,5.995-9.952,14.201-9.952,23.105v122.238v6.333l4.539,4.417l102.413,99.651l-102.412,99.65l-4.54,4.417v6.334v122.239
		c0,8.904,3.534,17.109,9.952,23.104c5.959,5.567,13.728,8.634,21.874,8.634c8.321,0,16.212-3.276,22.213-9.229l246.386-244.504
		l10.729-10.647L428.578,256.714z"/>
	<linearGradient id="SVGID_1_" gradientUnits="userSpaceOnUse" x1="143.1536" y1="267.3616" x2="418.0139" y2="267.3616">
		<stop  offset="0" style="stop-color:#287F38"/>
		<stop  offset="1" style="stop-color:#2D9143"/>
	</linearGradient>
	<path fill="url(#SVGID_1_)" d="M256.615,267.363l-113.46-110.4V34.723c0-14.854,17.932-22.322,28.477-11.86l246.383,244.5
		l-246.384,244.5c-10.545,10.459-28.477,2.994-28.477-11.859V377.764L256.615,267.363z"/>
	
		<linearGradient id="SVGID_2_" gradientUnits="userSpaceOnUse" x1="129.7898" y1="568.1428" x2="296.4171" y2="301.4834" gradientTransform="matrix(1 0 0 -1 -0.0454 553.5278)">
		<stop  offset="0" style="stop-color:#FFFFFF"/>
		<stop  offset="1" style="stop-color:#FFFFFF;stop-opacity:0.05"/>
	</linearGradient>
	<path fill="url(#SVGID_2_)" d="M369.938,219.653L171.63,22.862c-10.544-10.462-28.477-2.994-28.477,11.861v122.238l107.88,104.972
		C289.564,244.632,329.465,230.41,369.938,219.653z"/>
</g>
</svg>
