<?xml version="1.0" encoding="utf-8"?>
<!-- Generator: Adobe Illustrator 16.0.0, SVG Export Plug-In . SVG Version: 6.00 Build 0)  -->
<!DOCTYPE svg PUBLIC "-//W3C//DTD SVG 1.1//EN" "http://www.w3.org/Graphics/SVG/1.1/DTD/svg11.dtd">
<svg version="1.1"
	 id="svg2" xmlns:dc="http://purl.org/dc/elements/1.1/" xmlns:svg="http://www.w3.org/2000/svg" xmlns:cc="http://creativecommons.org/ns#" xmlns:inkscape="http://www.inkscape.org/namespaces/inkscape" xmlns:sodipodi="http://sodipodi.sourceforge.net/DTD/sodipodi-0.dtd" xmlns:rdf="http://www.w3.org/1999/02/22-rdf-syntax-ns#" sodipodi:docname="shield-green.svg" inkscape:export-filename="C:\Users\Yann\Desktop\shield-green.png" inkscape:export-xdpi="4.2538862" inkscape:export-ydpi="4.2538862" inkscape:version="0.48.4 r9939"
	 xmlns="http://www.w3.org/2000/svg" xmlns:xlink="http://www.w3.org/1999/xlink" x="0px" y="0px" width="721.391px"
	 height="533.43px" viewBox="-99.268 42.184 721.391 533.43" enable-background="new -99.268 42.184 721.391 533.43"
	 xml:space="preserve">
<filter  id="NewFilter">
	<feGaussianBlur  stdDeviation="12" result="blur"></feGaussianBlur>
	<feMerge>
		<feMergeNode  in="blur"></feMergeNode>
	</feMerge>
</filter>
<g display="none" filter="url(#NewFilter)">
	<path display="inline" fill="#0F66CE" d="M379.485,298.251L133.102,53.752c-6.002-5.955-13.893-9.232-22.214-9.232h-0.001h-0.001
		c-8.146,0-15.914,3.065-21.874,8.635C82.595,59.15,79.06,67.356,79.06,76.26v122.238v6.333l4.539,4.417L186.012,308.9L83.6,408.55
		l-4.54,4.417v6.334v122.24c0,8.904,3.534,17.109,9.952,23.104c5.959,5.567,13.728,8.634,21.874,8.634
		c8.321,0,16.212-3.277,22.213-9.229l246.386-244.504l10.729-10.647L379.485,298.251z"/>
</g>
<path fill="#595959" stroke="#383838" stroke-width="4.6705" d="M4.175,374.952H-80.42c-9.12,0-16.513,7.395-16.513,16.515
	c0,9.119,7.393,16.513,16.513,16.513H4.175c9.12,0,16.514-7.394,16.514-16.513C20.687,382.345,13.294,374.952,4.175,374.952z"/>
<g>
	<path fill="#383838" d="M375.606,64.262L375.606,64.262c-3.131-3.106-7.423-4.988-12.182-4.988c-4.808,0-9.154,1.961-12.293,5.124
		l12.986-0.1L608.87,308.896L358.14,560.479c-5.561,5.516-10.955,7.771-18.658,7.771c-7.552,0-12.202-2.702-17.729-7.864
		c-5.938-5.549-7.385-10.598-7.385-18.848l-0.563-55.29l-8.485,8.503v46.786c0,9.56,3.797,18.37,10.692,24.813
		c6.395,5.974,14.729,9.263,23.468,9.263c8.942,0,17.416-3.518,23.856-9.906l246.386-244.505l12.399-12.305L375.606,64.262z"/>
	<path fill="#595959" d="M369.042,64.327h-0.002c-2.289-2.271-5.438-3.677-8.919-3.677c-3.515,0-6.694,1.434-8.988,3.746
		l246.384,244.5l-246.384,244.5c-10.546,10.459-28.477,2.994-28.477-11.859V477.75l-12.664,12.321v51.467
		c0,8.25,3.271,15.852,9.211,21.399c5.525,5.162,12.729,8.005,20.279,8.005c7.703,0,15.009-3.037,20.567-8.553l255.444-253.493
		L369.042,64.327z"/>
</g>
<g>
	<path fill="#383838" d="M262.112,64.262L262.112,64.262c-3.131-3.106-7.423-4.988-12.181-4.988c-4.809,0-9.155,1.961-12.293,5.124
		l12.985-0.1l244.751,244.598L244.645,560.479c-5.561,5.516-10.955,7.771-18.658,7.771c-7.552,0-12.202-2.702-17.728-7.864
		c-5.939-5.549-7.385-10.598-7.385-18.848l-0.914-124.124l104.5-108.517L196.497,203.844l-4.672,1.973l105.939,103.082
		L191.827,411.976v129.561c0,9.56,3.797,18.37,10.692,24.813c6.395,5.974,14.729,9.263,23.468,9.263
		c8.943,0,17.416-3.518,23.857-9.907l246.385-244.504l12.4-12.305L262.112,64.262z"/>
	<path fill="#595959" d="M255.547,64.327h-0.002c-2.289-2.271-5.438-3.677-8.919-3.677c-3.515,0-6.693,1.434-8.987,3.746
		l246.383,244.5l-246.383,244.5c-10.547,10.459-28.478,2.994-28.478-11.859V419.298l113.461-110.398L209.161,198.497l-12.664,5.348
		l107.964,105.054L196.497,413.949v127.589c0,8.25,3.271,15.852,9.211,21.399c5.525,5.162,12.729,8.005,20.279,8.005
		c7.703,0,15.009-3.037,20.568-8.553L502,308.896L255.547,64.327z"/>
</g>
<g>
	<path fill="#595959" stroke="#383838" stroke-width="4.6705" d="M379.485,298.251L133.102,53.752
		c-6.002-5.955-13.893-9.232-22.214-9.232h-0.001h-0.001c-8.146,0-15.914,3.065-21.874,8.635C82.595,59.15,79.06,67.356,79.06,76.26
		v122.238v6.333l4.539,4.417L186.012,308.9L83.6,408.55l-4.54,4.417v6.334v122.24c0,8.904,3.534,17.109,9.952,23.104
		c5.959,5.567,13.728,8.634,21.874,8.634c8.321,0,16.212-3.277,22.213-9.229l246.386-244.504l10.729-10.647L379.485,298.251z"/>
	<linearGradient id="SVGID_1_" gradientUnits="userSpaceOnUse" x1="94.0603" y1="308.8992" x2="368.9197" y2="308.8992">
		<stop  offset="0" style="stop-color:#0F66CE"/>
		<stop  offset="1" style="stop-color:#0E76DD"/>
	</linearGradient>
	<path fill="url(#SVGID_1_)" d="M207.521,308.9L94.061,198.499V76.26c0-14.854,17.931-22.322,28.476-11.86L368.92,308.9
		L122.536,553.4c-10.545,10.459-28.476,2.994-28.476-11.859v-122.24L207.521,308.9z"/>
	
		<linearGradient id="SVGID_2_" gradientUnits="userSpaceOnUse" x1="80.6824" y1="6.5227" x2="247.3103" y2="273.183" gradientTransform="matrix(1 0 0 1 -0.0303 20.3984)">
		<stop  offset="0" style="stop-color:#FFFFFF"/>
		<stop  offset="1" style="stop-color:#FFFFFF;stop-opacity:0.05"/>
	</linearGradient>
	<path fill="url(#SVGID_2_)" d="M320.844,261.19L122.536,64.399C111.992,53.937,94.06,61.405,94.06,76.26v122.238L201.94,303.47
		C240.47,286.169,280.371,271.948,320.844,261.19z"/>
</g>
<path fill="#595959" stroke="#383838" stroke-width="4.6705" d="M71.842,292.385h-84.595c-9.12,0-16.513,7.394-16.513,16.514
	c0,9.119,7.393,16.513,16.513,16.513h84.595c9.12,0,16.514-7.394,16.514-16.513C88.354,299.779,80.961,292.385,71.842,292.385z"/>
<path fill="#595959" stroke="#383838" stroke-width="4.6705" d="M24.5,209.82h-84.595c-9.12,0-16.513,7.394-16.513,16.514
	c0,9.119,7.393,16.514,16.513,16.514H24.5c9.12,0,16.514-7.395,16.514-16.514C41.012,217.213,33.619,209.82,24.5,209.82z"/>
</svg>
