<?xml version="1.0" encoding="utf-8"?>
<!-- Generator: Adobe Illustrator 16.0.0, SVG Export Plug-In . SVG Version: 6.00 Build 0)  -->
<!DOCTYPE svg PUBLIC "-//W3C//DTD SVG 1.1//EN" "http://www.w3.org/Graphics/SVG/1.1/DTD/svg11.dtd">
<svg version="1.1" id="Layer_1" xmlns="http://www.w3.org/2000/svg" xmlns:xlink="http://www.w3.org/1999/xlink" x="0px" y="0px"
	 width="612.258px" height="514.824px" viewBox="0 0 612.258 514.824" enable-background="new 0 0 612.258 514.824"
	 xml:space="preserve">
<path fill="#CEE8FA" d="M325.475,257.412L215.866,150.759V32.668c0-14.35,17.322-21.565,27.509-11.457L481.395,257.41
	L243.375,493.611c-10.188,10.104-27.509,2.893-27.509-11.457V364.062L325.475,257.412z"/>
<g>
	<path fill="#2D527C" d="M313.735,447.027v35.129c0,13.219,7.886,25.045,20.089,30.127c4.078,1.697,8.347,2.523,12.578,2.523
		c8.433,0,16.708-3.283,22.959-9.484l238.021-236.201c3.121-3.096,4.876-7.313,4.876-11.709c0.001-4.396-1.753-8.613-4.874-11.709
		L369.363,9.502c-6.468-6.419-16.912-6.377-23.33,0.089c-6.416,6.467-6.376,16.912,0.091,23.329l226.221,224.49L346.73,481.292
		v-67.008l146.284-145.166c3.121-3.096,4.876-7.313,4.876-11.709s-1.755-8.613-4.876-11.709l-238.02-236.2
		C248.818,3.375,240.696,0,232.122,0c-18.059,0-32.751,14.655-32.751,32.668v118.089c0,4.455,1.802,8.719,4.991,11.824l97.46,94.83
		l-97.46,94.83c-3.189,3.104-4.991,7.369-4.991,11.822v118.09c0,18.014,14.692,32.668,32.751,32.668
		c8.574,0,16.696-3.375,22.873-9.5L313.735,447.027z M232.361,481.294V371.031l104.62-101.797c3.19-3.105,4.99-7.369,4.99-11.823
		s-1.801-8.718-4.99-11.823l-104.62-101.795l0.005-110.269L457.975,257.41L232.361,481.294z"/>
</g>
<text transform="matrix(1 0 0 1 -25.8596 492.4448)" display="none" fill="#9E2100" enable-background="new    " font-family="'CenturySchoolbook-Italic'" font-size="400">3</text>
<g>
	<path fill="#9E2100" d="M123.755,125.906c12.623-26.817,24.928-45.355,36.917-55.605c11.987-10.25,27.094-15.375,45.324-15.375
		c20.963,0,37.279,9.91,48.947,29.725c11.668,19.819,15.281,45.527,10.84,77.129c-4.393,31.262-15.043,57.015-31.951,77.257
		c-16.907,20.244-34.021,30.365-51.338,30.365c-12.891,0-23.996-6.234-33.309-18.705c-6.141-8.199-13.545-26.392-22.211-54.58
		c-11.312,21.184-22.57,36.43-33.772,45.741c-11.205,9.312-23.837,13.964-37.9,13.964c-18.75,0-33.367-8.797-43.85-26.392
		c-10.485-17.594-13.768-40.315-9.854-68.162c3.961-28.187,13.142-50.904,27.548-68.161c14.403-17.252,29.614-25.881,45.63-25.881
		c11.197,0,20.559,3.804,28.085,11.403C110.385,86.232,117.35,101.991,123.755,125.906z M115.318,145.637
		c-3.74-18.79-9.086-32.627-16.041-41.511C92.322,95.245,82.855,90.8,70.876,90.8c-13.803,0-26.255,6.367-37.351,19.09
		c-11.1,12.729-18.148,29.769-21.149,51.121c-3.193,22.723-1.154,40.872,6.117,54.452c7.271,13.582,16.699,20.371,28.29,20.371
		c12.369,0,24.327-7.258,35.873-21.779C90.119,204.488,101.005,181.684,115.318,145.637z M135.195,177.923
		c6.02,26.649,13.139,44.547,21.361,53.684c8.219,9.139,18.254,13.708,30.104,13.708c16.016,0,30.457-7.56,43.324-22.677
		c12.867-15.119,21.089-35.402,24.666-60.858c3.529-25.112,0.783-45.868-8.24-62.268c-9.023-16.399-20.566-24.599-34.629-24.599
		c-8.984,0-17.25,2.991-24.795,8.968c-7.549,5.982-14.979,15.547-22.296,28.699C160.484,120.269,150.652,142.049,135.195,177.923z"
		/>
</g>
</svg>
