<?xml version="1.0" encoding="utf-8"?>
<!-- Generator: Adobe Illustrator 16.0.0, SVG Export Plug-In . SVG Version: 6.00 Build 0)  -->
<!DOCTYPE svg PUBLIC "-//W3C//DTD SVG 1.1//EN" "http://www.w3.org/Graphics/SVG/1.1/DTD/svg11.dtd">
<svg version="1.1"
	 id="svg2" xmlns:dc="http://purl.org/dc/elements/1.1/" xmlns:cc="http://creativecommons.org/ns#" xmlns:rdf="http://www.w3.org/1999/02/22-rdf-syntax-ns#" xmlns:svg="http://www.w3.org/2000/svg" xmlns:sodipodi="http://sodipodi.sourceforge.net/DTD/sodipodi-0.dtd" xmlns:inkscape="http://www.inkscape.org/namespaces/inkscape" inkscape:export-ydpi="4.2538862" inkscape:export-xdpi="4.2538862" inkscape:export-filename="C:\Users\Yann\Desktop\shield-green.png" inkscape:version="0.48.4 r9939" sodipodi:docname="shield-green.svg"
	 xmlns="http://www.w3.org/2000/svg" xmlns:xlink="http://www.w3.org/1999/xlink" x="0px" y="0px" width="547.002px"
	 height="533.428px" viewBox="125.818 0.648 547.002 533.428" enable-background="new 125.818 0.648 547.002 533.428"
	 xml:space="preserve">
<g>
	<path fill="#383838" d="M426.305,22.725L426.305,22.725c-3.131-3.106-7.423-4.988-12.181-4.988c-4.81,0-9.155,1.961-12.293,5.124
		l12.984-0.1l244.751,244.598L408.838,518.942c-5.562,5.517-10.955,7.771-18.658,7.771c-7.552,0-12.201-2.701-17.728-7.863
		c-5.939-5.549-7.386-10.599-7.386-18.849l-0.433-58.781l-8.614,11.33v47.45c0,9.561,3.797,18.369,10.691,24.813
		c6.396,5.974,14.729,9.263,23.468,9.263c8.943,0,17.416-3.518,23.857-9.906l246.385-244.505l12.399-12.305L426.305,22.725z"/>
	<path fill="#595959" d="M419.74,22.79h-0.002c-2.289-2.271-5.438-3.678-8.919-3.678c-3.516,0-6.692,1.435-8.986,3.746
		l246.383,244.5l-246.383,244.5c-10.547,10.459-28.479,2.994-28.479-11.859v-64.783l-12.664,12.667V500
		c0,8.25,3.271,15.854,9.211,21.399c5.524,5.162,12.729,8.005,20.278,8.005c7.703,0,15.01-3.037,20.568-8.553l255.443-253.493
		L419.74,22.79z"/>
</g>
<g>
	<path fill="#383838" d="M311.205,22.725L311.205,22.725c-3.132-3.106-7.424-4.988-12.182-4.988c-4.809,0-9.154,1.961-12.293,5.124
		l12.985-0.1l244.751,244.598L293.739,518.942c-5.561,5.517-10.954,7.771-18.657,7.771c-7.553,0-12.201-2.701-17.729-7.863
		c-5.938-5.549-7.385-10.599-7.385-18.849l-0.914-124.124l104.5-108.518L245.591,162.307l-4.672,1.973l105.938,103.082
		L240.921,370.439V500c0,9.562,3.797,18.37,10.69,24.813c6.396,5.974,14.729,9.263,23.469,9.263c8.942,0,17.416-3.518,23.856-9.906
		l246.385-244.505l12.4-12.305L311.205,22.725z"/>
	<path fill="#595959" d="M304.641,22.79h-0.002c-2.289-2.271-5.438-3.678-8.919-3.678c-3.516,0-6.693,1.435-8.987,3.746
		l246.383,244.5l-246.383,244.5c-10.547,10.459-28.478,2.994-28.478-11.859V377.761l113.461-110.398L258.255,156.96l-12.664,5.349
		l107.964,105.054l-107.964,105.05V500c0,8.25,3.271,15.854,9.211,21.399c5.524,5.162,12.729,8.005,20.278,8.005
		c7.703,0,15.01-3.037,20.567-8.553l255.444-253.493L304.641,22.79z"/>
</g>
<g>
	<path fill="#595959" stroke="#383838" stroke-width="4.6705" d="M428.577,256.714L182.196,12.215
		c-6.002-5.954-13.893-9.231-22.214-9.231h-0.001h-0.001c-8.146,0-15.914,3.064-21.874,8.635
		c-6.417,5.995-9.952,14.201-9.952,23.105v122.237v6.333l4.539,4.417l102.413,99.651l-102.412,99.65l-4.54,4.417v6.334v122.239
		c0,8.903,3.534,17.108,9.952,23.104c5.959,5.567,13.729,8.634,21.874,8.634c8.321,0,16.212-3.275,22.213-9.229l246.386-244.505
		l10.729-10.646L428.577,256.714z"/>
	
		<linearGradient id="SVGID_1_" gradientUnits="userSpaceOnUse" x1="143.1687" y1="265.7659" x2="418.0295" y2="265.7659" gradientTransform="matrix(1 0 0 -1 -0.0151 533.1284)">
		<stop  offset="0" style="stop-color:#1C7382"/>
		<stop  offset="1" style="stop-color:#1D8490"/>
	</linearGradient>
	<path fill="url(#SVGID_1_)" d="M256.615,267.363l-113.46-110.4V34.723c0-14.854,17.933-22.322,28.478-11.86l246.383,244.5
		l-246.384,244.5c-10.545,10.459-28.478,2.994-28.478-11.858v-122.24L256.615,267.363z"/>
	
		<linearGradient id="SVGID_2_" gradientUnits="userSpaceOnUse" x1="129.8059" y1="27.157" x2="296.4338" y2="293.8173" gradientTransform="matrix(1 0 0 1 -0.0605 -41.7725)">
		<stop  offset="0" style="stop-color:#FFFFFF"/>
		<stop  offset="1" style="stop-color:#FFFFFF;stop-opacity:0.05"/>
	</linearGradient>
	<path fill="url(#SVGID_2_)" d="M369.938,219.653L171.63,22.862c-10.544-10.462-28.478-2.994-28.478,11.861v122.237l107.881,104.973
		C289.564,244.632,329.465,230.41,369.938,219.653z"/>
</g>
</svg>
