<?xml version="1.0" encoding="utf-8"?>
<!-- Generator: Adobe Illustrator 16.0.0, SVG Export Plug-In . SVG Version: 6.00 Build 0)  -->
<!DOCTYPE svg PUBLIC "-//W3C//DTD SVG 1.1//EN" "http://www.w3.org/Graphics/SVG/1.1/DTD/svg11.dtd">
<svg version="1.1" id="Layer_1" xmlns="http://www.w3.org/2000/svg" xmlns:xlink="http://www.w3.org/1999/xlink" x="0px" y="0px"
	 width="709.664px" height="514.824px" viewBox="0 0 709.664 514.824" enable-background="new 0 0 709.664 514.824"
	 xml:space="preserve">
<path fill="#2D527C" d="M108.031,171.573H16.495C7.386,171.573,0,164.188,0,155.077c0-9.11,7.386-16.495,16.495-16.495h91.535
	c9.11,0,16.496,7.385,16.496,16.495C124.528,164.188,117.143,171.573,108.031,171.573z"/>
<path fill="#CEE8FA" d="M308.496,257.412L198.887,150.759V32.668c0-14.35,17.323-21.565,27.509-11.457L464.416,257.41
	L226.396,493.611c-10.187,10.104-27.509,2.893-27.509-11.457V364.062L308.496,257.412z"/>
<path fill="#2D527C" d="M209.393,273.908H52.259c-9.109,0-16.496-7.385-16.496-16.496c0-9.109,7.387-16.496,16.496-16.496h157.134
	c9.109,0,16.495,7.385,16.495,16.496C225.89,266.523,218.502,273.908,209.393,273.908z"/>
<path fill="#2D527C" d="M704.789,245.716L466.77,9.517c-6.467-6.419-16.912-6.377-23.33,0.089
	c-6.416,6.467-6.377,16.912,0.09,23.329L669.75,257.423L444.138,481.308V414.3l-0.029-0.004l0,0l146.294-145.176
	c3.121-3.098,4.876-7.314,4.876-11.71c0.001-4.396-1.753-8.612-4.874-11.71L352.384,9.501c-6.468-6.419-16.912-6.377-23.33,0.089
	c-6.416,6.467-6.376,16.912,0.091,23.329l226.221,224.49L329.751,481.292v-67.008l146.284-145.166
	c3.121-3.096,4.876-7.313,4.876-11.709s-1.755-8.613-4.876-11.709l-238.02-236.2C231.84,3.375,223.718,0,215.143,0
	c-18.058,0-32.751,14.655-32.751,32.668v118.089c0,4.455,1.802,8.719,4.992,11.824l97.459,94.83l-88.216,85.836H16.495
	C7.386,343.246,0,350.63,0,359.742s7.386,16.496,16.495,16.496h165.896v105.914c0,18.014,14.692,32.67,32.751,32.67
	c8.574,0,16.697-3.373,22.873-9.502l58.742-58.293v35.129c0,13.219,7.885,25.045,20.088,30.127
	c4.078,1.697,8.347,2.523,12.578,2.523c8.433,0,16.708-3.283,22.959-9.484l58.778-58.33l-0.019,0.051v35.129
	c0,13.219,7.885,25.045,20.089,30.127c4.078,1.697,8.346,2.523,12.578,2.523c8.432,0,16.707-3.283,22.959-9.484l238.02-236.201
	c3.121-3.096,4.877-7.313,4.877-11.709C709.664,253.032,707.91,248.815,704.789,245.716z M215.383,481.294V371.031l104.619-101.797
	c3.19-3.105,4.99-7.369,4.99-11.823s-1.801-8.718-4.99-11.823L215.383,143.792l0.004-110.269L440.996,257.41L215.383,481.294z"/>
</svg>
