<?xml version="1.0" encoding="utf-8"?>
<!-- Generator: Adobe Illustrator 16.0.0, SVG Export Plug-In . SVG Version: 6.00 Build 0)  -->
<!DOCTYPE svg PUBLIC "-//W3C//DTD SVG 1.1//EN" "http://www.w3.org/Graphics/SVG/1.1/DTD/svg11.dtd">
<svg version="1.1" id="Layer_1" xmlns="http://www.w3.org/2000/svg" xmlns:xlink="http://www.w3.org/1999/xlink" x="0px" y="0px"
	 width="412.889px" height="514.824px" viewBox="0 0 412.889 514.824" enable-background="new 0 0 412.889 514.824"
	 xml:space="preserve">
<path fill="#CFF09E" d="M126.104,257.414L16.495,150.761V32.67c0-14.35,17.322-21.565,27.509-11.457l238.021,236.199L44.004,493.613
	c-10.188,10.104-27.509,2.893-27.509-11.457V364.064L126.104,257.414z"/>
<g>
	<path fill="#507C5C" d="M114.364,447.029v35.129c0,13.219,7.886,25.045,20.089,30.127c4.078,1.697,8.347,2.523,12.578,2.523
		c8.433,0,16.708-3.283,22.959-9.484L408.01,269.123c3.121-3.096,4.876-7.313,4.876-11.709c0.001-4.396-1.753-8.613-4.874-11.709
		L169.992,9.504c-6.468-6.419-16.912-6.377-23.33,0.089c-6.416,6.467-6.376,16.912,0.091,23.329l226.221,224.49L147.359,481.294
		v-67.008l146.284-145.166c3.121-3.096,4.876-7.313,4.876-11.709s-1.755-8.613-4.876-11.709L55.624,9.503
		c-6.177-6.126-14.299-9.501-22.873-9.501C14.692,0.002,0,14.657,0,32.67v118.089c0,4.455,1.802,8.719,4.991,11.824l97.46,94.83
		l-97.46,94.83C1.802,355.347,0,359.613,0,364.066v118.09c0,18.014,14.692,32.668,32.751,32.668c8.574,0,16.696-3.375,22.873-9.5
		L114.364,447.029z M32.99,481.296V371.033l104.62-101.797c3.19-3.105,4.99-7.369,4.99-11.823s-1.801-8.718-4.99-11.823
		L32.99,143.794l0.005-110.269l225.609,223.886L32.99,481.296z"/>
</g>
</svg>
