<?xml version="1.0" encoding="utf-8"?>
<!-- Generator: Adobe Illustrator 16.0.0, SVG Export Plug-In . SVG Version: 6.00 Build 0)  -->
<!DOCTYPE svg PUBLIC "-//W3C//DTD SVG 1.1//EN" "http://www.w3.org/Graphics/SVG/1.1/DTD/svg11.dtd">
<svg version="1.1" id="Layer_1" xmlns="http://www.w3.org/2000/svg" xmlns:xlink="http://www.w3.org/1999/xlink" x="0px" y="0px"
	 width="595.943px" height="514.824px" viewBox="0 0 595.943 514.824" enable-background="new 0 0 595.943 514.824"
	 xml:space="preserve">
<path fill="#A9E0BF" d="M308.497,257.412L198.887,150.759V32.668c0-14.35,17.322-21.565,27.509-11.457L464.417,257.41
	L226.396,493.611c-10.188,10.104-27.509,2.893-27.509-11.457V364.062L308.497,257.412z"/>
<g>
	<path fill="#437A79" d="M296.757,447.027v35.129c0,13.219,7.886,25.045,20.089,30.127c4.078,1.697,8.347,2.523,12.578,2.523
		c8.433,0,16.708-3.283,22.959-9.484l238.021-236.201c3.121-3.096,4.876-7.313,4.876-11.708c0.001-4.396-1.753-8.613-4.874-11.709
		L352.385,9.502c-6.468-6.419-16.912-6.377-23.33,0.089c-6.416,6.467-6.376,16.912,0.091,23.329l226.221,224.49L329.752,481.292
		v-67.008l146.284-145.166c3.121-3.096,4.876-7.313,4.876-11.708c0-4.396-1.755-8.613-4.876-11.709l-238.02-236.2
		C231.84,3.375,223.718,0,215.143,0c-18.059,0-32.751,14.655-32.751,32.668v118.089c0,4.455,1.802,8.719,4.991,11.824l97.46,94.831
		l-97.46,94.83c-3.189,3.104-4.991,7.369-4.991,11.822v118.09c0,18.014,14.692,32.668,32.751,32.668
		c8.574,0,16.696-3.375,22.873-9.5L296.757,447.027z M215.383,481.294V371.031l104.62-101.797c3.19-3.105,4.99-7.369,4.99-11.824
		c0-4.453-1.801-8.717-4.99-11.822l-104.62-101.795l0.005-110.269L440.997,257.41L215.383,481.294z"/>
</g>
<g>
	<path fill="#9E2100" d="M120.429,190.146c17.314,6.646,30.304,15.277,38.965,25.896c8.658,10.621,12.987,23.289,12.987,38.01
		c0,20.978-9.276,39.642-27.832,55.994c-18.555,16.35-40.79,24.527-66.698,24.527c-15.234,0-28.939-2.932-41.113-8.789
		c-12.177-5.859-21.454-13.834-27.832-23.928c-6.381-10.088-9.57-20.801-9.57-32.129c0-10.416,2.701-18.779,8.105-25.097
		c5.4-6.314,11.815-9.473,19.238-9.473c6.51,0,11.913,2.117,16.211,6.348c4.297,4.232,6.444,9.604,6.444,16.113
		c0,5.468-1.044,9.896-3.125,13.281c-2.084,3.389-6.444,7.031-13.086,10.938c-4.037,2.217-6.316,3.779-6.836,4.689
		c-0.912,1.172-1.367,2.732-1.367,4.688c0,6.25,4.068,12.305,12.207,18.164c8.137,5.859,18.326,8.789,30.566,8.789
		c11.588,0,22.428-3.189,32.52-9.57c10.09-6.379,18.359-16.016,24.806-28.906c6.445-12.891,9.668-26.236,9.668-40.039
		c0-12.369-4.037-22.59-12.109-30.664c-8.075-8.072-18.427-12.109-31.055-12.109c-3.388,0-7.294,0.264-11.719,0.781
		c-4.818,0.652-8.14,0.977-9.962,0.977c-4.169,0-7.195-0.756-9.081-2.271c-1.89-1.514-2.832-3.654-2.832-6.424
		c0-2.502,0.977-4.51,2.93-6.023c1.953-1.513,5.078-2.273,9.375-2.273l6.641,0.391c5.078,0.392,8.984,0.587,11.72,0.587
		c22.394,0,40.819-6.889,55.272-20.67c14.322-13.775,21.484-31,21.484-51.669c0-13.517-3.711-24.011-11.134-31.488
		c-7.422-7.474-17.841-11.212-31.25-11.212c-11.719,0-21.42,2.411-29.102,7.227c-7.685,4.819-11.523,9.052-11.523,12.695
		c0,2.084,1.822,4.688,5.47,7.813c6.641,6.122,9.961,12.631,9.961,19.53c0,5.992-1.953,10.972-5.859,14.941
		c-3.906,3.975-8.725,5.957-14.453,5.957c-6.381,0-11.752-2.472-16.112-7.422c-4.364-4.947-6.543-11.393-6.543-19.336
		c0-14.189,7.03-27.081,21.094-38.672c14.063-11.587,31.445-17.383,52.147-17.383c21.354,0,39.063,6.247,53.125,18.738
		c14.063,12.494,21.095,27.327,21.095,44.5c0,17.696-6.807,32.693-20.41,44.988C168.247,173.46,147.773,183.121,120.429,190.146z"/>
</g>
</svg>
