<?xml version="1.0" encoding="utf-8"?>
<!-- Generator: Adobe Illustrator 16.0.0, SVG Export Plug-In . SVG Version: 6.00 Build 0)  -->
<!DOCTYPE svg PUBLIC "-//W3C//DTD SVG 1.1//EN" "http://www.w3.org/Graphics/SVG/1.1/DTD/svg11.dtd">
<svg version="1.1" id="Layer_1" xmlns="http://www.w3.org/2000/svg" xmlns:xlink="http://www.w3.org/1999/xlink" x="0px" y="0px"
	 width="527.271px" height="514.824px" viewBox="0 0 527.271 514.824" enable-background="new 0 0 527.271 514.824"
	 xml:space="preserve">
<path fill="#A9E0BF" d="M126.106,257.414L16.495,150.761V32.67c0-14.35,17.323-21.565,27.509-11.457l238.021,236.199L44.004,493.613
	c-10.187,10.104-27.509,2.893-27.509-11.457V364.064L126.106,257.414z"/>
<path fill="#437A79" d="M522.398,245.718l-238.02-236.2c-6.467-6.419-16.912-6.377-23.33,0.089
	c-6.416,6.467-6.377,16.912,0.09,23.329l226.222,224.49L261.746,481.31v-67.008l-0.029-0.004l146.294-145.176
	c3.121-3.098,4.876-7.314,4.876-11.71c0.001-4.396-1.753-8.612-4.874-11.71L169.992,9.503c-6.467-6.419-16.912-6.377-23.33,0.089
	c-6.416,6.467-6.376,16.912,0.091,23.329l226.221,224.49L147.36,481.294v-67.008l146.284-145.166
	c3.121-3.096,4.876-7.313,4.876-11.709s-1.755-8.613-4.876-11.709L55.624,9.503c-6.176-6.126-14.298-9.501-22.873-9.501
	C14.694,0.002,0,14.657,0,32.67v118.089c0,4.455,1.802,8.719,4.992,11.824l97.459,94.83l-97.459,94.83
	C1.802,355.347,0,359.613,0,364.066v118.09c0,18.014,14.693,32.668,32.751,32.668c8.575,0,16.697-3.375,22.873-9.5l58.74-58.295
	v35.129c0,13.219,7.885,25.045,20.088,30.127c4.078,1.697,8.347,2.523,12.578,2.523c8.433,0,16.708-3.283,22.959-9.484l58.778-58.33
	l-0.019,0.051v35.129c0,13.219,7.885,25.045,20.089,30.127c4.078,1.697,8.346,2.523,12.578,2.523c8.432,0,16.707-3.283,22.959-9.484
	l238.02-236.201c3.121-3.096,4.878-7.313,4.878-11.708C527.273,253.033,525.519,248.817,522.398,245.718z M32.991,481.296V371.033
	l104.619-101.797c3.19-3.105,4.991-7.369,4.991-11.823s-1.802-8.718-4.991-11.823L32.991,143.794l0.004-110.269l225.609,223.886
	L32.991,481.296z"/>
</svg>
